<?xml version="1.0" encoding="iso-8859-1"?>
<!-- Generator: Adobe Illustrator 15.0.0, SVG Export Plug-In . SVG Version: 6.00 Build 0)  -->
<!DOCTYPE svg PUBLIC "-//W3C//DTD SVG 1.1//EN" "http://www.w3.org/Graphics/SVG/1.1/DTD/svg11.dtd">
<svg version="1.1" xmlns="http://www.w3.org/2000/svg" xmlns:xlink="http://www.w3.org/1999/xlink" x="0px" y="0px"
	 width="2529.088px" height="1891.836px" viewBox="0 0 2529.088 1891.836" style="enable-background:new 0 0 2529.088 1891.836;"
	 xml:space="preserve">
<g id="Bg-stripes">
	<g>
		<g>
			<path style="fill:#21294E;stroke:#000000;stroke-width:0.2219;stroke-linecap:round;stroke-linejoin:round;" d="
				M108.988,1722.038l332,8.985l327.494,12.578l204.333-13.067l223.077,7.76l332.096,8.808l426.083,3.965l317.917,3.01h257.1v18.525
				l-397.1-7l-418-1l-310-6l-319-4.839l-220,0.313c0,0-95.846,9.525-141.423,6.525s-293.577-6.839-293.577-6.839l-255-6.661
				l-10,0.219l-25-3.719l-27-7.5L108.988,1722.038z"/>
			<path style="fill:#21294E;stroke:#000000;stroke-width:0.2219;stroke-linecap:round;stroke-linejoin:round;" d="
				M2529.088,1790.602l0.025,16l-796.027-8c0,0-817.098-14-881.098-8s-128.423,7.253-128.423,7.253l-591.577-25.253l-8-18.839
				c0,0,481.632,41.512,616,26.419c112-12.58,608,0,608,0L2529.088,1790.602z"/>
			<path style="fill:#21294E;stroke:#000000;stroke-width:0.2219;stroke-linecap:round;stroke-linejoin:round;" d="
				M2529.088,1825.602v10h-543.1h-249l-679-10h-295l5.494-11c0,0,138.645-8,201.576-8s500.892,8,500.892,8s488.039,2,538.039,2
				S2529.088,1825.602,2529.088,1825.602z"/>
			<path style="fill:#21294E;stroke:#000000;stroke-width:0.2219;stroke-linecap:round;stroke-linejoin:round;" d="
				M2529.113,1856.602l-0.025,16h-540.1h-504c0,0-162-4-213,0s-75.309-5-112.154,0s-292.846,1.058-292.846,1.058l-87-7.791v-22.267
				c0,0,85,6,126,0s121,8,144,8s36-6,91-4s142-1,196,0s66.725,2,105.362,1s357.638,2,357.638,2h338l391.1,2"/>
		</g>
		<polygon style="fill:#21294E;stroke:#000000;stroke-width:0.2219;stroke-linecap:round;stroke-linejoin:round;" points="
			2529.088,1754.076 2491.984,1753.763 2479.988,126.602 2511.988,126.602 		"/>
		<polygon style="fill:#21294E;stroke:#000000;stroke-width:0.2219;stroke-linecap:round;stroke-linejoin:round;" points="
			2529.113,93.763 990.226,89.759 67.988,84.602 67.988,49.602 925.988,63.602 2008.321,64.602 2529.113,68.46 		"/>
		<path style="fill:#21294E;stroke:#000000;stroke-width:0.2219;stroke-linecap:round;stroke-linejoin:round;" d="M2529.113,42.602
			v-12c0,0-785.572,4-856.349,0s-367.072,2.997-437.924-3.003S743.988,14.602,731.988,14.602s-650,0-650,0v14c0,0,517.5,0,589.75,0
			s592.831,14,592.831,14H2529.113z"/>
	</g>
</g>
<g id="Layer_1">
</g>
</svg>
