<?xml version="1.0" encoding="iso-8859-1"?>
<!-- Generator: Adobe Illustrator 15.0.0, SVG Export Plug-In . SVG Version: 6.00 Build 0)  -->
<!DOCTYPE svg PUBLIC "-//W3C//DTD SVG 1.1//EN" "http://www.w3.org/Graphics/SVG/1.1/DTD/svg11.dtd">
<svg version="1.1" id="black_x5F_crown" xmlns="http://www.w3.org/2000/svg" xmlns:xlink="http://www.w3.org/1999/xlink" x="0px"
	 y="0px" width="2529.088px" height="1891.836px" viewBox="0 0 2529.088 1891.836"
	 style="enable-background:new 0 0 2529.088 1891.836;" xml:space="preserve">
<path style="stroke:#000000;stroke-miterlimit:10;" d="M2328.645,459.351c11.296,0.117,19.601,4.591,38.851,5.591
	s31.243,1.41,44.493-5.84s16.25-19.051,12-20.9s-1,2.317-9.5,6.734s-22.75,11.417-66,1.667s-87.439-3.732-93.25-1.667l-1.192,42.668
	l14.942-1c0,0,1.003-17.804,9.25-22.752c0,0,5.25-2.038,21.75-2.144S2323.284,459.295,2328.645,459.351z"/>
<path style="stroke:#000000;stroke-miterlimit:10;" d="M2253.438,487.235l-12.7,0.369c0,0,2.25-21.502-5.75-23.502
	s-20.91-1.5-35.83-7c0,0-9.17-0.25-12.42-2c0,0-12.75,8.25-27.75,5s-16.75-6.5-28-5s-38.75,7.699-50.5-16.9c0,0-0.5-6.35,7.5,1.65
	s16.75,13.25,28.5,9.75s29.25-10.083,41.5-4.667c0,0,8.333-6.328,18.5-6.734s18.5-1.85,18.5-1.85l34,4l8.839,0.92
	c0,0,12.411,4.497,17.411,3.663L2253.438,487.235z"/>
<path style="stroke:#000000;stroke-miterlimit:10;" d="M477.615,459.468l0.013,21.018l-40.636,2.002l0.092-23.02
	c-17.005,0.976-37.612-6.598-47.359-23.522c-13.882-24.107,4.327-33.912,10.729-86.865c3.212-26.571-3.656-72.781-3.656-72.781
	c-7.584-37.016-12.81-60.864-12.81-60.864c-3.036-8.328-22.511-60.414-14-62.167c0,0,6.667-11,28.271,62.167
	c13.777,46.658,24.153,76.685,21.936,131.167c-0.801,19.685-3.715,30.051-8.711,53.275c-7.483,34.79,24.648,36.75,40.833,43.696
	c7.11,3.05,5.769,13.167,7.449,9.66c1.68-3.506,0.541-7.89,8.09-11.834c7.55-3.945,25.838-1.881,35.369-20.467
	s-6.945-57.114-5.833-91.007c1.112-33.893,2.847-116.952,21.194-148.322c15.401-26.333,17.604-23,17.604-23
	c6.696-1.058,6.221,9.125-6.544,41.525c-10.468,26.571-16.044,113.284-12.195,146.596c3.849,33.312,20.43,58.441,12.14,83.252
	S477.615,459.468,477.615,459.468"/>
<path style="stroke:#000000;stroke-miterlimit:10;" d="M2269.464,274.409c0,0-10.921-11.693-33.198,0l-1.204,6.873
	c0,0,20.354-10.209,35.557-1.111L2269.464,274.409z"/>
<path style="stroke:#000000;stroke-miterlimit:10;" d="M2273.992,295.729l-2.169-9.7c0,0-14.335-8.562-37.659,0l-2.104,9.7
	C2232.06,295.729,2252.996,284.524,2273.992,295.729z"/>
<path style="fill:#211411;stroke:#000000;stroke-miterlimit:10;" d="M1760.052,1251.663c2.525-3.016,3.796-9.382,1.381-9.52
	c-2.416-0.139-10.329-1.192-10.329-1.192s-6.737,1.33-2.073,8.475C1751.646,1253.434,1758.548,1253.459,1760.052,1251.663z"/>
<path style="fill:#211411;stroke:#000000;stroke-miterlimit:10;" d="M1654.877,1242.069c0,0,5.415,2.069,5.445,5.5
	c0.051,5.81-3.938,6.719-7.64,7.208s-4.692-4.603-4.026-7.723S1651.045,1242.309,1654.877,1242.069z"/>
<path style="fill:#211411;stroke:#000000;stroke-miterlimit:10;" d="M1565.656,1238.61c0,0,3.239,6.84,1.666,12.324
	s-3.424,5.345-7.045,3.839s-1.622-1.283-2.955-7.895s0.243-8.855,2.955-8.566S1565.656,1238.61,1565.656,1238.61z"/>
<path style="fill:#A50D12;stroke:#000000;stroke-miterlimit:10;" d="M1663.145,1265.655c0,0-1.047-9.721-8.268-10.721
	s-11.758,2.809-12.656,7.438C1642.221,1262.372,1650.3,1270.043,1663.145,1265.655z"/>
<path style="fill:#A50D12;stroke:#000000;stroke-miterlimit:10;" d="M1663.145,1233.527c0,0,2.287,9.344-8.268,8.542
	s-8.328-8.542-8.328-8.542S1654.854,1229.959,1663.145,1233.527z"/>
<ellipse style="stroke:#000000;stroke-miterlimit:10;" cx="1185.719" cy="596.183" rx="10.3" ry="6.942"/>
</svg>
