<?xml version="1.0" encoding="utf-8"?>
<!-- Generator: Adobe Illustrator 16.0.0, SVG Export Plug-In . SVG Version: 6.00 Build 0)  -->
<!DOCTYPE svg PUBLIC "-//W3C//DTD SVG 1.1//EN" "http://www.w3.org/Graphics/SVG/1.1/DTD/svg11.dtd">
<svg version="1.1" id="blue_x5F_hair" xmlns="http://www.w3.org/2000/svg" xmlns:xlink="http://www.w3.org/1999/xlink" x="0px"
	 y="0px" width="2529.088px" height="1891.836px" viewBox="0 0 2529.088 1891.836" enable-background="new 0 0 2529.088 1891.836"
	 xml:space="preserve">
<path fill="#21294E" stroke="#010101" stroke-width="0.2219" stroke-linecap="round" stroke-linejoin="round" d="M2368.488,870.088
	l52.039-0.462l2.088-47.246c0,0,10.04-87.444-13.96-105.778c-24-18.332-33.332-13.666-64.666-18.332s-42.601-0.086-56.3-42.543
	l-20.802-3.812c0,0,6.737,18.282,10.946,30.413s10.806,33.773,9.854,43.773l0,0c0,0,32.55,7,59.55,6.75
	S2368.488,870.088,2368.488,870.088z"/>
<path fill="#21294E" stroke="#010101" stroke-width="0.2219" stroke-linecap="round" stroke-linejoin="round" d="M2216.238,605.852
	c0,0-11-1.5-19.75-5.25s-21.5-2.25-24.75,5.25s-6.932,7.5,5.908,7.25c12.842-0.25,28.592-7.201,28.592-7.201L2216.238,605.852z"/>
<polygon fill="#21294E" stroke="#010101" stroke-width="0.2219" stroke-linecap="round" stroke-linejoin="round" points="
	2180.97,685.248 2172.988,790.352 2153.738,786.102 2175.732,683.861 "/>
<path fill="#21294E" stroke="#010101" stroke-width="0.2219" stroke-linecap="round" stroke-linejoin="round" d="M1118.988,571.102
	L1049.308,574l-0.548-1.45c0,0-37.521,5.551-66.021,47.051s-30.5,59.25-46.5,78.75s-47.25,60-43.5,134.75h15.75
	c2.5-75.25,14.525-91.648,14.525-91.648c14.475-17.852,39.563-25.982,64.27-27.542c24.706-1.561,55.955-4.068,55.955-4.068
	l4.278,128.76l54.472-0.5c0,0-3.002-118.721-1.211-133.25c1.79-14.53,4.699-26.418,4.699-26.418s-29.738-12.332-28.738-45.332
	c0,0,4.583-32.123,42.25-49.646c66.001-30.704,91.089,11.037,91.089,11.037c-6.245-15.775-29.505-27.365-29.505-27.365
	L1118.988,571.102"/>
<path fill="#21294E" stroke="#010101" stroke-width="0.2219" stroke-linecap="round" stroke-linejoin="round" d="M430.84,650.041
	c9.006-16.612,31.481-61.771,37.815-75.105c6.334-13.332,18.333-11,18.333-11c45-8,51.333,0,51.333,0l2.758,10.011
	c-17.091-12.011-46.091,5.989-46.091,5.989c-2.151,2.062-3.272,8.451-7.413,12.904c-3.21,3.452-11.446,3.03-14.894,5.813
	c-5.337,4.308-5.377,11.044-5.377,11.044l-7.983,32.572c0,0-2.421,12.325-5.161,17.666c-1.514,2.951,0,18.098,0,22.668
	c0,4-0.292,18.352,0,19.666c0.291,1.315-0.012,18.494,0,22c0.012,3.507,1.615,17.809,1.615,17.809s-0.9,22.938-0.639,27.918
	c0.262,4.979-3.258,12.577-3.258,12.577s1.887,5.673,2.758,8.687c0.872,3.016-1.027,9.599-0.141,11.999
	c0.886,2.401-0.953,11.286-0.887,13.916c0.067,2.63,1.027,9.644,1.027,9.644s0.145,13.812-0.982,15.786
	c-1.127,1.972-7.515,1.152-10.336,1.372c-2.82,0.219-5.56-1.435-9.005-0.119c-3.445,1.314-2.414-1.614-6.992,0.139
	c-4.578,1.753-7.573-1.508-9.979-0.193c-2.406,1.315-14.354,1.136-14.354,1.136s-5.551-1.172-6.701-2.486
	c-1.15-1.315,1.28-11.619,0.37-13.849c-0.911-2.229,0.924-14.277-1.345-18.171c-2.27-3.893,2.604-14.954,0.349-16.166
	c-2.255-1.212,2.994-18.336,1.001-21.362c-1.994-3.027,0-17.696,0-17.696c-2.7-4.33,3.366-21.092,1.339-23.501
	c-1.339-1.593-1.494-10.742-1.444-16.768c0.025-3.097-2.386-5.625-6.519-5.593c-9.891,0.08-30.187,1.825-47.261,12.746
	c-8.514,5.446-16.253,13.246-20.027,24.752c-9.762,29.762-13.764,92.612-13.763,92.613l-14.417-1.519l-0.616-17.021
	c-1.151-1.804,0.947-15.779,0.644-19.069c-0.303-3.29,3.189-12.051,2.523-14.914c-0.666-2.862,3.015-14.868,2.868-17.329
	c-0.397-6.646,0.157-4.554,1.885-8.452c-0.305-0.429,1.527-1.018,1.462-1.732c-0.449-5.004,4.289-16.136,4.105-20.985
	c-0.209-5.542,11.756-12.647,11.756-12.647s-0.222-4.603,0-7.89c0.222-3.287,9.771-11.834,7.772-15.342
	c-1.999-3.506,9.104-14.245,11.991-18.847c2.887-4.603,10.881-13.807,10.881-18.19c0-4.383,8.425-10.838,7.48-13.249
	c-0.944-2.41,4.844-12.388,8-16.333c3.156-3.944,3.617-6.578,2.818-10.304c-0.798-3.726,5.408-12.241,6.182-16.029
	c0.604-2.956,7.615-27.904,7.615-27.904l7.005,5.218l-4.709,13.625l-2.399,14.262l-6.482,25.256c0,0-3.113,11.294,1.041,12.871
	c0,0-2.715,6.423-1.353,10.122c1.104,3,3.283,1.218,3.283,1.218c-3.583,13.833,1.627,13.84,1.627,13.84
	c-1.211,13.744,4.706,9.827,4.706,9.827c-2.917,9.667,3.995,7.916,3.995,7.916s-0.168,2.234-0.502,6.216
	c-0.334,3.98,5.172,1.869,5.172,1.869s-0.399,10.568,4.403,4.714C402.524,702.798,430.84,650.041,430.84,650.041"/>
<path fill="#21294E" stroke="#010101" stroke-width="0.2219" stroke-linecap="round" stroke-linejoin="round" d="M1151.896,703.595
	c0,0,28.592,20.756,49.342,57.006s23.5,65.25,23.5,65.25l-48.75,10.75c0,0-10.25-39.25-26.75-61s-26.25-35.972-26.25-35.972
	S1155.807,737.589,1151.896,703.595z"/>
<ellipse transform="matrix(0.2972 -0.9548 0.9548 0.2972 -107.5268 918.8234)" cx="570.372" cy="532.452" rx="1.875" ry="2.61"/>
<path fill="#21294E" stroke="#010101" stroke-width="0.2219" stroke-linecap="round" stroke-linejoin="round" d="M2328.22,1013.649
	c0,0-3.879,0.979-7.248,2.632c-21.618,10.597-104.692,47.842-148.007,32.317l-1.061,3.31l1.754,15.498
	c0,0,72.412,8.197,153.241-6.999l1.498-4.22l3.003-45.541L2328.22,1013.649z"/>
<path fill="#21294E" stroke="#010101" stroke-width="0.2219" stroke-linecap="round" stroke-linejoin="round" d="M1180.655,1038.846
	c0,0,5.333,1.756,3,15.756c-1.975,11.843-14.667,8-30.667,4s-126.5-15-126.5-15l3.5-48
	C1029.988,995.602,1130.423,1037.998,1180.655,1038.846z"/>
<path fill="#21294E" stroke="#010101" stroke-width="0.2219" stroke-linecap="round" stroke-linejoin="round" d="M1210.078,594.493
	c0,0,16.578-1.559,22.244,9.774s0,18.667,0,18.667s-5.667-10.833-15-4.5s-17.667,4.5-17.667,4.5S1203.988,604.583,1210.078,594.493z
	"/>
<path id="path3206_1_" nodetypes="cccccscccccccccccccsssssssssscsscsc" fill="#192753" stroke="#000000" stroke-width="0.1331" stroke-linecap="round" stroke-linejoin="round" d="
	M1194.452,589.559c-3.844-2.805-9.232-5.135-15.914-4.992c-9.432-0.117-15.369,3.321-16.921,8.281
	c-2.179,6.971,2.112,16.835,14.454,19.687c6.398,1.479,15.639,0.942,23.232-3.536c5.402-0.799,8.262,3.248,1.079,4.193
	c-4.134,0.542-7.396,1.337-9.438,3.341c-13.211,1.125-16.481,23.905-18.258,34.732c-0.532,3.266-11.39,10.868-13.198,6.267
	c-3.815-9.711,1.344-16.161,1.069-21.951c-0.189-3.995,1.278-17.654-2.275-24.435c0,0,0,0-6.293-1.837
	c-10.103-2.948-20.648-1.014-25.629,0.763c-3.372,1.682-22.902,48.031,22.522,56.521c1.4,0.308-3.284,2.783-5.394,2.687
	c-47.479-4.344-43.971-29.677-43.876-54.808c-2.253-4.746,3.216-12.369,7.394-18.302c-0.735,4.423-2.309,8.542-1.048,13.685
	c0.976-9.077,4.84-16.296,8.891-22.288c-1.356,5.314-3.842,11.762-3.25,15.113c3.628-8.485,8.499-16.711,12.48-20.232
	c-2.036,4.8-5.588,10.093-6.11,14.404c5.923-8.368,16.203-17.743,22.139-19.598c-3.991,4.696-10.895,10.147-11.664,14.007
	c8.307-7.6,21.203-15.915,27.789-16.368c-6.551,3.695-13.459,8.322-15.751,13.237c-0.497,1.521-0.413,1.569,2.877-0.586
	c7.881-5.168,21.138-10.259,26.946-10.416c-1.539,1.95-15.986,5.873-19.815,13.015c6.617-5.112,20.029-9.492,27.106-9.545
	c22.472,0.718,30.189,17.86,28.855,26.426c-0.28,0.663-1.572,1.004-1.886-0.117C1204.059,601.749,1200.831,594.214,1194.452,589.559
	z"/>
</svg>
