<?xml version="1.0" encoding="iso-8859-1"?>
<!-- Generator: Adobe Illustrator 15.0.0, SVG Export Plug-In . SVG Version: 6.00 Build 0)  -->
<!DOCTYPE svg PUBLIC "-//W3C//DTD SVG 1.1//EN" "http://www.w3.org/Graphics/SVG/1.1/DTD/svg11.dtd">
<svg version="1.1" id="blue_x5F_hair" xmlns="http://www.w3.org/2000/svg" xmlns:xlink="http://www.w3.org/1999/xlink" x="0px"
	 y="0px" width="2529.088px" height="1891.836px" viewBox="0 0 2529.088 1891.836"
	 style="enable-background:new 0 0 2529.088 1891.836;" xml:space="preserve">
<path style="fill:#21294E;stroke:#010101;stroke-width:0.2219;stroke-linecap:round;stroke-linejoin:round;" d="M2368.488,870.088
	l52.039-0.462l2.088-47.246c0,0,10.04-87.445-13.96-105.778s-33.332-13.667-64.666-18.333s-42.6-0.085-56.3-42.542l-20.801-3.812
	c0,0,6.737,18.282,10.946,30.413s10.806,33.774,9.854,43.774l0,0c0,0,32.549,7,59.549,6.75S2368.488,870.088,2368.488,870.088z"/>
<path style="fill:#21294E;stroke:#010101;stroke-width:0.2219;stroke-linecap:round;stroke-linejoin:round;" d="M2216.238,605.852
	c0,0-11-1.5-19.75-5.25s-21.5-2.25-24.75,5.25s-6.932,7.5,5.909,7.25s28.591-7.202,28.591-7.202L2216.238,605.852z"/>
<polygon style="fill:#21294E;stroke:#010101;stroke-width:0.2219;stroke-linecap:round;stroke-linejoin:round;" points="
	2180.97,685.248 2172.988,790.352 2153.738,786.102 2175.733,683.861 "/>
<path style="fill:#21294E;stroke:#010101;stroke-width:0.2219;stroke-linecap:round;stroke-linejoin:round;" d="M1118.988,571.102
	L1049.308,574l-0.548-1.45c0,0-37.521,5.551-66.021,47.051s-30.5,59.25-46.5,78.75s-47.25,60-43.5,134.75h15.75
	c2.5-75.25,14.526-91.649,14.526-91.649c14.474-17.851,39.563-25.982,64.269-27.542s55.955-4.068,55.955-4.068l4.279,128.759
	l54.471-0.5c0,0-3.002-118.72-1.211-133.25s4.7-26.417,4.7-26.417s-29.739-12.333-28.739-45.333c0,0,4.583-32.123,42.25-49.645
	c66.001-30.704,91.089,11.037,91.089,11.037c-6.245-15.775-29.505-27.365-29.505-27.365L1118.988,571.102"/>
<path style="fill:#21294E;stroke:#010101;stroke-width:0.2219;stroke-linecap:round;stroke-linejoin:round;" d="M430.84,650.041
	c9.006-16.612,31.481-61.772,37.815-75.105s18.333-11,18.333-11c45-8,51.333,0,51.333,0l2.758,10.01
	c-17.091-12.01-46.091,5.99-46.091,5.99c-2.151,2.061-3.272,8.451-7.413,12.904c-3.21,3.452-11.446,3.03-14.894,5.813
	c-5.337,4.308-5.377,11.044-5.377,11.044l-7.983,32.572c0,0-2.421,12.326-5.161,17.667c-1.514,2.951,0,18.097,0,22.667
	c0,4-0.292,18.352,0,19.667c0.291,1.315-0.012,18.494,0,22s1.615,17.808,1.615,17.808s-0.9,22.938-0.639,27.918
	c0.262,4.98-3.258,12.577-3.258,12.577s1.887,5.673,2.758,8.687c0.872,3.015-1.027,9.598-0.141,11.999s-0.953,11.286-0.887,13.916
	c0.067,2.63,1.027,9.643,1.027,9.643s0.145,13.813-0.982,15.786c-1.127,1.972-7.515,1.153-10.336,1.372
	c-2.82,0.219-5.56-1.434-9.005-0.119s-2.414-1.614-6.992,0.139c-4.578,1.753-7.573-1.508-9.979-0.193s-14.354,1.135-14.354,1.135
	s-5.551-1.171-6.701-2.486s1.28-11.619,0.37-13.848c-0.911-2.229,0.924-14.278-1.345-18.171c-2.27-3.893,2.604-14.954,0.349-16.166
	s2.994-18.336,1.001-21.363c-1.994-3.027,0-17.696,0-17.696c-2.7-4.33,3.366-21.092,1.339-23.501
	c-1.339-1.593-1.494-10.742-1.444-16.768c0.025-3.096-2.386-5.625-6.519-5.592c-9.891,0.08-30.187,1.825-47.261,12.746
	c-8.514,5.446-16.253,13.246-20.027,24.752c-9.762,29.761-13.764,92.612-13.763,92.613l-14.417-1.519l-0.616-17.021
	c-1.151-1.804,0.947-15.779,0.644-19.069c-0.303-3.29,3.189-12.051,2.523-14.914c-0.666-2.863,3.015-14.869,2.868-17.33
	c-0.397-6.646,0.157-4.553,1.885-8.452c-0.305-0.428,1.527-1.017,1.462-1.732c-0.449-5.004,4.289-16.136,4.105-20.985
	c-0.209-5.542,11.756-12.648,11.756-12.648s-0.222-4.602,0-7.89c0.222-3.287,9.771-11.834,7.772-15.341
	c-1.999-3.506,9.104-14.245,11.991-18.847c2.887-4.603,10.881-13.807,10.881-18.19c0-4.383,8.425-10.838,7.48-13.249
	c-0.944-2.411,4.844-12.388,8-16.333s3.617-6.579,2.818-10.304c-0.798-3.726,5.408-12.241,6.182-16.029
	c0.604-2.956,7.615-27.905,7.615-27.905l7.005,5.218l-4.709,13.625l-2.399,14.262l-6.482,25.256c0,0-3.113,11.294,1.041,12.871
	c0,0-2.715,6.423-1.353,10.122c1.104,3,3.283,1.218,3.283,1.218c-3.583,13.833,1.627,13.839,1.627,13.839
	c-1.211,13.745,4.706,9.828,4.706,9.828c-2.917,9.667,3.995,7.916,3.995,7.916s-0.168,2.234-0.502,6.215s5.172,1.87,5.172,1.87
	s-0.399,10.568,4.403,4.713S430.84,650.041,430.84,650.041"/>
<path style="fill:#21294E;stroke:#010101;stroke-width:0.2219;stroke-linecap:round;stroke-linejoin:round;" d="M1151.897,703.595
	c0,0,28.591,20.756,49.341,57.006s23.5,65.25,23.5,65.25l-48.75,10.75c0,0-10.25-39.25-26.75-61s-26.25-35.972-26.25-35.972
	S1155.807,737.589,1151.897,703.595z"/>
<ellipse transform="matrix(0.9548 0.2973 -0.2973 0.9548 184.0681 -145.4902)" cx="570.378" cy="532.435" rx="2.61" ry="1.875"/>
<path style="fill:#21294E;stroke:#010101;stroke-width:0.2219;stroke-linecap:round;stroke-linejoin:round;" d="M2328.22,1013.649
	c0,0-3.879,0.98-7.248,2.632c-21.618,10.597-104.693,47.842-148.007,32.318l-1.06,3.309l1.753,15.498
	c0,0,72.413,8.198,153.242-6.999l1.498-4.22l3.003-45.541L2328.22,1013.649z"/>
<path style="fill:#21294E;stroke:#010101;stroke-width:0.2219;stroke-linecap:round;stroke-linejoin:round;" d="M1180.655,1038.846
	c0,0,5.333,1.756,3,15.756c-1.974,11.842-14.667,8-30.667,4s-126.5-15-126.5-15l3.5-48
	C1029.988,995.602,1130.423,1037.998,1180.655,1038.846z"/>
<path style="fill:#21294E;stroke:#010101;stroke-width:0.2219;stroke-linecap:round;stroke-linejoin:round;" d="M1210.078,594.493
	c0,0,16.578-1.558,22.244,9.775s0,18.667,0,18.667s-5.667-10.833-15-4.5s-17.667,4.5-17.667,4.5S1203.988,604.583,1210.078,594.493z
	"/>
</svg>
