<?xml version="1.0" encoding="iso-8859-1"?>
<!-- Generator: Adobe Illustrator 15.0.0, SVG Export Plug-In . SVG Version: 6.00 Build 0)  -->
<!DOCTYPE svg PUBLIC "-//W3C//DTD SVG 1.1//EN" "http://www.w3.org/Graphics/SVG/1.1/DTD/svg11.dtd">
<svg version="1.1" xmlns="http://www.w3.org/2000/svg" xmlns:xlink="http://www.w3.org/1999/xlink" x="0px" y="0px"
	 width="2529.088px" height="1891.836px" viewBox="0 0 2529.088 1891.836" style="enable-background:new 0 0 2529.088 1891.836;"
	 xml:space="preserve">
<g id="blue_x5F_bracelets">
	<path style="fill:#1A4BA0;stroke:#010101;stroke-linecap:round;stroke-linejoin:round;" d="M1889.822,835.727
		c0,0,28.237-40.11,32.402-48.852l-29.236-28.273c0,0-27.107,34.625-33.054,38.562L1889.822,835.727z"/>
	<path style="fill:#1A4BA0;stroke:#010101;stroke-linecap:round;stroke-linejoin:round;" d="M2092.338,884.25
		c0,0-38.705-37.056-54.027-42.102l21.085-31.034l57.182,41.438L2092.338,884.25z"/>
	<polygon style="fill:#1A4BA0;stroke:#010101;stroke-linecap:round;stroke-linejoin:round;" points="2305.487,787.101 
		2345.794,765.6 2391.157,832.476 2343.733,854.627 	"/>
	<polygon style="fill:#1A4BA0;stroke:#010101;stroke-linecap:round;stroke-linejoin:round;" points="2083.341,828.467 
		2104.16,769.41 2068.988,751.602 2046.855,799.627 	"/>
	<path style="fill:#1A4BA0;stroke:#010101;stroke-linecap:round;stroke-linejoin:round;" d="M977.447,849.588l3.23-48.629
		c0,0-39.269-7.643-70.312,0l-2.043,47.312C908.322,848.27,962.573,842.241,977.447,849.588z"/>
	<polygon style="fill:#1A4BA0;stroke:#010101;stroke-linecap:round;stroke-linejoin:round;" points="1358.607,1101.62 
		1397.473,1061.896 1426.447,1098.62 1397.975,1129.883 	"/>
	<polygon style="fill:#1A4BA0;stroke:#010101;stroke-linecap:round;stroke-linejoin:round;" points="1304.637,859.091 
		1236.173,863.767 1237.655,811.269 1300.633,806.641 	"/>
	<path style="fill:#1A4BA0;stroke:#010101;stroke-linecap:round;stroke-linejoin:round;" d="M957.606,1182.185
		c0,0-28.949-5.582-53.618,2.084l-4.739-49.051c0,0,37.572-10.604,60.155,2.723l-1.798,46.328"/>
	<path style="fill:#1A4BA0;stroke:#010101;stroke-linecap:round;stroke-linejoin:round;" d="M276.176,1178.414
		c0,0,33.595,0.188,48.87,3.188l7.06-50.982l-49.688-1.573L276.176,1178.414z"/>
	<path style="fill:#1A4BA0;stroke:#010101;stroke-linecap:round;stroke-linejoin:round;" d="M312.991,800.305
		c0,0,30.031-10.19,63.192,5.297l-3.976,50.026c0,0-8.626-8.69-64.221-3.295L312.991,800.305z"/>
	<path style="fill:#1A4BA0;stroke:#010101;stroke-linecap:round;stroke-linejoin:round;" d="M720.322,1091.603l-28.36-36.516
		c0,0-24.789,10.507-38.683,32.13l32.042,31.304C685.321,1118.521,701.322,1094.603,720.322,1091.603z"/>
	<path style="fill:#1A4BA0;stroke:#010101;stroke-linecap:round;stroke-linejoin:round;" d="M534.655,855.935l62.076,2.155
		l-2.041-26.284l-0.506-6.509l-1.434-18.45c0,0-9.382-3.245-50.428,0.422c0,0,10.413,7.231,11.84,17.384
		c0.105,0.746,0.161,1.508,0.161,2.285c0,0,2.426,1.323,3.15,4.869c0.166,0.812,0.243,1.74,0.181,2.795
		c-0.333,5.667-6.666,6.667-6.666,6.667S549.682,855.068,534.655,855.935z"/>
	<path style="fill:#1A4BA0;stroke:#010101;stroke-linecap:round;stroke-linejoin:round;" d="M2156.938,734.811l61.885-8.483
		c0,0,5.909,26.37,36.704,23.322s32.163-23.714,32.163-23.714l63.049,7.722l3.884,3.449l-9.135,29.258l-74.595,39.059
		C2270.893,805.423,2185.321,823.269,2156.938,734.811z"/>
	<path style="fill:#1A4BA0;stroke:#010101;stroke-linecap:round;stroke-linejoin:round;" d="M1043.238,709.843l-53.013,3.88
		c0,0,24.263,56.376,55.609,74.254c0,0,37.903,38.125,110.653,12.125c52.708-18.837,62.5-74.75,62.5-74.75l-55.517-11.961
		c0,0-24.246,33.045-58.864,26.878S1043.238,709.843,1043.238,709.843z"/>
	<path style="fill:#1A4BA0;stroke:#010101;stroke-linecap:round;stroke-linejoin:round;" d="M1613.656,1205.268v6.667
		c0,0,15.666,1.334,13.666,15.333c-1.573,11.014-6.77,37.913-6.77,37.913l-19.561,0.475c0,0-8.003-29.315-8.003-35.685
		s1.333-16.037,12-17.703c0,0,0.333-6.535-3-9.768l-1.333-2.898c0,0,4,3.464,8,2.898s6.333-2.898,6.333-2.898L1613.656,1205.268z"/>
	<path style="fill:#1A4BA0;stroke:#010101;stroke-linecap:round;stroke-linejoin:round;" d="M1698.338,1208.602l-1.1,6.102
		c0,0-12.582,3.287-11.249,17.926s12.349,33.026,12.349,33.026l12.651,0.526c0,0,12.334-25.865,11.667-36.223
		s-11.667-13.691-11.667-13.691l-2-7.666l3.333-1.667h-18.002L1698.338,1208.602z"/>
	<path style="fill:#1A4BA0;stroke:#010101;stroke-linecap:round;stroke-linejoin:round;" d="M449.647,805.229
		c85.007,2.872,110.671-74.294,110.671-74.294s-17.447-9.735-61.1-18.868c0,0-14.481,30.91-51.481,26.535
		c-48.713-5.76-52.5-29.146-52.5-29.146s-26.25-2.392-54.917,13.813C340.322,723.269,364.278,798.344,449.647,805.229
		L449.647,805.229z"/>
</g>
<g id="Layer_1">
</g>
</svg>
