<?xml version="1.0" encoding="iso-8859-1"?>
<!-- Generator: Adobe Illustrator 15.0.0, SVG Export Plug-In . SVG Version: 6.00 Build 0)  -->
<!DOCTYPE svg PUBLIC "-//W3C//DTD SVG 1.1//EN" "http://www.w3.org/Graphics/SVG/1.1/DTD/svg11.dtd">
<svg version="1.1" xmlns="http://www.w3.org/2000/svg" xmlns:xlink="http://www.w3.org/1999/xlink" x="0px" y="0px"
	 width="2529.088px" height="1891.836px" viewBox="0 0 2529.088 1891.836" style="enable-background:new 0 0 2529.088 1891.836;"
	 xml:space="preserve">
<g id="blue-glyphs">
	<polygon style="fill:#21294E;stroke:#000000;stroke-width:0.2219;stroke-linecap:round;stroke-linejoin:round;" points="
		578.988,524.246 592.988,109.6 608.988,109.6 598.732,524.246 	"/>
	<polygon style="fill:#21294E;stroke:#000000;stroke-width:0.2219;stroke-linecap:round;stroke-linejoin:round;" points="
		738.322,524.246 754.26,524.246 762.757,109.6 750.539,113.6 	"/>
	<polygon style="fill:#21294E;stroke:#000000;stroke-width:0.2219;stroke-linecap:round;stroke-linejoin:round;" points="
		894.536,529.795 908.322,529.795 915.988,115.6 899.988,115.6 	"/>
	<path style="fill:#21294E;stroke:#000000;stroke-width:0.2219;stroke-linecap:round;stroke-linejoin:round;" d="M686.363,134.1
		c-31.489-4.498-61.94,1.73-61.94,1.73l-4.844-12.121c46.369,8.641,43.6-11.409,76.819-12.107s44.292,24.228,44.292,24.228
		S717.852,138.598,686.363,134.1z M725.464,129.255c0,0-4.499-11.196-23.53-11.653s-29.759,9.577-29.759,9.577
		S710.585,131.677,725.464,129.255z"/>
	<path style="fill:#21294E;stroke:#000000;stroke-width:0.2219;stroke-linecap:round;stroke-linejoin:round;" d="M695.187,117.882
		c0,0,0.07,11.408,3.235,11.582s16.316,0.5,16.316,0.5s0.023-10.298-3.276-11.034S700.827,116.924,695.187,117.882z"/>
	<path style="fill:#21294E;stroke:#010101;stroke-width:0.2219;stroke-linecap:round;stroke-linejoin:round;" d="M725.464,329.953
		l7.613-37.212l-36.679-2.892c0,0,10.727,40.104,13.495,40.104S718.543,332.375,725.464,329.953z"/>
	<path style="fill:#21294E;stroke:#010101;stroke-width:0.2219;stroke-linecap:round;stroke-linejoin:round;" d="M639.648,320.529
		v-23.104c0,0-17.993,12.642-24.222,23.104C615.426,320.529,623.385,325.292,639.648,320.529z"/>
	<g>
		<polygon style="fill:#21294E;stroke:#010101;stroke-width:0.2219;stroke-linecap:round;stroke-linejoin:round;" points="
			661.835,504.887 661.835,531.797 652.105,531.797 650.721,504.887 		"/>
		<polygon style="fill:#21294E;stroke:#010101;stroke-width:0.2219;stroke-linecap:round;stroke-linejoin:round;" points="
			643.801,506.708 632.382,506.708 630.998,534.601 643.801,534.601 		"/>
		<polygon style="fill:#21294E;stroke:#010101;stroke-width:0.2219;stroke-linecap:round;stroke-linejoin:round;" points="
			623.039,506.708 623.039,533.109 611.274,531.797 612.275,505.708 		"/>
		<g>
			<path style="fill:#21294E;stroke:#010101;stroke-width:0.2219;stroke-linecap:round;stroke-linejoin:round;" d="M679.788,527.881
				v7.72c0,0,43.946,1.37,47.061-29.128s-47.407-23.822-42.908-1.899s29.067,0.997,26.299-5.323c0,0-3.807-7.79-12.111-3.421
				s-2.076,12.89,1.384,10.878c0,0-8.305,0.526-6.575-6.798s21.454-10.785,23.876,2.364S713.353,523.037,679.788,527.881z"/>
		</g>
	</g>
	<path style="fill:#21294E;stroke:#000000;stroke-width:0.2219;stroke-linecap:round;stroke-linejoin:round;" d="M771.97,213.102
		l113.019,5.5v83l-115.5-4L771.97,213.102z M779.934,222.028v70.712l94.917,2.361v-69.5L779.934,222.028z"/>
	<polygon style="fill:#21294E;stroke:#000000;stroke-width:0.2219;stroke-linecap:round;stroke-linejoin:round;" points="
		799.482,222.764 799.482,240.102 779.934,240.102 779.934,247.602 807.282,247.602 807.508,223.066 	"/>
	<polygon style="fill:#21294E;stroke:#010101;stroke-width:0.2219;stroke-linecap:round;stroke-linejoin:round;" points="
		855.156,340.602 861.988,337.102 840.486,324.699 857.487,311.605 852.238,307.602 835.519,318.925 818.988,307.602 
		814.012,313.102 828.479,324.699 814.012,338.602 819.988,340.602 835.519,329.602 	"/>
	<path style="fill:#21294E;stroke:#000000;stroke-width:0.2219;stroke-linecap:round;stroke-linejoin:round;" d="M607.321,1185.269
		l12-1c0,0-16.004,333.166-16.004,366.083s-1.998,77.186-1.998,77.186l-13.998-0.654c0,0,13.333-264.948,13.333-284.281
		S610.655,1189.269,607.321,1185.269z"/>
	<path style="fill:#21294E;stroke:#000000;stroke-width:0.2219;stroke-linecap:round;stroke-linejoin:round;" d="M723.488,1591.102
		l-7.5-11.75l-3.5,7.5l-7.841-7.5l-3.409,7.25l-7.75-10l-4,8.75l-6.5-8.75l-6.25,10.25v4.25l6.5-5.75l7.5,7.25l4.5-6.25l7.75,7.5
		l1.659-7.5l7.841,6l4.5-5.25l3.25,5.25C720.238,1592.352,720.988,1592.602,723.488,1591.102z"/>
	<path style="fill:#21294E;stroke:#000000;stroke-width:0.2219;stroke-linecap:round;stroke-linejoin:round;" d="M645.488,1555.977
		c0,0,0.25,8.375-3.75,10.375s-5,6.75-5,6.75h-3.5c0,0-2.5-2.75-6.25-6.25s-1-10.697-2.75-11.599s2.5-1.849,3.75,0
		s0.586,10.349,6.668,10.099s6.082-9.375,6.082-9.375h6"/>
	<polygon style="fill:#21294E;stroke:#000000;stroke-width:0.2219;stroke-linecap:round;stroke-linejoin:round;" points="
		694.488,1612.852 692.988,1627.295 684.988,1621.602 678.238,1625.535 678.238,1611.352 680.488,1611.352 681.988,1618.573 
		687.988,1619.074 689.238,1611.352 	"/>
	<path style="fill:#21294E;stroke:#000000;stroke-width:0.2219;stroke-linecap:round;stroke-linejoin:round;" d="M671.738,1613.852
		l-2,11.684l-9.181-1.684c0,0-0.569-4.141,1.431-4.32s5.5,2.57,5.5,2.57l0.75-8.25
		C668.238,1613.852,670.488,1611.852,671.738,1613.852z"/>
	<path style="fill:#21294E;stroke:#000000;stroke-width:0.2219;stroke-linecap:round;stroke-linejoin:round;" d="M1330.988,1586.102
		c0,0,17.5,2.5,25.5,0l-6,27c0,0-12,2-13.5,0S1330.988,1586.102,1330.988,1586.102z"/>
	<polygon style="fill:#21294E;stroke:#000000;stroke-width:0.2219;stroke-linecap:round;stroke-linejoin:round;" points="
		1429.322,1505.269 1443.656,1505.269 1443.656,1475.602 1431.283,1473.269 1434.656,1500.935 	"/>
	<polygon style="fill:#21294E;stroke:#000000;stroke-width:0.2219;stroke-linecap:round;stroke-linejoin:round;" points="
		1397.989,1502.268 1397.989,1475.268 1385.488,1475.268 1385.488,1500.602 	"/>
	<polygon style="fill:#21294E;stroke:#000000;stroke-width:0.2219;stroke-linecap:round;stroke-linejoin:round;" points="
		1343.738,1494.602 1344.989,1473.269 1332.322,1469.268 1332.322,1497.602 1351.322,1497.602 	"/>
	<polygon style="fill:#21294E;stroke:#000000;stroke-width:0.2219;stroke-linecap:round;stroke-linejoin:round;" points="
		1330.988,1193.885 1317.036,1193.885 1302.988,1638.603 1316.988,1641.6 	"/>
	<polygon style="fill:#21294E;stroke:#000000;stroke-width:0.2219;stroke-linecap:round;stroke-linejoin:round;" points="
		1704.286,706.602 1701.894,1095.602 1685.891,1095.89 1693.319,703.935 	"/>
	<polygon style="fill:#21294E;stroke:#000000;stroke-width:0.2219;stroke-linecap:round;stroke-linejoin:round;" points="
		1556.84,703.595 1548.074,1091.688 1535.488,1091.688 1541.027,703.595 	"/>
	<path style="fill:#21294E;stroke:#000000;stroke-width:0.2219;stroke-linecap:round;stroke-linejoin:round;" d="M1623.238,939.352
		c0,0-4.648-10.5-9.824-10.75s-10.771,12-10.771,12S1615.988,941.602,1623.238,939.352z"/>
	<path style="fill:#21294E;stroke:#000000;stroke-width:0.2219;stroke-linecap:round;stroke-linejoin:round;" d="M1677.238,780.852
		c0,0-11-5.75-23.25-7.75s-29.621,6.25-36.186,6s23.186,10.5,32.186,10.5S1681.238,786.852,1677.238,780.852z"/>
	<path style="fill:#21294E;stroke:#000000;stroke-width:0.2219;stroke-linecap:round;stroke-linejoin:round;" d="M1622.238,820.102
		c0,0-10.084-7.75-13.417-7.75s0.667,3.75,2.667,7.75s2.75,4.5,11.75,0"/>
	<polygon style="fill:#21294E;stroke:#000000;stroke-width:0.2219;stroke-linecap:round;stroke-linejoin:round;" points="
		1633.238,703.595 1623.238,701.852 1622.238,726.802 1633.238,726.802 	"/>
	<polygon style="fill:#21294E;stroke:#000000;stroke-width:0.2219;stroke-linecap:round;stroke-linejoin:round;" points="
		1589.8,701.852 1570.738,701.852 1574.238,707.602 1585.74,707.602 	"/>
	<path style="fill:#21294E;stroke:#000000;stroke-width:0.2219;stroke-linecap:round;stroke-linejoin:round;" d="M1587.798,728.381
		c0,6.229-4.77,11.28-10.655,11.28c-5.885,0-10.654-5.05-10.654-11.28s4.77-13.282,10.654-13.282
		C1583.029,715.1,1587.798,719.482,1587.798,728.381z"/>
	<polygon style="fill:#21294E;stroke:#000000;stroke-width:0.2219;stroke-linecap:round;stroke-linejoin:round;" points="
		1279.32,121.936 1273.987,539.269 1287.987,539.269 1292.654,121.936 	"/>
	<polygon style="fill:#21294E;stroke:#000000;stroke-width:0.2219;stroke-linecap:round;stroke-linejoin:round;" points="
		1443.987,539.269 1449.987,126.602 1437.32,125.939 1431.987,539.269 	"/>
	<polygon style="fill:#21294E;stroke:#000000;stroke-width:0.2219;stroke-linecap:round;stroke-linejoin:round;" points="
		1599.641,540.384 1602.644,119.936 1589.8,119.936 1587.798,539.269 	"/>
	<path style="fill:#21294E;stroke:#000000;stroke-width:0.2219;stroke-linecap:round;stroke-linejoin:round;" d="M1339.988,121.936
		c0,0-7.667,30-22,25S1332.655,121.936,1339.988,121.936z"/>
	<path style="fill:#21294E;stroke:#000000;stroke-width:0.2219;stroke-linecap:round;stroke-linejoin:round;" d="M1305.988,206.717
		v6.551c0,0,37-1.667,46,2s22,5.667,22,5.667l-9.667-17C1364.321,203.935,1333.661,212.846,1305.988,206.717z"/>
	<path style="fill:#21294E;stroke:#010101;stroke-width:0.2219;stroke-linecap:round;stroke-linejoin:round;" d="M1303.655,289.602
		c0,0,8.818,2.333,10.409,2.333s0-54.667,0-54.667s18.591,3.667,18.924,2s1.333-5.667-2-6.667s-27.333-9.592-27.333-6.667
		S1305.989,284.602,1303.655,289.602z"/>
	<path style="fill:#21294E;stroke:#010101;stroke-width:0.2219;stroke-linecap:round;stroke-linejoin:round;" d="M1373.488,234.602
		v1.334v49.288c0,0-10.833,2.044-9.833,4.044s-1.999,3,14.667,4.333s34.333,0,34.333,0v-4.667l-30-1.667l2-10l13.666,0.667v-2
		l-13.666-0.667v-4.333l11.666-1c0,0-3.333-8-11.666-9s-6.667-20.667-8.667-24.333S1373.488,234.602,1373.488,234.602z"/>
	<path style="fill:#21294E;stroke:#010101;stroke-width:0.2219;stroke-linecap:round;stroke-linejoin:round;" d="M1301.988,380.269
		c-1.292,6.888,22.333,4.333,21.667,0s-11-5-11-5S1302.988,374.936,1301.988,380.269z"/>
	<path style="fill:#21294E;stroke:#010101;stroke-width:0.2219;stroke-linecap:round;stroke-linejoin:round;" d="M1387.655,405.602
		c0,0-14.54,28.667-20.604,23.333s-7.73-7.806-7.73-7.806l1-3.53l6.73,2.002l14.27-18.667L1387.655,405.602z"/>
	<path style="fill:#21294E;stroke:#010101;stroke-width:0.2219;stroke-linecap:round;stroke-linejoin:round;" d="M1365.655,397.269
		l-6.334-3.167c0,0-15.334,20.114-21,17.974c0,0,14.334,6.527,13.667,6.193s0.667-7,4.667-10.667S1365.655,397.269,1365.655,397.269
		z"/>
	<path style="fill:#21294E;stroke:#000000;stroke-width:0.2219;stroke-linecap:round;stroke-linejoin:round;" d="M1567.274,495.246
		c0,0-1.498,41.982-14.682,32.903C1539.409,519.07,1567.274,495.246,1567.274,495.246z"/>
	<path style="fill:#21294E;stroke:#000000;stroke-width:0.2219;stroke-linecap:round;stroke-linejoin:round;" d="M1484.568,532.716
		c0,0-1.517-8.764-13.424-10.761c-11.908-1.997-12.629,10.983-12.629,10.983S1469.332,536.544,1484.568,532.716z"/>
	<polygon style="fill:#21294E;stroke:#000000;stroke-width:0.2219;stroke-linecap:round;stroke-linejoin:round;" points="
		1476.322,476.839 1468.667,476.414 1465.671,500.284 1479.298,507.385 1476.95,501.579 	"/>
	<path style="fill:#21294E;stroke:#000000;stroke-width:0.2219;stroke-linecap:round;stroke-linejoin:round;" d="M1525.488,409.935
		c0,0-3.833-15.833-16.5-15.833s-15.5,17-15.5,17S1522.821,413.935,1525.488,409.935z"/>
	<path style="fill:#21294E;stroke:#000000;stroke-width:0.2219;stroke-linecap:round;stroke-linejoin:round;" d="M1482.655,387.268
		v-28.667l-10.334-0.833l-2,27.5c0,0,1.334,3.333,6.167,3S1482.655,387.268,1482.655,387.268z"/>
	<path style="fill:#21294E;stroke:#000000;stroke-width:0.2219;stroke-linecap:round;stroke-linejoin:round;" d="M1476.488,210.768
		v36.333c0,0-12.501,1.167-13.167,0s1-36.333,1-36.333S1472.155,209.268,1476.488,210.768z"/>
	<path style="fill:#21294E;stroke:#000000;stroke-width:0.2219;stroke-linecap:round;stroke-linejoin:round;" d="M1489.488,144.769
		c0,0,6.499,16.667,8.833,20.667s13.167,0.333,14.167-4.667v-2c0,0-3.167-0.799-2.167-2.816s3.501-4.517,5.834-2.684
		s3.5,3.167,1.333,4.5s-2.167,1.333-2.167,1.333s0.166,5.069-1,8.035s-7.679,6.686-12,6.733c-9,0.099-17.666-22.101-18.333-25.101
		s4.166-5.333,6.333-4"/>
	<path style="fill:#21294E;stroke:#010101;stroke-width:0.2219;stroke-linecap:round;stroke-linejoin:round;" d="M2377.488,918.602
		c0,0-5.955-11.68,1.584-11.333s1.416,11.333,1.416,11.333H2377.488z M2384.488,960.352l-2-31.75h8.125l0.544-9h-8.669
		c0,0,8.25-10.5,2-15s-16.75,1.75-14,7.25s4.625,9.5,4.625,9.5l-8.125-2.5v10.25l8.125-1.25l-1.375,32.5H2384.488z"/>
	
		<rect x="2368.977" y="1115.352" style="fill:#21294E;stroke:#010101;stroke-width:0.2219;stroke-linecap:round;stroke-linejoin:round;" width="11.512" height="28.75"/>
	<polygon style="fill:#21294E;stroke:#010101;stroke-width:0.2219;stroke-linecap:round;stroke-linejoin:round;" points="
		2370.488,1222.102 2370.488,1230.602 2422.988,1233.102 2422.988,1224.102 	"/>
	<path style="fill:#21294E;stroke:#000000;stroke-width:0.2219;stroke-linecap:round;stroke-linejoin:round;" d="M2038.311,527.602
		c0,0,38.588,4.5,39.133,10.5s-9.311,11-39.133,8s-77.883-2.93-85.603-2.715s-34.554,1.111-36.387-6.087s41.333-9.698,41.333-9.698
		v-3.5c0,0-26.665-9.865-36.196-18.5c-11.434-10.358-9.47-32.201-7.47-67.851s2.1-129.07,2.333-133.149
		c0.668-11.667-14.072-80.5,79.071-80.5c87.93,0,74.597,57.18,75.096,77.5c0.259,10.544,0.501,183.333-5.5,196.5
		c-8.594,18.855-30,26.5-30,26.5L2038.311,527.602z"/>
	<path style="fill:#21294E;stroke:#000000;stroke-width:0.2219;stroke-linecap:round;stroke-linejoin:round;" d="M1855.988,518.935
		c0,0,8.667-10.667,15.667-14.333s16.999-6.666,18.666-23.333s3.334-158.333,3.334-158.333s6.332-61.667-15.334-75.667
		s-40-26.222-78-20.444s-57,21.11-57.333,45.444s-2.111,138.334-3.056,155.667s-9.944,60.667,10.056,71.667
		s30.668,17.333,30.668,17.333v2c0,0-45.001,7-45.668,12.333s-2.333,7.231,21.667,9.116s123.666,5.472,129.666,4.512
		s17.667-4.627,13.667-10.294s-39.984-9.667-41.992-12.667S1855.988,518.935,1855.988,518.935z"/>
	<polygon style="fill:#21294E;stroke:#000000;stroke-width:0.2219;stroke-linecap:round;stroke-linejoin:round;" points="
		2033.969,506.879 2035.901,545.871 2022.992,544.896 2022.621,510.776 	"/>
	<polygon style="fill:#21294E;stroke:#000000;stroke-width:0.2219;stroke-linecap:round;stroke-linejoin:round;" points="
		2022.992,544.896 2010.975,544.271 2009.974,513.586 2022.621,510.776 	"/>
	<polygon style="fill:#21294E;stroke:#000000;stroke-width:0.2219;stroke-linecap:round;stroke-linejoin:round;" points="
		2010.975,544.271 2000.322,543.387 2000.322,514.238 2010.32,512.935 	"/>
	<polygon style="fill:#21294E;stroke:#000000;stroke-width:0.2219;stroke-linecap:round;stroke-linejoin:round;" points="
		2000.322,543.387 1988.656,543.568 1988.656,514.237 2000.322,514.238 	"/>
	<polygon style="fill:#21294E;stroke:#000000;stroke-width:0.2219;stroke-linecap:round;stroke-linejoin:round;" points="
		1988.656,543.568 1977.655,543.387 1977.655,513.936 1988.656,514.237 	"/>
	<polygon style="fill:#21294E;stroke:#000000;stroke-width:0.2219;stroke-linecap:round;stroke-linejoin:round;" points="
		1977.655,543.387 1967.656,543.306 1967.656,512.027 1977.655,513.936 	"/>
	<polygon style="fill:#21294E;stroke:#000000;stroke-width:0.2219;stroke-linecap:round;stroke-linejoin:round;" points="
		1967.656,543.306 1957.654,543.306 1957.654,508.554 1967.656,512.027 	"/>
	<polygon style="fill:#21294E;stroke:#000000;stroke-width:0.2219;stroke-linecap:round;stroke-linejoin:round;" points="
		1851.992,544.476 1853.514,499.602 1843.248,503.854 1843.248,544.569 	"/>
	<polygon style="fill:#21294E;stroke:#000000;stroke-width:0.2219;stroke-linecap:round;stroke-linejoin:round;" points="
		1843.248,544.569 1833.485,543.922 1832.988,506.879 1843.248,503.854 	"/>
	<polygon style="fill:#21294E;stroke:#000000;stroke-width:0.2219;stroke-linecap:round;stroke-linejoin:round;" points="
		1833.485,543.922 1823.238,543.568 1823.238,507.172 1832.988,506.879 	"/>
	<polygon style="fill:#21294E;stroke:#000000;stroke-width:0.2219;stroke-linecap:round;stroke-linejoin:round;" points="
		1823.238,543.568 1811.229,543.074 1812.664,506.879 1823.238,507.172 	"/>
	<polygon style="fill:#21294E;stroke:#000000;stroke-width:0.2219;stroke-linecap:round;stroke-linejoin:round;" points="
		1811.229,543.074 1800.985,542.662 1802.186,505.703 1812.664,506.879 	"/>
	<polygon style="fill:#21294E;stroke:#000000;stroke-width:0.2219;stroke-linecap:round;stroke-linejoin:round;" points="
		1800.985,542.662 1789.475,542.167 1791.341,503.854 1802.186,505.703 	"/>
	<polygon style="fill:#21294E;stroke:#000000;stroke-width:0.2219;stroke-linecap:round;stroke-linejoin:round;" points="
		1789.475,542.167 1781.05,541.778 1781.05,500.742 1791.341,503.854 	"/>
	<path style="fill:#21294E;stroke:#000000;stroke-width:0.2219;stroke-linecap:round;stroke-linejoin:round;" d="M2049.156,329.769
		c0,0-0.666-28.333-2-41.833s-4.334-29.833-21.834-32.833v6.167l11.917,7v4.5l-11.917-5.167v9.866l12.667,5.806l0.333,7.662
		l-11.999-4.797l-0.001,8.845l13.855,5.128l0.145,4.974l-14.147-5.311l-0.186,7.312l15.667,5.489c0,0-0.013-1.14,0.16,0.86
		s1.34,17.333,1.34,17.333S2049.203,331.601,2049.156,329.769z"/>
	<path style="fill:#21294E;stroke:#000000;stroke-width:0.2219;stroke-linecap:round;stroke-linejoin:round;" d="M2005.989,280.108
		c0.435-1.892,0.833-2.861,0.167-4.861s-17.834-6.035-17.834-6.035v-14.11c0,0,4.5,1.167,16,5s10.667,25.667,10.667,25.667v43
		h-7.833c0,0,0.832-13.833-0.834-16s-8.057-6.5-11.361-7.333s-6.639-2.5-6.639-2.5v-9.906c0,0,18.166,8.573,19,10.239
		c0,0,0.833-8.5-1-9.5s-16.436-7.5-16.436-7.5v-8.801C1989.887,277.468,2005.033,284.268,2005.989,280.108z"/>
	<path style="fill:#21294E;stroke:#000000;stroke-width:0.2219;stroke-linecap:round;stroke-linejoin:round;" d="M1947.707,495.429
		c0.334-2.167,1.57-36.833,1.57-36.833l-10.237,0.001v-6.335l8.962,0.668c-2.04-1.667-7.962-19,3.757-19s4.946,20,4.946,20h7.668v6
		l-9.333-1.001v36.5H1947.707z M1947.95,443.269c0.293,5,3.372,7.667,4.758,7.667s3.281-5,3.281-7.667
		c0-5.067-3.281-5.518-3.281-5.518S1947.657,438.268,1947.95,443.269z"/>
	<path style="fill:#21294E;stroke:#000000;stroke-width:0.2219;stroke-linecap:round;stroke-linejoin:round;" d="M1988.656,466.615
		c0,0,4.673-2.081,8.666,1.653c4.457,4.167,9,9.667,9,9.667s-0.086,5.333-4.543,5s-16.79-1.667-16.79-1.667s-6-2.333-3.667-6.895
		C1982.858,471.369,1988.656,466.615,1988.656,466.615z"/>
</g>
<g id="Layer_1">
</g>
</svg>
