<?xml version="1.0" encoding="utf-8"?>
<!-- Generator: Adobe Illustrator 16.0.0, SVG Export Plug-In . SVG Version: 6.00 Build 0)  -->
<!DOCTYPE svg PUBLIC "-//W3C//DTD SVG 1.1//EN" "http://www.w3.org/Graphics/SVG/1.1/DTD/svg11.dtd">
<svg version="1.1" id="Layer_1" xmlns="http://www.w3.org/2000/svg" xmlns:xlink="http://www.w3.org/1999/xlink" x="0px" y="0px"
	 width="2529.088px" height="1891.836px" viewBox="0 0 2529.088 1891.836" enable-background="new 0 0 2529.088 1891.836"
	 xml:space="preserve">
<g id="blue-scepter">
	<path fill="#21294E" stroke="#010101" stroke-width="0.2215" stroke-linecap="round" stroke-linejoin="round" d="
		M1482.991,1688.692c8.749-5.205,11.101-14.637,4.583-31.091c-4.049-10.214-7.743-10.992-10.586-16.5
		c-4.672-9.062-3.246-11.604-3.5-20.5c-0.209-7.306,3.229-128.552,4.688-245.523c1.398-112.205,0.813-220.477,0.813-220.477h-9.501
		c0,0,1.794,101.573,1.213,211.998c-0.685,129.964-3.887,272.188-5.872,275.502c-3.673,6.134-28.841,23-1.999,50.265
		c0,0,3.729,0.863,4.554-5.265c0.806-6.142-13.896-11-4.896-21.5c8.852-10.327,16.521-1.959,19.5,3.995c4,8,0.132,13.055-1.5,15.505
		C1478.851,1687.551,1482.991,1688.692,1482.991,1688.692z"/>
	<path fill="#21294E" stroke="#010101" stroke-width="0.2215" stroke-linecap="round" stroke-linejoin="round" d="M1516.488,684.433
		c0,0-4-35.942-9-43.637s-19.914-13.431-19.914-13.431s-26.086-8.764-30.586-10.144s-2.754,4.586,5.791,6.88
		c8.17,2.193,22.209,9,22.209,9s-2.926,7.992-3.089,15.511l-9.911,453.993l6.521-0.348l9.065-452.656c0,0,14.941-5.82,18.417,17.808
		c2.329,15.84,3.497,18.691,3.497,18.691S1516.987,688.577,1516.488,684.433z"/>
	<path fill="#21294E" stroke="#010101" stroke-width="0.2215" stroke-linecap="round" stroke-linejoin="round" d="M957.606,1258.686
		c0,0-23.083,48.019-33.541,43.416c-19.625-8.636-19.576-49.225-19.576-49.225s-5.252-1.714-6.95-5.277
		c-1.706-3.547-1.001,46.267,20.455,61.515h-22.457l1.001,10.97l26.945,0.516l-2.003,58.004l10.785,2.129l1.723-59.983l26.417,0.542
		l0.041-9.688l-28.953-1c0,0,14.75-7.735,30.054-39.039L957.606,1258.686z"/>
	<path fill="#21294E" stroke="#010101" stroke-width="0.2215" stroke-linecap="round" stroke-linejoin="round" d="M312.692,1254.218
		c0,0,5.549,13.835-9.551,26.384s-17.559,13.666-17.559,13.666s-17.765-18.336-16.876-31.858c1.12-17.048,3.11-16.806,3.11-16.806
		l-4.612-5.529c0,0-6.936,10.154-5.604,24.181c1.333,14.024,12.879,30.013,12.879,30.013l-15.319-2.809l-0.225,10.013l23.701,1.535
		l-4.378,57.081h11.492l0.718-56.712l24.757,0.359v-10.271l-21.205,0.804c0,0,19.468-8.666,27.409-32.399
		c3.161-9.449-3.192-8.688-3.192-8.688L312.692,1254.218z"/>
</g>
<g id="Layer_1_1_">
</g>
</svg>
