<?xml version="1.0" encoding="iso-8859-1"?>
<!-- Generator: Adobe Illustrator 15.0.0, SVG Export Plug-In . SVG Version: 6.00 Build 0)  -->
<!DOCTYPE svg PUBLIC "-//W3C//DTD SVG 1.1//EN" "http://www.w3.org/Graphics/SVG/1.1/DTD/svg11.dtd">
<svg version="1.1" xmlns="http://www.w3.org/2000/svg" xmlns:xlink="http://www.w3.org/1999/xlink" x="0px" y="0px"
	 width="2529.088px" height="1891.836px" viewBox="0 0 2529.088 1891.836" style="enable-background:new 0 0 2529.088 1891.836;"
	 xml:space="preserve">
<g id="blue-scepter">
	<path style="fill:#21294E;stroke:#010101;stroke-width:0.2219;stroke-linecap:round;stroke-linejoin:round;" d="M1802.988,732.935
		c0,0,14-21.833,8.333-43c-5.862-21.898-22-26.064-24-25.699s-2.666-8.474-2.666-8.474h-14.667v6.505c0,0-29.002,16-30.001,36
		s11.608,40.204,37.963,40.667C1793.315,739.205,1802.988,732.935,1802.988,732.935z"/>
	<path style="fill:#21294E;stroke:#010101;stroke-width:0.2219;stroke-linecap:round;stroke-linejoin:round;" d="M1944.655,655.763
		h18.333v12.839c0,0,29.525,3.206,27,31.333s-32.666,26.753-35.333,27.876s-43.668-2.707-44.334-30.458s33.334-28.751,33.334-28.751
		L1944.655,655.763z"/>
	<path style="fill:#21294E;stroke:#010101;stroke-width:0.2215;stroke-linecap:round;stroke-linejoin:round;" d="M1482.991,1688.692
		c8.749-5.205,11.101-14.636,4.583-31.091c-4.049-10.213-7.743-10.992-10.586-16.5c-4.672-9.062-3.246-11.604-3.5-20.5
		c-0.209-7.305,3.23-128.551,4.688-245.523c1.398-112.205,0.813-220.477,0.813-220.477h-9.501c0,0,1.794,101.574,1.213,211.998
		c-0.684,129.964-3.886,272.188-5.872,275.502c-3.673,6.134-28.841,23-1.999,50.265c0,0,3.729,0.863,4.554-5.265
		c0.806-6.141-13.896-11-4.896-21.5c8.852-10.327,16.522-1.958,19.5,3.996c4,8,0.132,13.054-1.5,15.504
		C1478.851,1687.551,1482.991,1688.692,1482.991,1688.692z"/>
	<path style="fill:#21294E;stroke:#010101;stroke-width:0.2215;stroke-linecap:round;stroke-linejoin:round;" d="M1516.488,684.433
		c0,0-4-35.943-9-43.637s-19.914-13.431-19.914-13.431s-26.086-8.763-30.586-10.143s-2.754,4.586,5.791,6.88
		c8.17,2.193,22.209,9,22.209,9s-2.925,7.992-3.089,15.51l-9.911,453.994l6.521-0.348l9.065-452.656c0,0,14.942-5.821,18.417,17.807
		c2.329,15.84,3.497,18.692,3.497,18.692S1516.987,688.577,1516.488,684.433z"/>
	<path style="fill:#21294E;stroke:#010101;stroke-width:0.2215;stroke-linecap:round;stroke-linejoin:round;" d="M957.606,1258.685
		c0,0-23.083,48.019-33.541,43.417c-19.625-8.636-19.576-49.225-19.576-49.225s-5.252-1.714-6.95-5.277
		c-1.706-3.547-1.001,46.266,20.455,61.514h-22.457l1.001,10.97l26.945,0.516l-2.002,58.003l10.785,2.129l1.722-59.983l26.417,0.542
		l0.041-9.688l-28.953-1c0,0,14.75-7.735,30.054-39.039L957.606,1258.685z"/>
	<path style="fill:#21294E;stroke:#010101;stroke-width:0.2215;stroke-linecap:round;stroke-linejoin:round;" d="M312.692,1254.218
		c0,0,5.549,13.835-9.551,26.383c-15.1,12.549-17.559,13.666-17.559,13.666s-17.765-18.335-16.876-31.858
		c1.12-17.048,3.11-16.806,3.11-16.806l-4.612-5.529c0,0-6.936,10.155-5.604,24.181c1.333,14.024,12.879,30.013,12.879,30.013
		l-15.319-2.809l-0.225,10.013l23.701,1.535l-4.378,57.081h11.492l0.718-56.712l24.757,0.359v-10.271l-21.205,0.803
		c0,0,19.468-8.665,27.409-32.399c3.161-9.449-3.192-8.687-3.192-8.687L312.692,1254.218z"/>
</g>
<g id="Layer_1">
</g>
</svg>
