<?xml version="1.0" encoding="iso-8859-1"?>
<!-- Generator: Adobe Illustrator 15.0.0, SVG Export Plug-In . SVG Version: 6.00 Build 0)  -->
<!DOCTYPE svg PUBLIC "-//W3C//DTD SVG 1.1//EN" "http://www.w3.org/Graphics/SVG/1.1/DTD/svg11.dtd">
<svg version="1.1" xmlns="http://www.w3.org/2000/svg" xmlns:xlink="http://www.w3.org/1999/xlink" x="0px" y="0px"
	 width="2529.088px" height="1891.836px" viewBox="0 0 2529.088 1891.836" style="enable-background:new 0 0 2529.088 1891.836;"
	 xml:space="preserve">
<g id="brown-glyphs">
	<polygon style="fill:#211411;stroke:#000000;stroke-miterlimit:10;" points="884.988,469.602 870.988,455.602 862.988,462.602 
		855.156,455.602 841.488,466.102 833.947,455.602 820.988,465.102 810.488,455.602 797.988,466.602 789.5,455.602 769.488,472.102 
		774.488,477.988 786.488,466.795 796.988,474.602 809.488,466.795 821.488,474.602 831.488,466.795 840.488,475.102 
		854.399,464.102 860.488,472.602 872.488,466.795 879.988,472.602 	"/>
	<path style="fill:#211411;stroke:#000000;stroke-miterlimit:10;" d="M688.655,1208.935l1.667-20.28l-12-2.386
		c0,0,1.667,6.333,1.333,11.333s-1.333,11.333-1.333,11.333H688.655z"/>
	<rect x="684.322" y="1222.602" style="fill:#211411;stroke:#000000;stroke-miterlimit:10;" width="8.653" height="15.303"/>
	<polygon style="fill:#211411;stroke:#000000;stroke-miterlimit:10;" points="740.322,1274.314 725.655,1256.269 711.655,1267.269 
		700.988,1256.269 686.488,1265.291 676.655,1252.269 661.988,1266.935 651.322,1253.935 631.988,1268.602 637.655,1272.269 
		651.322,1266.269 665.988,1278.269 676.655,1265.269 688.648,1276.269 701.322,1265.269 712.322,1278.269 725.988,1267.935 
		734.655,1278.269 	"/>
	<path style="fill:#211411;stroke:#000000;stroke-miterlimit:10;" d="M738.322,1306.935l-15.667-20.333l-13.667,12.667
		l-10.333-12.667l-17,10.166l-10.667-10.166l-13.333,11.667l-13.333-14l-12.333,11.333c0,0-4,7.001,4.333,7.667l8.667-7.667
		l12.667,11.333l13-9l10.333,9l16-11.333l9,11.333c0,0,4-0.333,7.333-2.333s10-5.333,10-5.333l9,11L738.322,1306.935z"/>
	<polygon style="fill:#211411;stroke:#000000;stroke-miterlimit:10;" points="1451.601,1320.934 1438.322,1301.845 
		1430.656,1312.602 1421.987,1299.843 1412.386,1310.889 1402.322,1297.841 1388.822,1310.935 1378.989,1299.843 1365.989,1311.269 
		1354.322,1297.841 1338.656,1316.269 1346.989,1321.935 1354.989,1313.269 1366.989,1323.602 1381.322,1314.935 1388.822,1325.269 
		1402.322,1311.555 1412.386,1323.935 1420.322,1314.602 1429.322,1325.269 1438.322,1315.935 1447.656,1327.269 	"/>
	<polygon style="fill:#211411;stroke:#000000;stroke-miterlimit:10;" points="1447.656,1293.935 1450.6,1289.269 1429.322,1267.011 
		1414.656,1278.602 1402.989,1266.182 1391.737,1274.314 1379.989,1264.983 1367.656,1274.314 1353.656,1264.983 1338.656,1279.459 
		1345.322,1283.935 1355.696,1276.935 1366.989,1285.935 1379.656,1276.269 1388.822,1285.269 1402.322,1279.459 1412.386,1289.602 
		1429.322,1279.459 	"/>
	<path style="fill:#211411;stroke:#000000;stroke-miterlimit:10;" d="M1383.156,1217.268h11.459l0.013-26.064
		c0,0-2.832,0.565-5.735-1.102s-5.236,0.9-5.736,3.783S1383.156,1217.268,1383.156,1217.268z"/>
	<polygon style="fill:#211411;stroke:#000000;stroke-miterlimit:10;" points="1672.765,1037.269 1663.354,1026.602 
		1656.654,1031.936 1646.353,1023.935 1634.988,1033.269 1627.499,1022.602 1615.988,1032.602 1608.728,1021.269 1595.534,1031.269 
		1589.988,1021.269 1576.988,1029.269 1570.135,1017.269 1560.277,1027.269 1562.297,1029.935 1567.754,1024.602 1574.321,1033.269 
		1588.988,1027.269 1595.534,1037.269 1608.728,1028.935 1616.521,1037.269 1627.499,1030.935 1634.988,1037.269 1646.353,1030.602 
		1654.393,1037.269 1663.145,1032.602 1668.654,1037.269 	"/>
	<path style="fill:#211411;stroke:#000000;stroke-miterlimit:10;" d="M1328.655,373.03v9.239l18-2.372l4,4.632l11.036-4.632
		c0,0,6.63,4.227,9.297,4.632s8-5.75,8-5.75s8.001,5.156,10.667,4.156s8.332-3.478,12.666,1.594s4-2.337,0-4.632s-9.334-5.705-15,0
		l-7.333-4.633l-10,4.633l-7-4.633l-11.667,4.385l-3.333-4.385l-14.598,2.671l-2.402-4.905H1328.655z"/>
	<path style="fill:#211411;stroke:#000000;stroke-miterlimit:10;" d="M1361.691,482.602c0,0-46.307-2.335-59.754,4.667
		s5.052,12.333,6.718,12.333s8.333-8.687,8.333-8.687l8.333,8.687l7.334-7.333c0,0,6.667,5,8,4.667s6.334-4.333,8-4.667
		s10.332,4.667,10.666,4.667s5.001-7.333,6.334-7.333s4,7,7.833,7s8.167-7.333,9.167-7.333s7.666,6.333,9.333,6.667
		s4.667-3.708,5.667-5.021s6.333,6.021,6.333,6.021s14.335-9-2.666-12.333S1361.691,482.602,1361.691,482.602z"/>
	<path style="fill:#211411;stroke:#000000;stroke-miterlimit:10;" d="M1396.321,540.384l-5.666-1.115v-8.74l5.666,3.74
		c0,0-3-7.444-7.333-5.556s-1.333,13.222-1.333,13.222S1396.321,543.166,1396.321,540.384z"/>
	<path style="fill:#211411;stroke:#000000;stroke-miterlimit:10;" d="M1355.321,540.384c0,0-2.999-9.449-7.666-8.449
		s-4.667,1-4.667,1l-2.333,7.449H1355.321z"/>
	<path style="fill:#211411;stroke:#000000;stroke-miterlimit:10;" d="M1314.988,531.861c0,0-6.334,12.638-9.667,8.523
		S1303.321,529.453,1314.988,531.861z"/>
</g>
<g id="Layer_1">
</g>
</svg>
