<?xml version="1.0" encoding="utf-8"?>
<!-- Generator: Adobe Illustrator 15.0.0, SVG Export Plug-In . SVG Version: 6.00 Build 0)  -->
<!DOCTYPE svg PUBLIC "-//W3C//DTD SVG 1.1//EN" "http://www.w3.org/Graphics/SVG/1.1/DTD/svg11.dtd">
<svg version="1.1" id="red-clothing" xmlns="http://www.w3.org/2000/svg" xmlns:xlink="http://www.w3.org/1999/xlink" x="0px"
	 y="0px" width="2529.088px" height="1891.836px" viewBox="0 0 2529.088 1891.836" enable-background="new 0 0 2529.088 1891.836"
	 xml:space="preserve">
<path fill="#C13F27" d="M2166.545,567.604c-2.134,5.473,0.889-85.291,0.889-85.291s137.055,22.789,189.055-26.711
	c56.419-53.706,53-172.5,53-172.5l44.53-5.634c0,0-46.778,173.269-73.53,229.634c-26.749,56.366-76.5,148.524-76.5,148.524
	l-22.357,0.137c0,0-14.893,0.089-20.393-9.411s-7.75-23.75-7.75-23.75s-1.75-13.75-3.75-15.25s-19-3.75-19-3.75
	s-3.75-28.75-23.66-32.644L2166.545,567.604z"/>
<path fill="#C13F27" d="M995.988,279.602l-7.667-57.811l-26.333-0.731c0,0,38.308,223.876,87.319,352.941
	c0,0,23.15,1.151,65.566-2.352c42.423-3.492,66.447-5.215,66.447-5.215l16.547-142.5c0,0,4.952-5.953-59.542-3.952
	c-52.181,1.619-89.353-16.519-105.601-34.658c-17.07-19.057-24.2-49.964-19.736-81.722
	C1012.989,303.603,1000.295,294.602,995.988,279.602z"/>
</svg>
