<?xml version="1.0" encoding="iso-8859-1"?>
<!-- Generator: Adobe Illustrator 15.0.0, SVG Export Plug-In . SVG Version: 6.00 Build 0)  -->
<!DOCTYPE svg PUBLIC "-//W3C//DTD SVG 1.1//EN" "http://www.w3.org/Graphics/SVG/1.1/DTD/svg11.dtd">
<svg version="1.1" xmlns="http://www.w3.org/2000/svg" xmlns:xlink="http://www.w3.org/1999/xlink" x="0px" y="0px"
	 width="2529.088px" height="1891.836px" viewBox="0 0 2529.088 1891.836" style="enable-background:new 0 0 2529.088 1891.836;"
	 xml:space="preserve">
<g id="dark-skin">
	<path style="fill:#9A4526;stroke:#000000;stroke-miterlimit:10;" d="M2368.598,1753.761c20.853,0.173,20.058-11.159,20.058-11.159
		l-5.3-135.333c0,0,0.637-86.562-0.033-110.667c-0.655-24.109-24.633-80.828-28.667-90c-4.03-9.17-8-60.957-8-60.957l-113.335-3.646
		l23.779,57.463l9.556,88.462l33.333,60.958l16,134.388c0,0-32,34.667-80,42s-52.5,1.833-54.666,11.333
		c-1.186,5.2,0,11.334,3.333,11.334c0,0,6,2.667,18,2c0,0,28.001,2.667,42.667,0c0,0,29.999,2,46.666,1.333
		S2368.598,1753.761,2368.598,1753.761z"/>
	<path style="fill:#9A4526;stroke:#000000;stroke-miterlimit:10;" d="M2171.354,1552.293l8.005-9.566
		c22.537-40.244,8.272-99.127,6.545-108.926c-1.729-9.799,35.419-91.803,35.419-91.803l-108.667-2.286
		c-3.956,15.156-2,97.557-2,97.557l-28.295,102.384l-3.264,22.758c0,0-24.127,114.74-35.489,123.828
		c-8.109,6.492-83.969,31.306-120.27,43.03c0,0-25.35,0.666-25.35,7.333s2,19.655,32.667,17.161s21.334-3.827,30.667-2.494
		s21.997-3.001,39.665-4.167h58.668c0,0,30.999,5.501,42.333,2.834s10.666-10.666,12-30s16-80,26.667-102
		S2171.354,1552.293,2171.354,1552.293z"/>
	<path style="fill:#9A4526;stroke:#000000;stroke-miterlimit:10;" d="M2178.053,1048.545
		c48.651,17.557,153.253-35.951,153.253-35.951c0.778-34.889,0.183-87.242,25.183-133.742c27.152-50.503,43.25-50.384,43.25-50.384
		l-151.22,70.634c0,0-42.53,19-59.027,3.5c-5.113-4.804-33.003-22.003-33.003-22.003s10.587,65.343,15.362,108.019
		c0.08,0.715,0.158,1.425,0.234,2.129c0,0-0.097,13.855-1.347,26.355S2178.053,1048.545,2178.053,1048.545"/>
	<path style="fill:#9A4526;stroke:#000000;stroke-miterlimit:10;" d="M1749.41,731.845c16.861,5.048,57.361,15.014,57.361,15.014
		c-15.217-6.243-13.783-6.757-13.783-12.216s19.684-2.464,19.684-2.464l20.316,2.464c0,0,15.316,1,35.5,2.464
		c19.737,1.42,23.997,20.611,24.5,21.495l122.361,118.33c0,0,64.092-98.934,86.231-122.01
		c22.142-23.093,55.356-20.111,55.356-20.111s6.996,32.791,35.496,52.791c39.589,27.781,78.461,17.821,78.461,17.821l-46.898,24.663
		l-70.258-35.484l-33.75,53.5c0,0-20.03,26.122-40.5,53c-20.476,26.89-61.5,60.5-80.202,60.5c-21.298,0-138.587-168.758-141.29-166
		c-2.7,2.748-45.008,3-45.008,3s-62.5-11.5-71.998-20.248c0,0-4.335-8.085,3.998-9.418s0.333-1.333,0.333-1.333
		s-7.666-1.201-7.333-6.601s4-6.066,4-6.066s-9.001-4-7.667-10s3.334-6,3.334-6s-7.271-2.333-3.469-8.667
		S1749.41,731.845,1749.41,731.845z"/>
	<path style="fill:#9A4526;stroke:#000000;stroke-miterlimit:10;" d="M2165.783,580.043c0,0-1.545,6.309-1.545,11.559
		s-5.5,25.75-8,31.25s-5.961,18.5-2.48,18.75s10.73,0,10.73,0s1.994,11.572,1.997,14.161s14.753,1.839,14.753,1.839l-14.75,0.75
		c0,0,5.5,15.75,6,20s1.75,6.75,12.75,7.25s26,7.25,28.5,17.5s3,39.5,27.25,45.25s43.5-8.75,46.25-21s-7.75-42.5-13.25-54.25
		s-7.1-21.188-7.1-21.188s-8.643-5.375-11.67-21.314s-5.48-23.248-5.48-23.248l-19-3.75l-11.202,0.941c0,0-0.952-19.809-22.75-23.75
		S2165.783,580.043,2165.783,580.043z"/>
	<path style="fill:#9A4526;stroke:#000000;stroke-miterlimit:10;" d="M2354.622,737.106c0,0,67.366-14.53,79.366,26.982
		s-27.191,60.872-34.25,64.378l-135.043,63.078c0,0-51.613,24.453-69.168,14.875s-87.702-60.21-87.702-60.21l-56.837-43.108
		c0,0-8.5-9.948-22.5-6.974s-47.5,3.474-76.5-8.026s-28.666-9.833-28.333-14.167s4.666-6.333,4.666-6.333s-15-3.201-16.333-6.601
		s4.333-9.066,4.333-9.066l-16.333-6.667c0,0,0.333-11.333,10.333-12.333c0,0-11.666-4.667-5.666-9.333s12.605-6,16.803-3.333
		s38.863,13.667,38.863,13.667s-1.999-11,8.334-8.667s34.999,4.333,54.666,7s45.667,19.333,45.667,19.333l155.008,78.484
		c0,0,115.465-63.153,121.798-64.486L2354.622,737.106z"/>
	<path style="fill:#9A4526;stroke:#000000;stroke-miterlimit:10;" d="M2185.987,1020.602c0,0-1.333,9,4.667,8.5
		S2192.653,1019.936,2185.987,1020.602z"/>
	<path style="fill:#9A4526;stroke:#000000;stroke-miterlimit:10;" d="M970.058,1530.397c0,0,2.807,154.086,0.632,176.239
		c-2.178,22.148,4.594,27.818,4.594,27.818l124.205,3.146l35.044,0.555c0,0,19.569,1.109,23.513-2.973
		c4.269-4.419,1.85-19.272-17.768-19.072c-12.287,0.123-37.75-4.15-76.261-19.723c-38.507-15.574-31.909-19.415-27.032-54.268
		c5.631-40.234,18.455-114.364,18.455-114.364s16.549-101.155,21.049-114.155s41-79.896,41-79.896h-108.833
		c0,0-9.063,79.896-15.115,94.896s-20.413,53.5-23.482,99.5"/>
	<path style="fill:#9A4526;stroke:#000000;stroke-miterlimit:10;" d="M1043.238,709.843l-53.013,3.88
		c0,0-41.237,1.212-61.856,21.292S908.655,853.94,908.655,853.94l-5,121.329c0,0-10.334,19.333-9,79.333
		s9.333,129.667,9.333,129.667s-7.667,13-8,29.333s-6.235,40.551,19,43.279c16.683,1.804,15.333,0,15.333,0s9,4.612,13,0
		c0,0,6.333,4.967,9.667,4.344s4.618-2.54,4.618-2.54s1.572,15.251,7.977,15.584s6.406-1.001,5.739-8.334s3.333-29.655-2.333-48.161
		s-11.382-35.589-11.382-35.589s1.049-60.471,6.382-86.36s13-97.555,4.667-113.889l12.667-190.667
		c23.667,19,34.91,70.667,34.91,70.667l0.909,8.65c0,0,1.848,18.517,4.848,41.017s13.5,79,20,87.5s134.5,48.5,140.5,38
		s1.5-48,2.637-67.5s12.832-88.676,12.832-88.676l3.031-18.324c19.333-9.333,36.667-51.333,36.667-51.333s-11.859,104,26.915,185
		c35.547,74.259,141.544,141.751,173.753,157.333s44.333,8,49.252,4.667s-2.919-6.667,3.081-12.333s0-9,3-12.334
		s1.667-11.333,1.667-11.333s4.333-5.667,0-15.084s-60.334-3.019-60.334-3.019s-6.333,2.436-34.666-38.231
		s-88.667-110.333-88.667-110.333c-8.68-119.827-8.675-119.771-12-164.195c-3.333-44.529-28.667-50.805-41-56.138
		s-106.53-23.5-106.53-23.5l-0.67-5.063c0.033-0.764,0.081-1.601,0.14-2.482c0.452-6.74,1.56-16.12,1.56-16.12
		s-47.365-10.637-47.678-9.666c-3.569,11.073-6.627,31.62-4.489,61.417C1100.988,739.854,1067.155,731.751,1043.238,709.843z"/>
	<path style="fill:#9A4526;stroke:#000000;stroke-miterlimit:10;" d="M1233.988,1333.706c0,0,9.5,29.896,6,53.896
		s-2.451,48,0.774,54s47.226,209,52.726,225s15,24.77,30,30.135s76,25.865,86.5,27.865s35.191-2.635,32.096,5.933
		s-2.596,13.067-9.596,13.067s-134-1-152.5-8c0,0-43.5,11.5-39-13s-13.5-74-23-91s-47.5-92.5-50.5-132s2-63.5,0-76.5
		s-35-89.396-35-89.396H1233.988z"/>
	<ellipse style="fill:#9A4526;stroke:#000000;stroke-miterlimit:10;" cx="1163.488" cy="1011.852" rx="4" ry="3.25"/>
</g>
<g id="Layer_1">
</g>
</svg>
