<?xml version="1.0" encoding="utf-8"?>
<!-- Generator: Adobe Illustrator 16.0.0, SVG Export Plug-In . SVG Version: 6.00 Build 0)  -->
<!DOCTYPE svg PUBLIC "-//W3C//DTD SVG 1.1//EN" "http://www.w3.org/Graphics/SVG/1.1/DTD/svg11.dtd">
<svg version="1.1" id="Layer_1" xmlns="http://www.w3.org/2000/svg" xmlns:xlink="http://www.w3.org/1999/xlink" x="0px" y="0px"
	 width="2529.088px" height="1891.836px" viewBox="0 0 2529.088 1891.836" enable-background="new 0 0 2529.088 1891.836"
	 xml:space="preserve">
<g id="dark-skin">
	<path fill="#9A4526" stroke="#000000" stroke-miterlimit="10" d="M2368.598,1753.761c20.854,0.173,20.059-11.159,20.059-11.159
		l-5.301-135.333c0,0,0.638-86.562-0.032-110.667c-0.655-24.108-24.634-80.828-28.667-90c-4.03-9.17-8-60.957-8-60.957
		l-113.335-3.646l23.778,57.463l9.557,88.462l33.333,60.958l16,134.388c0,0-32,34.668-80,42c-48,7.334-52.5,1.834-54.666,11.334
		c-1.187,5.199,0,11.334,3.333,11.334c0,0,6,2.666,18,2c0,0,28.001,2.666,42.667,0c0,0,29.999,2,46.666,1.332
		C2308.656,1750.604,2368.598,1753.761,2368.598,1753.761z"/>
	<path fill="#9A4526" stroke="#000000" stroke-miterlimit="10" d="M2171.354,1552.293l8.006-9.566
		c22.537-40.244,8.271-99.127,6.545-108.926c-1.729-9.799,35.418-91.803,35.418-91.803l-108.666-2.286
		c-3.957,15.156-2,97.557-2,97.557l-28.295,102.385l-3.265,22.758c0,0-24.127,114.74-35.489,123.828
		c-8.108,6.491-83.969,31.306-120.27,43.03c0,0-25.35,0.666-25.35,7.332c0,6.668,2,19.655,32.667,17.161
		c30.667-2.493,21.334-3.827,30.667-2.493c9.333,1.332,21.996-3.002,39.665-4.168h58.668c0,0,30.999,5.502,42.333,2.834
		c11.334-2.666,10.666-10.666,12-30s16-80,26.667-102S2171.354,1552.293,2171.354,1552.293z"/>
	<path fill="#9A4526" stroke="#000000" stroke-miterlimit="10" d="M2178.053,1048.545c48.651,17.557,153.253-35.951,153.253-35.951
		c0.778-34.889,0.184-87.242,25.184-133.742c27.151-50.503,43.25-50.384,43.25-50.384l-151.22,70.634c0,0-42.53,19-59.027,3.5
		c-5.113-4.804-33.003-22.003-33.003-22.003s10.587,65.344,15.362,108.02c0.08,0.715,0.157,1.425,0.233,2.129
		c0,0-0.097,13.854-1.347,26.354S2178.053,1048.545,2178.053,1048.545"/>
	<path fill="#9A4526" stroke="#000000" stroke-miterlimit="10" d="M1749.41,731.845c16.861,5.048,57.361,15.015,57.361,15.015
		c-15.218-6.243-13.783-6.758-13.783-12.217s19.684-2.464,19.684-2.464l20.316,2.464c0,0,15.315,1,35.5,2.465
		c19.736,1.42,23.997,20.61,24.5,21.494l122.36,118.33c0,0,64.093-98.934,86.231-122.01c22.143-23.093,55.355-20.111,55.355-20.111
		s6.996,32.791,35.496,52.791c39.59,27.781,78.461,17.821,78.461,17.821l-46.897,24.663l-70.258-35.484l-33.75,53.5
		c0,0-20.03,26.122-40.5,53c-20.477,26.891-61.5,60.5-80.202,60.5c-21.298,0-138.587-168.758-141.29-166
		c-2.7,2.748-45.008,3-45.008,3s-62.5-11.5-71.998-20.248c0,0-4.335-8.085,3.998-9.418s0.333-1.333,0.333-1.333
		s-7.666-1.2-7.333-6.601s4-6.066,4-6.066s-9.001-4-7.667-10s3.334-6,3.334-6s-7.271-2.333-3.47-8.667
		C1737.987,723.935,1749.41,731.845,1749.41,731.845z"/>
	<path fill="#9A4526" stroke="#000000" stroke-miterlimit="10" d="M2165.783,580.043c0,0-1.545,6.309-1.545,11.559
		s-5.5,25.75-8,31.25s-5.961,18.5-2.48,18.75c3.481,0.25,10.73,0,10.73,0s1.994,11.572,1.997,14.161s14.753,1.839,14.753,1.839
		l-14.75,0.75c0,0,5.5,15.75,6,20s1.75,6.75,12.75,7.25s26,7.25,28.5,17.5s3,39.5,27.25,45.25s43.5-8.75,46.25-21
		s-7.75-42.5-13.25-54.25s-7.101-21.188-7.101-21.188s-8.643-5.375-11.67-21.314c-3.026-15.938-5.479-23.248-5.479-23.248l-19-3.75
		l-11.202,0.941c0,0-0.952-19.809-22.75-23.75S2165.783,580.043,2165.783,580.043z"/>
	<path fill="#9A4526" stroke="#000000" stroke-miterlimit="10" d="M2354.622,737.106c0,0,67.366-14.53,79.366,26.981
		s-27.191,60.872-34.25,64.378l-135.043,63.078c0,0-51.613,24.453-69.168,14.875s-87.702-60.21-87.702-60.21l-56.837-43.108
		c0,0-8.5-9.947-22.5-6.974s-47.5,3.474-76.5-8.026s-28.666-9.833-28.333-14.167s4.666-6.333,4.666-6.333s-15-3.2-16.333-6.601
		s4.333-9.066,4.333-9.066l-16.333-6.667c0,0,0.333-11.333,10.333-12.333c0,0-11.666-4.667-5.666-9.333s12.604-6,16.803-3.333
		s38.863,13.667,38.863,13.667s-1.999-11,8.334-8.667s34.999,4.333,54.666,7s45.667,19.333,45.667,19.333l155.008,78.484
		c0,0,115.465-63.153,121.799-64.486L2354.622,737.106z"/>
	<path fill="#9A4526" stroke="#000000" stroke-miterlimit="10" d="M2185.987,1020.602c0,0-1.333,9,4.667,8.5
		S2192.653,1019.936,2185.987,1020.602z"/>
	<path fill="#9A4526" stroke="#000000" stroke-miterlimit="10" d="M970.058,1530.396c0,0,2.808,154.086,0.633,176.239
		c-2.179,22.148,4.594,27.818,4.594,27.818l124.205,3.146l35.044,0.556c0,0,19.568,1.108,23.513-2.974
		c4.269-4.419,1.85-19.271-17.768-19.071c-12.287,0.123-37.75-4.15-76.262-19.724c-38.507-15.574-31.909-19.415-27.031-54.268
		c5.631-40.234,18.454-114.364,18.454-114.364s16.55-101.155,21.05-114.155s41-79.896,41-79.896h-108.833
		c0,0-9.063,79.896-15.115,94.896s-20.413,53.5-23.482,99.5"/>
	<path fill="#9A4526" stroke="#000000" stroke-miterlimit="10" d="M1043.238,709.843l-53.014,3.88c0,0-41.236,1.212-61.855,21.292
		S908.655,853.94,908.655,853.94l-5,121.328c0,0-10.334,19.333-9,79.333s9.333,129.667,9.333,129.667s-7.667,13-8,29.333
		s-6.235,40.552,19,43.279c16.683,1.804,15.333,0,15.333,0s9,4.612,13,0c0,0,6.333,4.967,9.667,4.344s4.618-2.54,4.618-2.54
		s1.571,15.251,7.977,15.584s6.406-1.001,5.739-8.334s3.333-29.654-2.333-48.161c-5.666-18.506-11.382-35.589-11.382-35.589
		s1.049-60.471,6.382-86.359c5.333-25.89,13-97.556,4.667-113.89l12.667-190.667c23.667,19,34.91,70.667,34.91,70.667l0.908,8.65
		c0,0,1.849,18.518,4.849,41.018s13.5,79,20,87.5s134.5,48.5,140.5,38s1.5-48,2.637-67.5s12.832-88.677,12.832-88.677l3.031-18.323
		c19.333-9.334,36.667-51.334,36.667-51.334s-11.859,104,26.915,185c35.547,74.26,141.544,141.752,173.753,157.334
		s44.333,8,49.252,4.666c4.919-3.332-2.919-6.666,3.081-12.332s0-9,3-12.334s1.667-11.334,1.667-11.334s4.333-5.666,0-15.084
		c-4.333-9.416-60.334-3.019-60.334-3.019s-6.333,2.437-34.666-38.231c-28.333-40.666-88.667-110.332-88.667-110.332
		c-8.68-119.827-8.675-119.771-12-164.195c-3.333-44.529-28.667-50.805-41-56.139c-12.333-5.332-106.53-23.5-106.53-23.5
		l-0.67-5.062c0.033-0.764,0.081-1.601,0.14-2.482c0.452-6.739,1.561-16.119,1.561-16.119s-47.365-10.638-47.678-9.666
		c-3.569,11.072-6.627,31.619-4.489,61.417C1100.988,739.854,1067.155,731.751,1043.238,709.843z"/>
	<path fill="#9A4526" stroke="#000000" stroke-miterlimit="10" d="M1233.988,1333.706c0,0,9.5,29.896,6,53.896s-2.451,48,0.773,54
		c3.226,6,47.227,209,52.727,225s15,24.771,30,30.136c15,5.364,76,25.864,86.5,27.864s35.19-2.635,32.096,5.934
		s-2.596,13.066-9.596,13.066s-134-1-152.5-8c0,0-43.5,11.5-39-13s-13.5-74-23-91s-47.5-92.5-50.5-132s2-63.5,0-76.5
		s-35-89.396-35-89.396H1233.988z"/>
	<ellipse fill="#9A4526" stroke="#000000" stroke-miterlimit="10" cx="1163.488" cy="1011.852" rx="4" ry="3.25"/>
</g>
<g id="Layer_1_1_">
</g>
</svg>
