<?xml version="1.0" encoding="iso-8859-1"?>
<!-- Generator: Adobe Illustrator 15.0.0, SVG Export Plug-In . SVG Version: 6.00 Build 0)  -->
<!DOCTYPE svg PUBLIC "-//W3C//DTD SVG 1.1//EN" "http://www.w3.org/Graphics/SVG/1.1/DTD/svg11.dtd">
<svg version="1.1" xmlns="http://www.w3.org/2000/svg" xmlns:xlink="http://www.w3.org/1999/xlink" x="0px" y="0px"
	 width="2529.088px" height="1891.836px" viewBox="0 0 2529.088 1891.836" style="enable-background:new 0 0 2529.088 1891.836;"
	 xml:space="preserve">
<g id="green-scepter">
	<polygon style="fill:#007364;stroke:#000000;stroke-miterlimit:10;" points="753.139,1658.157 762.653,1504.603 766.655,1275.936 
		768.482,1143.633 757.956,1142.613 758.406,1273.27 745.106,1658.157 	"/>
	<polygon style="fill:#007364;stroke:#000000;stroke-miterlimit:10;" points="769.863,1101.938 781.182,625.594 775.655,626.417 
		762.757,1099.937 	"/>
	<path style="fill:#007364;stroke:#000000;stroke-miterlimit:10;" d="M777.185,626.781c0,0,12.883,0.641,13.771-11.581
		c0.921-12.678,13.323-22.63,13.323-22.63s-8.677-6.537-26.891-5.555c-6.164,0.332-13.42,0.639-21.801,3.544
		c0,0,11.386,8.549,11.831,22.127C767.862,626.265,777.185,626.781,777.185,626.781z"/>
	<path style="fill:#007364;stroke:#000000;stroke-miterlimit:10;" d="M1703.488,1205.602c0,0,2.834-4.869,8.834-3.102
		s3.667,3.102,3.667,3.102l0.446-6c0,0-13.638-0.667-14.542-11.667c0,0,0.763,12.667-11.237,11.667v6
		C1690.656,1205.602,1697.01,1198.856,1703.488,1205.602z"/>
	<path style="fill:#007364;stroke:#000000;stroke-miterlimit:10;" d="M1608.656,1202.5c0,0-0.001-7.567,6.999-6.733
		s6.001,2.834,6.001,2.834l0.265-6.999c0,0-10.755,3.667-11.677-6.333c0,0-1.517,11.499-14.59,7.615c0,0-0.855,4.419,2.002,3.884
		C1605.656,1195.269,1608.49,1198.115,1608.656,1202.5z"/>
</g>
<g id="Layer_1">
</g>
</svg>
