<?xml version="1.0" encoding="iso-8859-1"?>
<!-- Generator: Adobe Illustrator 15.0.0, SVG Export Plug-In . SVG Version: 6.00 Build 0)  -->
<!DOCTYPE svg PUBLIC "-//W3C//DTD SVG 1.1//EN" "http://www.w3.org/Graphics/SVG/1.1/DTD/svg11.dtd">
<svg version="1.1" xmlns="http://www.w3.org/2000/svg" xmlns:xlink="http://www.w3.org/1999/xlink" x="0px" y="0px"
	 width="2529.088px" height="1891.836px" viewBox="0 0 2529.088 1891.836" style="enable-background:new 0 0 2529.088 1891.836;"
	 xml:space="preserve">
<g id="green-glyphs">
	<path style="fill:#007364;stroke:#000000;stroke-miterlimit:10;" d="M731.001,218.185l-113.499-5.083
		c0,0,26.298,23.769,61.42,24.115S731.001,218.185,731.001,218.185z"/>
	<path style="fill:#007364;stroke:#000000;stroke-miterlimit:10;" d="M673.213,472.517c0,0,24.186,7.973,53.773-25.606l-49.621,3.46
		l4.153,9.756L673.213,472.517z"/>
	<path style="fill:#007364;stroke:#000000;stroke-miterlimit:10;" d="M668.369,473.343c0,0-38.755-4.432-52.943-26.433l52.943,2.422
		l-6.534,8.997l8.264,15.014H668.369z"/>
	<path style="fill:#007364;stroke:#000000;stroke-miterlimit:10;" d="M859.988,239.269c0.667,3.667-5.667,7.667-4.832,11.333
		s-10.501,22.333-10.501,22.333s-0.333,12,3.333,12.289s15.667,8.397,15.667,8.397h-48.342l14.009-5.352c0,0,0,0-0.843-1.333
		s5.176-8-4.491-8s-18,10.667-18,10.667h-12.268l8.601-12l-12.822,2c0,0,21.822-13.333,33.155-27.333S838,239.935,838,239.935
		s1.322-10,11.988-10s15.667,7.333,15.667,7.333C863.655,236.602,859.988,239.269,859.988,239.269z M833.947,279.602
		c0,0-0.564,7,1.572,7s5.803,0,5.469-3.5S838.684,275.304,833.947,279.602z"/>
	<path style="fill:#007364;stroke:#000000;stroke-miterlimit:10;" d="M884.988,352.602L771.97,348.42
		c0,0,21.519,24.682,59.519,24.682S884.988,352.602,884.988,352.602z"/>
	<polygon style="fill:#007364;stroke:#000000;stroke-miterlimit:10;" points="736.322,1353.602 730.988,1330.935 727.655,1333.706 
		729.322,1357.602 	"/>
	<polygon style="fill:#007364;stroke:#000000;stroke-miterlimit:10;" points="635.988,1352.935 641.322,1334.268 636.989,1326.268 
		628.655,1351.269 	"/>
	<path style="fill:#007364;stroke:#000000;stroke-miterlimit:10;" d="M667.322,1366.935l2-11.666c0,0,15.667,2.334,26.333,0
		l2,12.998C697.655,1368.267,678.322,1370.268,667.322,1366.935z"/>
	<path style="fill:#007364;stroke:#000000;stroke-miterlimit:10;" d="M682.488,1356.291c30.493,1.176,49.5-27.333,49.5-27.333
		s-36.333-0.356-43.34-0.023s-51.66-3-51.66-3S648.488,1354.98,682.488,1356.291z"/>
	<path style="fill:#007364;stroke:#000000;stroke-miterlimit:10;" d="M708.988,1475.268c0,0,26.334-13,18.667-14.333
		s-19.667,9.167-36.167,7.167s-57.5-9.834-59.5-7.167s28.5,20.167,39.75,19.667S695.139,1482.957,708.988,1475.268z"/>
	<g>
		<path style="fill:#007364;stroke:#000000;stroke-miterlimit:10;" d="M621.488,1609.852h36.502c0,0-1.002,17.443-19.252,17.443
			C623.488,1627.295,621.488,1609.852,621.488,1609.852z"/>
	</g>
	<g>
		<path style="fill:#007364;stroke:#000000;stroke-miterlimit:10;" d="M1434.656,1592.269l-14-2.945c0,0-6.334-7.722-13.334-3.222
			s2.666,18.422,4,20.961s2,6.928,2,6.928s-15.668-7.389-27.834-4.389s-18.165,12.333-34.832,12c0,0-6.333,0.667,0,3.667
			s13.666,2.999,17.666,2.666s12.667,2,12.667,2s13,1.333,18,0s11.333-7.332,15-7.666s13.667-0.668,8-10.334s-9.333-17.667-2.333-17
			c3.197,0.305,7.604,0.775,10.36,0.109C1433.296,1594.253,1434.656,1592.269,1434.656,1592.269z"/>
		<polygon style="fill:#007364;stroke:#000000;stroke-miterlimit:10;" points="1398.989,1629.935 1403.656,1641.6 1415.322,1641.6 
			1415.322,1644.935 1373.989,1644.935 1373.989,1641.6 1385.488,1641.6 1380.989,1629.935 1383.989,1629.935 1391.249,1640.602 
			1398.656,1640.602 1395.998,1630.39 		"/>
	</g>
	<path style="fill:#007364;stroke:#000000;stroke-miterlimit:10;" d="M1447.656,1347.935l-7.668,8h-87.832c0,0-4.5,17-13.5,13.667
		s5.666-20.334,12.666-21.667S1447.656,1347.935,1447.656,1347.935z"/>
	<path style="fill:#007364;stroke:#000000;stroke-miterlimit:10;" d="M1438.322,1355.935c0,0-11,15.667-40.333,15.667
		s-41.501-15.667-41.501-15.667H1438.322z"/>
	<path style="fill:#007364;stroke:#000000;stroke-miterlimit:10;" d="M1567.754,1008.935c0,0,9.38,7.667,40.974,7.001
		s28.927,3.333,40.927,1.333s15.667-3.93,15.667-3.93s-39.309-0.568-51.907-6.737
		C1592.989,996.602,1576.187,1002.268,1567.754,1008.935z"/>
	<polygon style="fill:#007364;stroke:#000000;stroke-miterlimit:10;" points="1652.238,805.352 1677.238,805.352 1677.238,828.602 
		1649.988,826.602 	"/>
	<path style="fill:#007364;stroke:#000000;stroke-miterlimit:10;" d="M1567.754,761.602c0,0,16.734,4,17.984,14.5
		s2.06,12.25,2.06,12.25l5.609,2.5v7.75l-3.607,1l-2.002,14.175h-2.56c0,0,2.5-19.925-18.75-20.175v-9
		c0,0,10.418,0.176,13.459,3.088s0.791-10.338-6.459-11.588s-7.25-1.25-7.25-1.25L1567.754,761.602z"/>
	<path style="fill:#007364;stroke:#000000;stroke-miterlimit:10;" d="M1422.655,137.269c0,0-6.334-6.333-11.334-6.333
		c0,0-1.999-5.991-6.666-4.996s-11.334,4.596-7.667,9.962s1.333,15.21-3,14.622s-15-6.255-76.667,11.078c0,0,3,9.204,19.667,12.269
		s60.667-0.602,64-9.602s8.333-17.333,6.333-25.333S1420.322,136.269,1422.655,137.269z"/>
	<path style="fill:#007364;stroke:#000000;stroke-miterlimit:10;" d="M1303.655,303.726l106.333,1.543
		c0,0,7.667,18.333-45.333,19.333S1303.655,303.726,1303.655,303.726z"/>
	<path style="fill:#007364;stroke:#000000;stroke-miterlimit:10;" d="M1353.321,340.269c0,0-14.334-7.996,6-7.665
		s14.667,7.665,14.667,7.665l-1.667,2.667c0,0,30.333,9.333,36,14.833s7.333-1.972,7-7.402s0.04-15.431,0.04-15.431l3.627-0.333
		c0,0,5.438,34.333-8.614,32.333s-94.053-3-99.386-4.667s-6.666-9.82-7.333-16.077s0-10.59,0-10.59h4.333
		c0,0-0.667,17.667,6.333,17.667S1331.939,342.201,1353.321,340.269z"/>
	<path style="fill:#007364;stroke:#000000;stroke-miterlimit:10;" d="M1566.488,301.102c0,0-60.667,5.167-65.5,1
		s20.167-4.333,20.167-4.333l4.333-17l-6.5-9.833c0,0-22.667,15.124-28,16.395s-17.667,1.105-17.667,1.105s5.666-7.667,4.5-8.833
		s-10.166-3-10.166-3s33.499-10.833,38.166-17.833s26.5-28.333,28.667-29.5s3-1.167,3-1.167s6.501-21,14.667-21.333
		s18.002,0.834,19.001,7.667c0,0,5.499,2.666,5.499,6.333c0,0-7.166-1-9.5,3s0.5,12.167-3.167,19.833s-21.541,32.333-21.541,32.333
		s-0.625,18.167,3.208,19.667S1571.988,294.935,1566.488,301.102z M1529.321,292.935c-0.667,3.833,9.999,6.167,10.333,0
		s-6.833-16-6.833-16C1532.654,281.102,1529.988,289.102,1529.321,292.935z"/>
	<path style="fill:#007364;stroke:#000000;stroke-miterlimit:10;" d="M2420.412,965.352l-53.424-2.5c0,0,18.75,12.75,28.5,12.25
		S2420.412,965.352,2420.412,965.352z"/>
	<polygon style="fill:#007364;stroke:#000000;stroke-miterlimit:10;" points="2410.738,1035.102 2410.738,1041.852 
		2370.488,1041.852 2370.488,1035.102 2378.988,1030.102 2385.988,1034.102 2387.113,1029.102 2396.738,1029.102 2399.738,1035.477 
		2404.162,1032.102 	"/>
	<path style="fill:#007364;stroke:#000000;stroke-miterlimit:10;" d="M2422.988,1211.602c0,0-8-0.5-6.75-6.5s11.25-24.5,1.75-32
		s-9.75,0.5-22.25,0s-4-4.25-11.25-11s-14.5-4.75-15.25-2.5s0.25,5.25,1.25,6.5s10.5-0.5,11,3s1.75,11,11.5,10.25s19.5-3,21.25,2.75
		s-7.75,18.25-4,25.75s12.75,10,12.75,10S2426.153,1212.313,2422.988,1211.602z"/>
	<path style="fill:#007364;stroke:#000000;stroke-miterlimit:10;" d="M2063.738,184.102c0,0-17.555,22.25-68.777,22.25
		s-64.723-14-66.973-22.25s6.25-19,7-22.25s5.82-21.5,5.82-21.5s-11.57-7-8.07-11.25s23.706,8.25,23.706,8.25s4.706,6.75,0,9.5
		s-13.706,17.25-13.206,21.75s12.25,5.25,15.75,0.75s7.25-6.5,7.25-6.5s-7-14-4.5-21.5s12.25-19.5,28.75-19.5s30,11.5,29.75,22.75
		s2.75,23.75,15,25.25s31,6.5,28.5,13.25"/>
	<path style="fill:#007364;stroke:#000000;stroke-miterlimit:10;" d="M2031.488,130.102c0,0,39.5,11.25,33.75,24
		S2039.738,165.102,2031.488,130.102z"/>
	<path style="fill:#007364;stroke:#000000;stroke-miterlimit:10;" d="M1765.988,130.102c0,0,8.25,5,7.25,9.5s-8.5,26.851-5.25,36.8
		s2.5,27.95,61,27.2s52.75-27,49.5-39.5s-9.5-27.75-1.25-30.75s8.488-7.25,3.119-10s-24.369,5-23.119,12s12.25,15.75,12.75,22.25
		s-10.75,9.25-14.75,6.5s-5.5-6-5.5-6s13.75-33.25-19-40.25s-42.25,22.75-38.5,30.75s16,18.75,15,21.75s-24.5,6.75-28.5-1.75
		s-4.5-14,1.75-21s14.25-14.75-4-21.5S1760.768,125.778,1765.988,130.102z"/>
	<path style="fill:#007364;stroke:#000000;stroke-miterlimit:10;" d="M1894.322,212.602c0,0,2.667,4.667,0,6.333s-15,1.668-23,1.667
		s-30-3.001-30-3.001v-5H1894.322z"/>
	<rect x="1746.322" y="212.602" style="fill:#007364;stroke:#000000;stroke-miterlimit:10;" width="48.667" height="6.333"/>
	<rect x="2068.655" y="212.602" style="fill:#007364;stroke:#000000;stroke-miterlimit:10;" width="6.667" height="10"/>
	<rect x="2055.655" y="212.602" style="fill:#007364;stroke:#000000;stroke-miterlimit:10;" width="5.334" height="8.001"/>
	<rect x="2040.322" y="212.602" style="fill:#007364;stroke:#000000;stroke-miterlimit:10;" width="8.834" height="10"/>
	<path style="fill:#007364;stroke:#000000;stroke-miterlimit:10;" d="M1920.238,226.824h22l-1.43-5.223l11.18-5
		c0,0-6.25-5.25-7.75-7.5l-6.28,7.5c0,0-2.22-1-1.845-4s1.845-5.25,1.845-5.25l-1.845-2c0,0-4.875,1-5.875,0s-3.999,0-3.999,0
		s2.999,6,1.999,7.25s-8.5,0-9.5-2.5l-2-1l-3.25,7.5c0,0,8.5,2.501,8.75,4s-2,3.499-2,3.499S1918.738,226.824,1920.238,226.824z"/>
	<path style="fill:#007364;stroke:#000000;stroke-miterlimit:10;" d="M1766.738,262.602c0,0,1.5-6.5,10.75-5.75
		c0,0,6.502-5.37,17.501-0.06c0,0,3.999,2.06,2.999,3.56s-5.5,2.128-6.25,5.064s-4,10.668,1.5,12.052s10.703-1.116,31.852,19.884
		c0,0,7.398,3.5,14.398,8.5s7,5,7,5s21.25-1.75,24,0s-2.073,6.75-2.073,6.75s3.769,4.25,2.921,6.25s-7.848,3.5-7.848,3.5
		s-2.5,3.75-8.75,0s-27.496-14.75-35.373-15.75s-14.198-3.25-14.198-3.25l4.321,20.417c0,0,8.004,3.415,9.877,5.249
		s-24.376,1.029-24.376,1.029s5.249-2.234,6.499-4.089s-9.75-29.105-9.75-29.105s-13-12.637-13.75-19.943s0.883-9.586,3.941-12.696
		s-0.441-6.61-1.941-6.36S1772.24,261.217,1766.738,262.602z"/>
	<path style="fill:#007364;stroke:#000000;stroke-miterlimit:10;" d="M2041.656,485.769c0,0-10.167-2.833-7.667-15.5
		s1.333-22.334-7.5-22.667s-21.499,6.667-27.333,2.167s-6.5-11.035-4.667-12.018s5.247,1.216,7.29,0.45s4.209-5.267,4.543-6.1
		s1.334-2.333,2.334-3.833s-0.834-4.167-5.667-1.833s-1.167,5.833-5,5.833s-5.333,0.5-5.333,0.5s-8-1.667-10.5-2.167
		s-5.668,0.489-4.501,3.328s8.655,8.377,12.334,7.774c0,0,2.834,12.479,8.667,13.938s17.333,0.874,20.333,0
		s10.666-1.874,10.833,4.293s-3.519,23.46,6.079,25.833C2043.322,487.604,2041.656,485.769,2041.656,485.769z"/>
</g>
<g id="Layer_1">
</g>
</svg>
