<?xml version="1.0" encoding="utf-8"?>
<!-- Generator: Adobe Illustrator 16.0.0, SVG Export Plug-In . SVG Version: 6.00 Build 0)  -->
<!DOCTYPE svg PUBLIC "-//W3C//DTD SVG 1.1//EN" "http://www.w3.org/Graphics/SVG/1.1/DTD/svg11.dtd">
<svg version="1.1" id="red-clothing" xmlns="http://www.w3.org/2000/svg" xmlns:xlink="http://www.w3.org/1999/xlink" x="0px"
	 y="0px" width="2529.088px" height="1891.836px" viewBox="0 0 2529.088 1891.836" enable-background="new 0 0 2529.088 1891.836"
	 xml:space="preserve">
<path fill="#242144" stroke="#000000" stroke-miterlimit="10" d="M355.988,1078.074c-2.665-30.438,14.23-50.479,17.191-58.37
	c2.96-7.89-0.191-19.771,7.834-46.328c4.559-15.089,9.812-36.807,10.475-68.774c0.656-31.654-1.5-49-1.5-49
	s34.005-5.317,67.49-4.255c30.22,0.961,60.388,8.236,58.175,9.588c-4.663,2.851-8.964,50.354-6.166,67.447
	c2.798,17.094,8.221,41.192,6,58.505c-2.221,17.313-10.443,30.563-6.892,43.274l15.392,58.465c0,0-14.667,180.766-16,214.475
	c-1.391,35.188-1.408,34.584-6,88l10.161,238.76l-153.656-10.605c0,0-1.668-145.489,0.996-165.651
	c2.663-20.16,12.721-65.004,10.5-97c-2.222-31.996-5.729-124.813-6.175-158.563c-0.443-33.75,1.333-58.732,1.333-67.5
	C365.146,1121.77,358.126,1102.485,355.988,1078.074z"/>
</svg>
