<?xml version="1.0" encoding="utf-8"?>
<!-- Generator: Adobe Illustrator 16.0.0, SVG Export Plug-In . SVG Version: 6.00 Build 0)  -->
<!DOCTYPE svg PUBLIC "-//W3C//DTD SVG 1.1//EN" "http://www.w3.org/Graphics/SVG/1.1/DTD/svg11.dtd">
<svg version="1.1" id="Layer_1" xmlns="http://www.w3.org/2000/svg" xmlns:xlink="http://www.w3.org/1999/xlink" x="0px" y="0px"
	 width="2529.088px" height="1891.836px" viewBox="0 0 2529.088 1891.836" enable-background="new 0 0 2529.088 1891.836"
	 xml:space="preserve">
<g id="dark-skin">
	<path fill="#9A4526" stroke="#000000" stroke-miterlimit="10" d="M970.058,1530.396c0,0,2.808,154.086,0.633,176.239
		c-2.179,22.148,4.594,27.818,4.594,27.818l124.205,3.146l35.044,0.556c0,0,19.568,1.108,23.513-2.974
		c4.269-4.419,1.85-19.271-17.768-19.071c-12.287,0.123-37.75-4.15-76.262-19.724c-38.507-15.574-31.909-19.415-27.031-54.268
		c5.631-40.234,18.454-114.364,18.454-114.364s16.55-101.155,21.05-114.155s41-79.896,41-79.896h-108.833
		c0,0-9.063,79.896-15.115,94.896s-20.413,53.5-23.482,99.5"/>
	<path fill="#9A4526" stroke="#000000" stroke-miterlimit="10" d="M1043.238,709.843l-53.014,3.88c0,0-41.236,1.212-61.855,21.292
		S908.655,853.94,908.655,853.94l-5,121.328c0,0-10.334,19.333-9,79.333s9.333,129.667,9.333,129.667s-7.667,13-8,29.333
		s-6.235,40.552,19,43.279c16.683,1.804,15.333,0,15.333,0s9,4.612,13,0c0,0,6.333,4.967,9.667,4.344s4.618-2.54,4.618-2.54
		s1.571,15.251,7.977,15.584s6.406-1.001,5.739-8.334s3.333-29.654-2.333-48.161c-5.666-18.506-11.382-35.589-11.382-35.589
		s1.049-60.471,6.382-86.359c5.333-25.89,13-97.556,4.667-113.89l12.667-190.667c23.667,19,34.91,70.667,34.91,70.667l0.908,8.65
		c0,0,1.849,18.518,4.849,41.018s13.5,79,20,87.5s134.5,48.5,140.5,38s1.5-48,2.637-67.5s12.832-88.677,12.832-88.677l3.031-18.323
		c19.333-9.334,36.667-51.334,36.667-51.334s-11.859,104,26.915,185c35.547,74.26,141.544,141.752,173.753,157.334
		s44.333,8,49.252,4.666c4.919-3.332-2.919-6.666,3.081-12.332s0-9,3-12.334s1.667-11.334,1.667-11.334s4.333-5.666,0-15.084
		c-4.333-9.416-60.334-3.019-60.334-3.019s-6.333,2.437-34.666-38.231c-28.333-40.666-88.667-110.332-88.667-110.332
		c-8.68-119.827-8.675-119.771-12-164.195c-3.333-44.529-28.667-50.805-41-56.139c-12.333-5.332-106.53-23.5-106.53-23.5
		l-0.67-5.062c0.033-0.764,0.081-1.601,0.14-2.482c0.452-6.739,1.561-16.119,1.561-16.119s-47.365-10.638-47.678-9.666
		c-3.569,11.072-6.627,31.619-4.489,61.417C1100.988,739.854,1067.155,731.751,1043.238,709.843z"/>
	<path fill="#9A4526" stroke="#000000" stroke-miterlimit="10" d="M1233.988,1333.706c0,0,9.5,29.896,6,53.896s-2.451,48,0.773,54
		c3.226,6,47.227,209,52.727,225s15,24.771,30,30.136c15,5.364,76,25.864,86.5,27.864s35.19-2.635,32.096,5.934
		s-2.596,13.066-9.596,13.066s-134-1-152.5-8c0,0-43.5,11.5-39-13s-13.5-74-23-91s-47.5-92.5-50.5-132s2-63.5,0-76.5
		s-35-89.396-35-89.396H1233.988z"/>
	<ellipse fill="#9A4526" stroke="#000000" stroke-miterlimit="10" cx="1163.488" cy="1011.852" rx="4" ry="3.25"/>
</g>
<g id="Layer_1_1_">
</g>
</svg>
