<?xml version="1.0" encoding="iso-8859-1"?>
<!-- Generator: Adobe Illustrator 15.0.0, SVG Export Plug-In . SVG Version: 6.00 Build 0)  -->
<!DOCTYPE svg PUBLIC "-//W3C//DTD SVG 1.1//EN" "http://www.w3.org/Graphics/SVG/1.1/DTD/svg11.dtd">
<svg version="1.1" xmlns="http://www.w3.org/2000/svg" xmlns:xlink="http://www.w3.org/1999/xlink" x="0px" y="0px"
	 width="2529.088px" height="1891.836px" viewBox="0 0 2529.088 1891.836" style="enable-background:new 0 0 2529.088 1891.836;"
	 xml:space="preserve">
<g id="light-skin">
	<path style="fill:#FEC671;stroke:#000000;stroke-miterlimit:10;" d="M467.305,609.697l-13.144,51.845l0.62,19.21l-0.125,58.515
		c0,0,34.601-1.608,44.057-27.161c0,0-2.506-26.68,9.026-30.005c13.389-3.86,30.805-4.404,32.407-9.717
		c0.875-2.902,0.473-10.16,1.508-14.825c0.993-4.475,1.965-6.13,2.604-8.708c0.369-1.486-3.363-2.478-7.807-3.075
		c-3.802-0.511-5.391-0.734-5.391-0.734c0.429-0.066,1.922,0.331,4.867,0.751c4.844,0.69,8.908,1.443,9.015,0.3
		c0.885-9.492,0.064-22.652,3.552-25.313c5.746-4.383,12.359-2.017,5.119-13.588c-4.497-7.188-12.534-33.247-12.534-33.247
		s-13.819-12.677-46.091,5.99c0,0-3,15-14.667,15.667S467.305,609.697,467.305,609.697z"/>
	<path style="fill:#FEC671;stroke:#000000;stroke-miterlimit:10;" d="M340.322,723.269c0,0-17.333,9-23,43.667
		C310.91,806.163,298.6,952.288,298.6,952.288s-13.611,51.558-13.611,129.313c0,47.029-2.219,36.117-8.102,89.062l-0.71,7.75
		c-15.037,23.039-12.504,43.896-10.625,55.804s9.399,8.905,9.399,8.905c3.107,6.791,14.522,7.5,12.748,5.791
		c7.29,7.021,16.855,1.001,16.855,1.001c5.639,7.896,16.225,1.601,16.225,1.601c-0.692,10.677,15.441,18.461,14.971,15.586
		c-0.469-2.875,4.333-17.279,0.672-46.846c-3.663-29.566-11.375-38.21-11.375-38.21v-5.005c0,0,16.115-108.663,25.442-156.439
		c9.326-47.775,1.5-68.313,1.5-68.313s23.194-80.187,23.998-152.188c0.131-11.741,10.32,24.469,11.335,32.502
		c1.229,9.719,2.667,23,2.667,23s67.332-12,125.666,5.333l1.668-4l17.333-1l1.616,2.551c0,0,12.151,78.08,23.951,113.219
		c18.434,54.896,93.057,115.512,93.057,115.512s42.848,45.406,67.042,58.383c29.769,15.967,50.486,15.092,55.001,13.003
		c4.626-2.142,7.863-12.466,7.863-12.466c3.775-3.945,3.775-11.953,3.775-11.953c5.107-5.698,2.254-14.356,2.254-14.356
		c6.559-15.442-16.132-19.146-16.132-19.146c-8.593-2.194-49.516-6.59-49.516-6.59s-42.542-50.692-65.261-83.111
		c-19.931-28.437-17.613-33.11-52.981-64.956l-6.784-62.922c-5.547-71.833-8.089-117.945-13.541-137.682
		c-2.344-8.485-24.68-14.485-24.68-14.485s-19.664,70-105.331,75.333c0,0-2.667,12.666-1.333,36.333c0,0-1,1.667-15,1.333
		s-35.667,0-35.667,0s-8,1.333-7.333-6.333s1.333-76,1.333-76s-2.333-9.666-1-16.333s1-8.667,1-8.667s-0.333-7.666-0.333-14.333
		s-0.667-10-0.667-10s-2.333-4.667-15.333-2.667S345.322,718.269,340.322,723.269z"/>
	<path style="fill:#FEC671;stroke:#000000;stroke-miterlimit:10;" d="M512.266,1630.229l4.325,39.807
		c0,0,66.731,35.23,99.045,46.566c16.31,5.722,26.158,3.695,29.342,5.686c9.717,6.073-2.489,13.814-2.489,13.814
		s-39.294-1.609-61.5-2.048c-22.206-0.438-114.5,5.048-117.128-14.427c-1.012-7.501,1.333-19.269,0-31.33
		c-1.333-12.062-13.03-62.762-13.03-62.762L512.266,1630.229z"/>
	<path style="fill:#FEC671;stroke:#000000;stroke-miterlimit:10;" d="M360.528,1619.531c0,0-2.317,58.044-5.039,70.994
		c-3.378,16.076-1.782,37.187,10.034,37.501c17.347,0.462,95.797,8.075,122.763,8.002c0,0,13.247,1.543,16.432-2.316
		c0,0,15.938,3.31,16.876,0c0,0,20.563,1.893,21.438,1.007c0.874-0.886,9.577-12.978,1.583-14.73
		c-7.994-1.754-23.464-5.562-23.464-5.562s-46.663-15.981-60.844-18.907c0,0-22.424-13.51-48.184-27.137
		c0,0-0.161-32.729,3.413-44.873L360.528,1619.531z"/>
	<path style="fill:#FEC671;stroke:#000000;stroke-miterlimit:10;" d="M508.322,621.935"/>
</g>
<g id="Layer_1">
</g>
</svg>
