<?xml version="1.0" encoding="iso-8859-1"?>
<!-- Generator: Adobe Illustrator 15.0.0, SVG Export Plug-In . SVG Version: 6.00 Build 0)  -->
<!DOCTYPE svg PUBLIC "-//W3C//DTD SVG 1.1//EN" "http://www.w3.org/Graphics/SVG/1.1/DTD/svg11.dtd">
<svg version="1.1" xmlns="http://www.w3.org/2000/svg" xmlns:xlink="http://www.w3.org/1999/xlink" x="0px" y="0px"
	 width="2529.088px" height="1891.836px" viewBox="0 0 2529.088 1891.836" style="enable-background:new 0 0 2529.088 1891.836;"
	 xml:space="preserve">
<g id="light-blue-glyphs">
	<g>
		<path style="fill:#1A4BA0;stroke:#010101;stroke-linecap:round;stroke-linejoin:round;" d="M2410.738,571.256l1.75-6.905
			c0,0,5-0.75,5-2.5s1.5-6.25-6.75-6.25s-19.662,0-19.581,4s2.331,4.25,5.081,5.5l2.228,7.945
			C2398.466,573.046,2400.988,570.661,2410.738,571.256z"/>
		
			<rect x="2396.488" y="613.852" style="fill:#1A4BA0;stroke:#010101;stroke-linecap:round;stroke-linejoin:round;" width="26" height="8"/>
		<polygon style="fill:#1A4BA0;stroke:#010101;stroke-linecap:round;stroke-linejoin:round;" points="2425.155,583.15 
			2434.738,578.823 2432.738,601.352 2423.96,597.286 		"/>
		<path style="fill:#1A4BA0;stroke:#010101;stroke-linecap:round;stroke-linejoin:round;" d="M2391.156,581.352l-12.084-3.5v22.25
			h14.872C2393.944,600.102,2389.824,588.352,2391.156,581.352z"/>
	</g>
	<path style="fill:#1A4BA0;stroke:#010101;stroke-linecap:round;stroke-linejoin:round;" d="M2420.412,920.352
		c0,0,1.326,25.5,2.576,29.25s1.25,13.25-3.75,13.25s-6.5-6.25-4.75-11.5s2.75-16.75,2-20.75s-1.5-10.25-1.5-10.25H2420.412z"/>
	<path style="fill:#1A4BA0;stroke:#010101;stroke-linecap:round;stroke-linejoin:round;" d="M1870.488,387.927h-39.25
		c0,0,8.25-23.576,19.625-22.826S1870.488,387.927,1870.488,387.927z"/>
	<path style="fill:#1A4BA0;stroke:#010101;stroke-linecap:round;stroke-linejoin:round;" d="M1766.738,385.207l31.25,2.72
		c0,0-3.25-25.101-13.25-25.963S1762.488,382.812,1766.738,385.207z"/>
	<path style="fill:#1A4BA0;stroke:#010101;stroke-linecap:round;stroke-linejoin:round;" d="M1939.822,344.435v9.125h46.334h2.333
		l0.667,8.183c0,0,5.776,0.699,5.805-0.387s-2.012-9.586-1.408-11.586s1.063-5.667,0-5.333s-2.73,2.5-4.73,2.333
		S1947.155,347.269,1939.822,344.435z"/>
	<path style="fill:#1A4BA0;stroke:#010101;stroke-linecap:round;stroke-linejoin:round;" d="M2003.989,343.102l-1,14.5
		c0,0,0.999,2.667,3.333,1.667s5.666-6.751,7-5.709s24,2.209,24,2.209h7v-4.471c0,0-8.166-2.862-14.666-2.529
		s-13.334,1.167-13.334,1.167s-3.089-0.333-6.711-3.833S2003.989,343.102,2003.989,343.102z"/>
</g>
<g id="Layer_1">
</g>
</svg>
