<?xml version="1.0" encoding="utf-8"?>
<!-- Generator: Adobe Illustrator 16.0.0, SVG Export Plug-In . SVG Version: 6.00 Build 0)  -->
<!DOCTYPE svg PUBLIC "-//W3C//DTD SVG 1.1//EN" "http://www.w3.org/Graphics/SVG/1.1/DTD/svg11.dtd">
<svg version="1.1" id="red-clothing" xmlns="http://www.w3.org/2000/svg" xmlns:xlink="http://www.w3.org/1999/xlink" x="0px"
	 y="0px" width="2529.088px" height="1891.836px" viewBox="0 0 2529.088 1891.836" enable-background="new 0 0 2529.088 1891.836"
	 xml:space="preserve">
<ellipse fill="#C13F27" cx="457.877" cy="404.602" rx="50.444" ry="41.667"/>
<g>
	<path fill="#C13F27" d="M508.761,491.279c0,0,5.461,8.014,3.579,12.688c-1.883,4.676-5.532,6.17-4.019,11.536
		c0,0-41.062-15.362-92.242-5.184c0,0-6.473-2.784-5.88-7.845c0.592-5.062,5.625-11.196,5.625-11.196s-7.472-4.97-6.288-7.307
		c1.185-2.337,8.658-3.215,10.138-1.169c0,0,8.882-4.338,15.396-1.146c0,0,12.143-4.661,22.948-1.173c0,0,7.845-4.618,18.799-1.295
		c0,0,11.214-2.229,15.377,0.983c0,0,1.446-3.214,9.614,0.292c0,0,15.409-1.94,13.812,3.214
		C513.291,491.198,508.761,491.279,508.761,491.279z"/>
</g>
<polyline fill="#A50D12" stroke="#000000" stroke-miterlimit="10" points="1853.984,1360.846 1872.49,1747.102 1882.988,1747.102 
	1864.488,1360.599 1853.984,1360.846 "/>
<polygon fill="#A50D12" stroke="#000000" stroke-miterlimit="10" points="1510.487,1747.102 1521.595,1746.958 1543.983,1353.602 
	1534.487,1353.602 "/>
<path fill="#A50D12" stroke="#000000" stroke-miterlimit="10" d="M1530.974,1352.786l333.516,7.812c5.178,0,18.5,3.004,16.5-11.943
	c0,0-5.5-4.051-17.509-2.764l-332.507-6.18c-5.176,0-8.378,0.274-8.378,5.537
	C1522.596,1345.249,1522.457,1352.511,1530.974,1352.786z"/>
<path fill="#A50D12" stroke="#000000" stroke-miterlimit="10" d="M1867.512,1345.939c0,0-2.022-16.396,2.478-21.721
	s27-9.822,30.5-9.822s0-15,0-15s-150.06-4.5-178.029-5s-227.971-2.5-227.971-2.5v18.5c0,0,30,1.791,34,10.646s5.5,18.966,5.5,18.966
	L1867.512,1345.939z"/>
<polygon fill="#A50D12" stroke="#000000" stroke-miterlimit="10" points="1857.995,1297.841 1852.988,1162.102 1835.989,1162.102 
	1836.987,1296.84 "/>
<path fill="#21294E" stroke="#010101" stroke-width="0.2219" stroke-linecap="round" stroke-linejoin="round" d="M1802.988,732.935
	c0,0,14-21.833,8.333-43c-5.862-21.897-22-26.063-24-25.698s-2.666-8.475-2.666-8.475h-14.667v6.505c0,0-29.002,16-30.001,36
	s11.607,40.204,37.963,40.667C1793.314,739.205,1802.988,732.935,1802.988,732.935z"/>
<path fill="#21294E" stroke="#010101" stroke-width="0.2219" stroke-linecap="round" stroke-linejoin="round" d="M1944.655,655.762
	h18.334v12.839c0,0,29.523,3.206,27,31.333c-2.525,28.128-32.666,26.753-35.334,27.876c-2.666,1.123-43.668-2.707-44.334-30.458
	s33.334-28.751,33.334-28.751L1944.655,655.762z"/>
</svg>
