<?xml version="1.0" encoding="utf-8"?>
<!-- Generator: Adobe Illustrator 15.0.0, SVG Export Plug-In . SVG Version: 6.00 Build 0)  -->
<!DOCTYPE svg PUBLIC "-//W3C//DTD SVG 1.1//EN" "http://www.w3.org/Graphics/SVG/1.1/DTD/svg11.dtd">
<svg version="1.1" id="red-clothing" xmlns="http://www.w3.org/2000/svg" xmlns:xlink="http://www.w3.org/1999/xlink" x="0px"
	 y="0px" width="2529.088px" height="1891.836px" viewBox="0 0 2529.088 1891.836" enable-background="new 0 0 2529.088 1891.836"
	 xml:space="preserve">
<path fill="#C13F27" stroke="#000000" stroke-miterlimit="10" d="M355.988,1078.074c-2.665-30.438,14.23-50.479,17.191-58.37
	c2.96-7.89-0.191-19.77,7.834-46.328c4.559-15.089,9.812-36.807,10.475-68.774c0.656-31.656-1.5-49-1.5-49s34.005-5.319,67.49-4.255
	c30.22,0.961,60.388,8.236,58.175,9.588c-4.663,2.849-8.964,50.353-6.166,67.447c2.798,17.094,8.221,41.192,6,58.505
	s-10.443,30.563-6.892,43.274l15.392,58.465c0,0-14.667,180.766-16,214.475c-1.391,35.188-1.408,34.584-6,88l10.161,238.758
	l-153.656-10.605c0,0-1.668-145.489,0.996-165.651c2.663-20.162,12.721-65.004,10.5-97c-2.222-31.997-5.729-124.815-6.175-158.565
	c-0.443-33.75,1.333-58.732,1.333-67.5C365.146,1121.77,358.126,1102.485,355.988,1078.074z"/>
<ellipse fill="#C13F27" cx="457.877" cy="404.602" rx="50.444" ry="41.667"/>
<g>
	<path fill="#C13F27" d="M508.761,491.279c0,0,5.461,8.014,3.579,12.688c-1.883,4.676-5.532,6.17-4.019,11.536
		c0,0-41.062-15.362-92.242-5.184c0,0-6.473-2.784-5.88-7.844c0.592-5.062,5.625-11.197,5.625-11.197s-7.472-4.969-6.288-7.306
		c1.185-2.337,8.658-3.215,10.138-1.169c0,0,8.882-4.338,15.396-1.146c0,0,12.143-4.661,22.948-1.173c0,0,7.845-4.618,18.799-1.295
		c0,0,11.214-2.229,15.377,0.984c0,0,1.446-3.214,9.614,0.292c0,0,15.409-1.941,13.812,3.214
		C513.291,491.198,508.761,491.279,508.761,491.279z"/>
</g>
<polyline fill="#A50D12" stroke="#000000" stroke-miterlimit="10" points="1853.984,1360.846 1872.49,1747.102 1882.988,1747.102 
	1864.488,1360.599 1853.984,1360.846 "/>
<polygon fill="#A50D12" stroke="#000000" stroke-miterlimit="10" points="1510.487,1747.102 1521.595,1746.958 1543.983,1353.602 
	1534.487,1353.602 "/>
<path fill="#A50D12" stroke="#000000" stroke-miterlimit="10" d="M1530.974,1352.786l333.515,7.812c5.178,0,18.5,3.003,16.5-11.944
	c0,0-5.5-4.051-17.509-2.763l-332.506-6.18c-5.176,0-8.378,0.274-8.378,5.537
	C1522.596,1345.249,1522.457,1352.511,1530.974,1352.786z"/>
<path fill="#A50D12" stroke="#000000" stroke-miterlimit="10" d="M1867.512,1345.94c0,0-2.023-16.397,2.477-21.721
	s27-9.822,30.5-9.822s0-15,0-15s-150.059-4.5-178.029-5c-27.97-0.5-227.971-2.5-227.971-2.5v18.5c0,0,30,1.791,34,10.646
	c4,8.855,5.5,18.966,5.5,18.966L1867.512,1345.94z"/>
<polygon fill="#A50D12" stroke="#000000" stroke-miterlimit="10" points="1857.995,1297.841 1852.988,1162.102 1835.989,1162.102 
	1836.987,1296.84 "/>
</svg>
