<?xml version="1.0" encoding="iso-8859-1"?>
<!-- Generator: Adobe Illustrator 15.0.0, SVG Export Plug-In . SVG Version: 6.00 Build 0)  -->
<!DOCTYPE svg PUBLIC "-//W3C//DTD SVG 1.1//EN" "http://www.w3.org/Graphics/SVG/1.1/DTD/svg11.dtd">
<svg version="1.1" xmlns="http://www.w3.org/2000/svg" xmlns:xlink="http://www.w3.org/1999/xlink" x="0px" y="0px"
	 width="2529.088px" height="1891.836px" viewBox="0 0 2529.088 1891.836" style="enable-background:new 0 0 2529.088 1891.836;"
	 xml:space="preserve">
<g id="red-glyphs">
	<path style="fill:#C13F27;stroke:#000000;stroke-miterlimit:10;" d="M733.077,171.471c0,0-4.152-9.343-11.765,0
		s8.65,28.029-1.384,29.759s-15.225-8.997-15.225-8.997s10.035-6.574,10.035-15.225s-6.574-19.464-21.8-19.464
		s-22.838,9.719-22.838,17.533s-12.803,17.502-12.803,17.502s11.419-0.692,13.841-4.844l1.384-1.73c0,0,11.073,12.111,26.645,8.997
		c0,0,3.806,10.202,19.724,11.502s12.803-12.771,12.111-16.981s2.076-16.322,2.076-16.322V171.471z"/>
	<path style="fill:#C13F27;stroke:#000000;stroke-miterlimit:10;" d="M661.835,312.305c0,0-0.387,11.64,11.378,12.395
		s12.458-9.28,13.149-11.356s-1.691-11.717-12.265-11.741S661.835,312.305,661.835,312.305z"/>
	<polygon style="fill:#C13F27;stroke:#000000;stroke-miterlimit:10;" points="719.928,425.852 731.001,425.852 731.001,397.621 
		721.658,393.352 	"/>
	<path style="fill:#C13F27;stroke:#000000;stroke-miterlimit:10;" d="M692.938,425.852v-28.231l-13.149-2.615l1.73,28.721
		C681.519,423.727,682.903,425.554,692.938,425.852z"/>
	<polygon style="fill:#C13F27;stroke:#000000;stroke-miterlimit:10;" points="713.354,425.852 713.354,360.761 731.001,359.019 
		731.001,355.904 706.779,346.215 706.779,425.852 	"/>
	<polygon style="fill:#C13F27;stroke:#000000;stroke-miterlimit:10;" points="670.099,422.688 673.213,356.25 694.667,356.25 
		694.667,350.714 665.601,340.602 663.179,422.688 	"/>
	<path style="fill:#C13F27;stroke:#000000;stroke-miterlimit:10;" d="M642.763,422.688v-23.184l-9.343-1.884
		C633.42,397.621,626.153,428.225,642.763,422.688z"/>
	<path style="fill:#C13F27;stroke:#000000;stroke-miterlimit:10;" d="M623.039,422.688l2.422-61.928l21.108-6.586v-5.754
		l-31.143-11.201l-4.152,84.432C611.274,421.65,615.771,424.072,623.039,422.688z"/>
	<path style="fill:#C13F27;stroke:#000000;stroke-miterlimit:10;" d="M859.655,180.935c0,0-6.667,9,0,14.667
		s18.334,1.667,15.667-11.333c0,0-4.334,6.841-9.667,5.254S859.655,180.935,859.655,180.935z"/>
	<path style="fill:#C13F27;stroke:#000000;stroke-miterlimit:10;" d="M838,185.602l-4.641,12.508h-9.037c0,0-4.334-12.825-12.667,0
		s-5,7.492-7.667,6.159s1.333-23.333,1.333-23.333l0.333-5c0,0,7.333-23.667,11-22.667s14,18,15,22.333S838,185.602,838,185.602z"/>
	<path style="fill:#C13F27;stroke:#000000;stroke-miterlimit:10;" d="M769.488,438.102l2.481-6.5l102.824,4.344l-8.806-13.844
		c0,0-90.537-3.5-94.019-8v-3l100.019,6l13,23.5L769.488,438.102z"/>
	<path style="fill:#C13F27;stroke:#000000;stroke-miterlimit:10;" d="M813.988,535.602l-49-3.804c0,0,8.5-30.625,29.5-26.911
		S813.988,535.602,813.988,535.602z"/>
	<path style="fill:#C13F27;stroke:#000000;stroke-miterlimit:10;" d="M834,524.031c0,0,2.045,18.213,18.877,18.213
		c16.832,0,21.974-12.682,21.974-18.213c0-5.53-1.262-24.78-20.425-24.78C835.263,499.251,833.58,516.426,834,524.031z"/>
	<path style="fill:#C13F27;stroke:#000000;stroke-miterlimit:10;" d="M651.988,1219.269c0,0-4.333-29-12.333-33
		c0,0-2.334-1.895-2.667,2.386s-2.333,47.947-2.333,47.947s2.667,1.667,6,1.667s47.333-1.333,57,0s40.667,2.334,40.667,0s0-11,0-11
		l-16.667-43l-14,42l11-0.667c0,0,1.333-16.933,5.667-13.633s7,14.3,7,14.3s0.667,5.332-3.667,3.666s-8.333-4.002-8.333-4.002
		s-10-0.998-15.667,0.669S670.988,1230.603,651.988,1219.269z"/>
	<path style="fill:#C13F27;stroke:#000000;stroke-miterlimit:10;" d="M723.488,1627.852c0,0-1.5-18-9-18s-11,17-9.5,18
		S723.488,1627.852,723.488,1627.852z"/>
	<path style="fill:#C13F27;stroke:#000000;stroke-miterlimit:10;" d="M1434.656,1644.935c0,0,0.26-0.509,0.643-1.375
		c1.782-4.041,6.22-15.841-0.643-19.958c0,0-13,3.999-10,15.333s5,6,5,6s-2.412-6.667,1.627-7.5
		C1431.283,1637.435,1435.99,1638.268,1434.656,1644.935z"/>
	<polygon style="fill:#C13F27;stroke:#000000;stroke-miterlimit:10;" points="1439.988,1567.102 1439.988,1576.104 
		1353.008,1572.714 1330.988,1570.602 1347.488,1547.881 1406.488,1547.881 1413.988,1553.85 1354.488,1553.974 1348.488,1563.994 	
		"/>
	<path style="fill:#C13F27;stroke:#000000;stroke-miterlimit:10;" d="M1333.989,1416.602c0,0,6.999-29.334,17.333-28.667
		s19,29.808,19,29.808S1347.989,1423.936,1333.989,1416.602z"/>
	<path style="fill:#C13F27;stroke:#000000;stroke-miterlimit:10;" d="M1409.989,1411.935c0,0,3.999,14.667,17.333,14.667
		s15.028-9.334,15.028-14.667s-1-21-16.181-21S1409.656,1404.601,1409.989,1411.935z"/>
	<path style="fill:#C13F27;stroke:#000000;stroke-miterlimit:10;" d="M1345.322,1244.357l99,3.41c0,0,2.834-7.814,1.667-9.157
		s-81.834-5.009-81.834-5.009s-3.5-3.988-4-8.494s-1.333-6.34-1.333-6.34h-15.333
		C1343.489,1218.768,1341.468,1244.225,1345.322,1244.357z"/>
	<path style="fill:#C13F27;stroke:#000000;stroke-miterlimit:10;" d="M1357.989,1217.435c0,0-1.333-22.499-11-25.833
		s-4.03,15.333-4.03,15.333s-0.97,11.166,2.03,11.833S1357.156,1219.102,1357.989,1217.435z"/>
	<path style="fill:#C13F27;stroke:#000000;stroke-miterlimit:10;" d="M1445.155,1237.029l-15.5-45.826c0,0-4.166-1.565-4.833,0
		s-7,38.756-7,38.756l4.5,1.893l6.333-23.083l10.834,28.261l5.666,1.259V1237.029z"/>
	<path style="fill:#C13F27;stroke:#000000;stroke-miterlimit:10;" d="M1663.354,1078.602c0,0,3.97-12.999-3.031-12.333
		s-4.335,12.333-3.668,12.333s-5.666,2-5.666,2h9.334c0,0,7,0.333,9.666-2H1663.354z"/>
	<path style="fill:#C13F27;stroke:#000000;stroke-miterlimit:10;" d="M1582.322,864.985c0,0,1.334-10.717,3.667-12.05
		s-16.137,1-18.235,0s5.568,6.333,6.568,9s11.87,22.315,11.87,22.315s6.796,13.432,25.463,13.392s40.916,2.293,51.958-6.374
		s9.151-30,9.151-30s-0.516-8.513,1.188-8.756s-15.963,0-15.963,0l3.666,12.474C1661.655,864.985,1622.989,856.703,1582.322,864.985
		z"/>
	<path style="fill:#C13F27;stroke:#000000;stroke-miterlimit:10;" d="M1679.988,756.269v-34.667v-8.5c0,0-1.322-8-6.036-7.75
		c-2.315,0.123-5.905,8.225-8.959,16.438c-3.165,8.512-5.755,17.145-5.755,17.145s-45.75,6.181-49.5,7.924s3.75,9.075,27.25,8.409
		S1679.988,758.186,1679.988,756.269z"/>
	<path style="fill:#C13F27;stroke:#000000;stroke-miterlimit:10;" d="M1417.988,464.602c0,0-1.333-26.333-15.333-27.333
		s-18,27.333-18,27.333H1417.988z"/>
	<ellipse style="fill:#C13F27;stroke:#000000;stroke-miterlimit:10;" cx="1318.608" cy="459.101" rx="16.874" ry="16.5"/>
	<path style="fill:#C13F27;stroke:#000000;stroke-miterlimit:10;" d="M1307.321,517.602c0,0,17.667-10,46.032-10
		s44.968,10,44.968,10C1349.987,542.602,1307.321,517.602,1307.321,517.602z M1385.655,518.157c0,0-19.306-9.111-61.986,0
		c0,0,28.986,10.556,63.986,0"/>
	<path style="fill:#C13F27;stroke:#000000;stroke-miterlimit:10;" d="M1513.727,482.589l-2.736,49.257c0,0,3.771,4.216,6.768,4.382
		c2.995,0.167,18.046-0.333,18.046-0.333l3.181-33.208l-15.218-2.515l-0.721-17.066L1513.727,482.589z"/>
	<path style="fill:#C13F27;stroke:#000000;stroke-miterlimit:10;" d="M1485.488,324.935c0,0,7.499,9.167,6.833,14.667
		s-6.166,7-12.166,6.5s-10.168-5.667-9.834-6.5s-0.833-0.333-0.833-0.333l0.833-8.666l2.667-0.442l3.5-7.058
		c0,0-3.001-4.167-6.167-4l3.334-1l-0.167-3.167l-4-1l22.875,1c0,0,1.208,5.166,0,6.333s-6.209-1-6.542,1.333
		S1485.488,324.935,1485.488,324.935z"/>
	<path style="fill:#C13F27;stroke:#000000;stroke-miterlimit:10;" d="M1552.821,159.602c0,0,8.001,26.667,5.834,30.5
		s-7.168,6.333-10.834,4.333s-6.167-8.334-4-15.667S1552.821,159.602,1552.821,159.602z"/>
	<ellipse style="fill:#C13F27;stroke:#000000;stroke-miterlimit:10;" cx="2376.488" cy="1086.852" rx="9.5" ry="8.75"/>
	<ellipse style="fill:#C13F27;stroke:#000000;stroke-miterlimit:10;" cx="2412.287" cy="1091.688" rx="8.125" ry="7.375"/>
	<path style="fill:#C13F27;stroke:#000000;stroke-miterlimit:10;" d="M2414.988,1120.602c0,0,3.75,13,3.25,16.25
		s-3.25,7.25-3.25,7.25h-4.25c0,0-4.5-8.25-3.5-11.75s3.5-11.75,3.5-11.75H2414.988z"/>
	<path style="fill:#C13F27;stroke:#000000;stroke-miterlimit:10;" d="M2377.488,1212.602h19.25c0,0-3.479-14.992-9.625-15
		C2377.488,1197.59,2377.488,1212.602,2377.488,1212.602z"/>
	<path style="fill:#C13F27;stroke:#000000;stroke-miterlimit:10;" d="M1871.738,287.102v5.928c0,0-41.5-5.957-46-23.817
		s15.75-20.61,20-14.11s-3.25,14.25-7,12.75s-4.75-5.25-3.75-6.25c0,0,3.998,2.749,5,1.75c3.26-3.25-7.101-8.25-7.426-0.75
		S1832.238,278.852,1871.738,287.102z"/>
	<path style="fill:#C13F27;stroke:#000000;stroke-miterlimit:10;" d="M1822.019,405.852c27.256-0.25,46.72,11,46.72,13
		s-8.5,9.75-46.75,10.5s-61.25-11.75-61.25-11.75c4.75-8.5,53-11.754,53-11.754L1822.019,405.852z M1815.76,412.176
		c0,0-42.521,3.704-40.271,5.439s29,7.986,45.25,6.736s37-3,34.75-5S1838.118,412.176,1815.76,412.176z"/>
	<path style="fill:#C13F27;stroke:#000000;stroke-miterlimit:10;" d="M1863.488,478.102c0,0-21.25-6-43-7.5s-53.75,1.25-53.75,1.25
		s22.512,13,51.006,12.25S1863.488,478.102,1863.488,478.102z"/>
	<path style="fill:#C13F27;stroke:#000000;stroke-miterlimit:10;" d="M1829.362,450.102c0,0,4.87,7.25,4.123,8.75
		s-1.747,1.25-10.247,1s-17.25,0.25-18-2s4.512-17.546,12.506-16.148S1829.362,450.102,1829.362,450.102z"/>
	<path style="fill:#C13F27;stroke:#000000;stroke-miterlimit:10;" d="M1940.822,287.269l1.167,34.333c0,0,0.507,9.111,5.667,9.667
		c7.833,0.844,29.5,4.333,23.333-9.833S1940.154,267.619,1940.822,287.269z"/>
	<path style="fill:#C13F27;stroke:#000000;stroke-miterlimit:10;" d="M1994.489,392.435c-18,0.003-55.333-7-56.5-9.333
		s30.667-11.5,56.5-12.5s47.327,13.333,47.327,13.333C2030.156,391.102,2008.322,392.433,1994.489,392.435z M2031.489,383.435
		c0,0-13.833-7.167-35.833-7.167s-40.834,7.167-40.834,7.167S2003.322,393.769,2031.489,383.435z"/>
	<polygon style="fill:#C13F27;stroke:#000000;stroke-miterlimit:10;" points="2035.901,499.602 2034.656,493.935 1967.656,491.268 
		1967.656,497.935 	"/>
</g>
<g id="Layer_1">
</g>
</svg>
