<?xml version="1.0" encoding="utf-8"?>
<!-- Generator: Adobe Illustrator 16.0.0, SVG Export Plug-In . SVG Version: 6.00 Build 0)  -->
<!DOCTYPE svg PUBLIC "-//W3C//DTD SVG 1.1//EN" "http://www.w3.org/Graphics/SVG/1.1/DTD/svg11.dtd">
<svg version="1.1" id="Layer_1" xmlns="http://www.w3.org/2000/svg" xmlns:xlink="http://www.w3.org/1999/xlink" x="0px" y="0px"
	 width="2529.088px" height="1891.836px" viewBox="0 0 2529.088 1891.836" enable-background="new 0 0 2529.088 1891.836"
	 xml:space="preserve">
<g id="white_x5F_clothing">
	<path fill="#FFFFFF" stroke="#000000" stroke-miterlimit="10" d="M1180.962,1062.542c0,0,57.692,230.937,53.026,271.164h-225.333
		c0,0,84.137-13.191,123.067-72.481C1170.654,1201.936,1185.936,1098.482,1180.962,1062.542z"/>
	<path fill="#FFFFFF" stroke="#000000" stroke-miterlimit="10" d="M1014.655,295.602c0,0-6.348-13.979-9.896-22.86
		c-3.547-8.889-13.36-44.866,15.896-50.951c29.252-6.089,25.962,27.526,24.667,38.478c-1.294,10.943-13.333,25.551,3.333,35.667
		c16.673,10.113,106.792,47.049,117.275,123.909c0,0-55.635,9.998-105.608-14.242
		C990.226,371.602,1014.655,295.602,1014.655,295.602z"/>
	<path fill="#FFFFFF" stroke="#000000" stroke-miterlimit="10" d="M474.003,371.964c0,0-3.947-166.342-3.947-210.363
		c0-30.244-1.833-54.646,36.144-54.646c39.442,0,36.467,42.646,36.467,42.646l26.102,327l-101.245,1.925L474.003,371.964z"/>
	<path fill="#FFFFFF" stroke="#000000" stroke-miterlimit="10" d="M442.252,166.602c0,0,6.559-58.333-34.82-58.333
		c-44.557,0-42.848,43.924-42.848,43.924L353.26,475.462h86.823L442.252,166.602z"/>
	<path fill="#FFFFFF" stroke="#000000" stroke-miterlimit="10" d="M1105.479,678.436l47.677,9.666
		c14.453-7.227,29.647-27.354,37.803-40c0,0,4.608-10.882,8.697-26.167c4.089-15.284,7.866-24.143,9.85-26.654
		c1.984-2.513-9.791-16.72-15.814-20.373c-6.024-3.654-8.803-8.754-18.335-8.034l-52.031,4.084c0,0-37.835,3.224-45.835,48.938
		C1069.921,663.14,1105.479,678.436,1105.479,678.436z"/>
</g>
<g id="Layer_1_1_">
</g>
<path fill="#FFCB06" stroke="#000000" stroke-miterlimit="10" d="M1178.256,1062.542c0,0,13.86-11.646-3.204,76.54
	c-17.063,88.186-39.063,167.062-166.396,194.624l15.804-146.587c0,0-13.982-30.66-8.227-68.589
	c5.755-37.929,10.256-74.929,10.256-74.929S1137.988,1052.082,1178.256,1062.542z"/>
<path fill="#FAC53A" stroke="#010101" stroke-linecap="round" stroke-linejoin="round" d="M2328.238,1079.102
	c0.75,22.75,14.25,102.25,14.25,102.25c3.5,13-1.25,28-7.75,44.75s0.5,71.25,2,83.5s14,35.25,14,35.25l-349.75-8.5l175.604-268.75
	l0,0c0,0,32.126,4.747,147.56-7.168C2324.15,1060.433,2327.488,1056.352,2328.238,1079.102z"/>
</svg>
