<?xml version="1.0" encoding="iso-8859-1"?>
<!-- Generator: Adobe Illustrator 15.0.0, SVG Export Plug-In . SVG Version: 6.00 Build 0)  -->
<!DOCTYPE svg PUBLIC "-//W3C//DTD SVG 1.1//EN" "http://www.w3.org/Graphics/SVG/1.1/DTD/svg11.dtd">
<svg version="1.1" xmlns="http://www.w3.org/2000/svg" xmlns:xlink="http://www.w3.org/1999/xlink" x="0px" y="0px"
	 width="2529.088px" height="1891.836px" viewBox="0 0 2529.088 1891.836" style="enable-background:new 0 0 2529.088 1891.836;"
	 xml:space="preserve">
<g id="white_x5F_clothing">
	<path style="fill:#FFFFFF;stroke:#000000;stroke-miterlimit:10;" d="M1180.962,1062.542c0,0,57.692,230.936,53.026,271.164
		h-225.333c0,0,84.137-13.191,123.068-72.481S1185.936,1098.482,1180.962,1062.542z"/>
	<path style="fill:#FFFFFF;stroke:#000000;stroke-miterlimit:10;" d="M1014.655,295.602c0,0-6.347-13.979-9.896-22.86
		c-3.547-8.889-13.361-44.866,15.896-50.951c29.252-6.089,25.962,27.526,24.667,38.478c-1.294,10.943-13.333,25.551,3.333,35.667
		c16.673,10.113,106.792,47.049,117.276,123.909c0,0-55.635,9.998-105.609-14.242
		C990.226,371.602,1014.655,295.602,1014.655,295.602z"/>
	<path style="fill:#FFFFFF;stroke:#000000;stroke-miterlimit:10;" d="M474.003,371.964c0,0-3.947-166.342-3.947-210.363
		c0-30.244-1.833-54.646,36.144-54.646c39.442,0,36.467,42.646,36.467,42.646l26.102,327l-101.245,1.924L474.003,371.964z"/>
	<path style="fill:#FFFFFF;stroke:#000000;stroke-miterlimit:10;" d="M442.252,166.602c0,0,6.559-58.333-34.82-58.333
		c-44.557,0-42.848,43.924-42.848,43.924l-11.324,323.269h86.823L442.252,166.602z"/>
	<path style="fill:#FFFFFF;stroke:#000000;stroke-miterlimit:10;" d="M1105.478,678.436l47.677,9.666
		c14.453-7.227,29.648-27.355,37.803-40c0,0,4.608-10.882,8.697-26.167s7.866-24.143,9.85-26.655s-9.791-16.719-15.815-20.373
		s-8.802-8.754-18.335-8.034l-52.031,4.084c0,0-37.835,3.224-45.835,48.938C1069.921,663.14,1105.478,678.436,1105.478,678.436z"/>
</g>
<g id="Layer_1">
</g>
</svg>
