<?xml version="1.0" encoding="iso-8859-1"?>
<!-- Generator: Adobe Illustrator 15.0.0, SVG Export Plug-In . SVG Version: 6.00 Build 0)  -->
<!DOCTYPE svg PUBLIC "-//W3C//DTD SVG 1.1//EN" "http://www.w3.org/Graphics/SVG/1.1/DTD/svg11.dtd">
<svg version="1.1" xmlns="http://www.w3.org/2000/svg" xmlns:xlink="http://www.w3.org/1999/xlink" x="0px" y="0px"
	 width="2529.088px" height="1891.836px" viewBox="0 0 2529.088 1891.836" style="enable-background:new 0 0 2529.088 1891.836;"
	 xml:space="preserve">
<g id="white-glyphs">
	<g>
		<g>
			<polygon style="fill:#FFFFFF;stroke:#000000;stroke-miterlimit:10;" points="835.519,530.586 847.886,520.747 837.025,510.053 
				844.883,499.911 856.302,515.86 869.454,505.043 874.794,514.859 863.136,520.747 872.792,532.056 863.448,538.971 
				855.409,527.489 844.194,540.205 			"/>
		</g>
	</g>
	<polygon style="fill:#FFFFFF;stroke:#000000;stroke-miterlimit:10;" points="1414.364,1420.186 1420.989,1408.768 
		1412.386,1398.455 1420.989,1391.57 1427.656,1404.055 1436.489,1394.589 1441.513,1404.055 1434.656,1408.768 1441.513,1417.742 
		1436.489,1424.41 1426.949,1415.269 1421.656,1424.41 	"/>
	<path style="fill:#FFFFFF;stroke:#000000;stroke-miterlimit:10;" d="M1602.644,1015.961v-13.349c0,0-14.732-2.35-17.322-1.433
		s0,14.781,0,14.781H1602.644z"/>
	<polygon style="fill:#FFFFFF;stroke:#000000;stroke-miterlimit:10;" points="1661.828,730.302 1679.988,732.935 1679.988,721.602 
		1665.417,720.669 	"/>
	<path style="fill:#FFFFFF;stroke:#000000;stroke-miterlimit:10;" d="M1303.655,228.861"/>
	<path style="fill:#FFFFFF;stroke:#000000;stroke-miterlimit:10;" d="M1323.669,459.102c0,0,8.319-5.167,4.986-6.167
		s-6.667-3.333-8.667,0s-3,2.218-3,2.218l-5.333-3.948c0,0-4.001,3.396-4.334,5.729s8.333,1.36,7.667,3.013
		s-0.705,2.987-2.186,4.653s1.519,3.333,2.186,3.667s3.238-2.667,3.619-3.667s2.408,1.333,5.062,2s5.653-2,4.986-3.667
		S1323.669,459.102,1323.669,459.102z"/>
</g>
<g id="Layer_1">
</g>
</svg>
