<?xml version="1.0" encoding="iso-8859-1"?>
<!-- Generator: Adobe Illustrator 15.0.0, SVG Export Plug-In . SVG Version: 6.00 Build 0)  -->
<!DOCTYPE svg PUBLIC "-//W3C//DTD SVG 1.1//EN" "http://www.w3.org/Graphics/SVG/1.1/DTD/svg11.dtd">
<svg version="1.1" xmlns="http://www.w3.org/2000/svg" xmlns:xlink="http://www.w3.org/1999/xlink" x="0px" y="0px"
	 width="2529.088px" height="1891.836px" viewBox="0 0 2529.088 1891.836" style="enable-background:new 0 0 2529.088 1891.836;"
	 xml:space="preserve">
<g id="white_x5F_top">
	<g>
		<path style="fill:#FFFFFF;stroke:#000000;stroke-miterlimit:10;" d="M1853.984,1337.994c0,0-0.996-22.058,14.502-25.392
			s15.498-3.334,15.498-3.334l0.005-2.999l-379.338-6.427v2.76c0,0,25.008,0,30.837,10s6.54,18.666,6.54,18.666L1853.984,1337.994z"
			/>
	</g>
	<path style="fill:#FFFFFF;" d="M521.323,598.636c0,0-1.423-1.744,0-5.701l-8.334,2.85L521.323,598.636z"/>
	<path style="fill:#FFFFFF;" d="M530.988,600.602c0,0,1.96-0.847,2.333-3.932l4.333,3.932H530.988z"/>
	<path style="fill:#FFFFFF;" d="M2180.97,610.602c0,0-6.976,1.285-8.981,0s4.49-7.251,4.49-7.251S2178.246,608.641,2180.97,610.602z
		"/>
	<path style="fill:#FFFFFF;" d="M2192.588,608.288c0,0-0.154-8.104-2.368-7.867c0,0,6.115,1.589,10.172,5.682L2192.588,608.288z"/>
	<path style="fill:#FFFFFF;stroke:#000000;stroke-miterlimit:10;" d="M2251.513,443.269c0,0,38.809-1.334,43.809-3.667
		s4-27.333,0-48.333s-23-102-24-107.667s-9.249-43.638,4.417-46.971c0,0,10.2-8.229-2.75-8.229c-7.639,0-10.026,0.575-19.665-0.034
		s-25.336-3.166-25.002,0.034s10.334,8.866,11.334,15.2s-4.334,38-6.667,48s-31.666,144.333-23.333,146
		S2242.988,442.602,2251.513,443.269z"/>
</g>
<g id="Layer_1">
</g>
</svg>
