<?xml version="1.0" encoding="iso-8859-1"?>
<!-- Generator: Adobe Illustrator 15.0.0, SVG Export Plug-In . SVG Version: 6.00 Build 0)  -->
<!DOCTYPE svg PUBLIC "-//W3C//DTD SVG 1.1//EN" "http://www.w3.org/Graphics/SVG/1.1/DTD/svg11.dtd">
<svg version="1.1" id="yellow_x5F_top" xmlns="http://www.w3.org/2000/svg" xmlns:xlink="http://www.w3.org/1999/xlink" x="0px"
	 y="0px" width="2529.088px" height="1891.836px" viewBox="0 0 2529.088 1891.836"
	 style="enable-background:new 0 0 2529.088 1891.836;" xml:space="preserve">
<path style="fill:#FFCB06;stroke:#000000;stroke-miterlimit:10;" d="M2166.485,556.619c0,0-9.497,5.482-12.747,1.982
	s-0.602-9.75,3.199-15s7.584-10.25,2.442-15.25s-14.392-11.5-17.892-5.75c-2.115,3.476,3.533,6.312,8.332,8.012
	c3.141,1.112,5.918,1.738,5.918,1.738s-9-1.25-11.25,15.75s7.398,18.75,12.449,18.25s9.548-3.25,9.548-3.25V556.619z"/>
<g>
	<path style="fill:#FFCB06;stroke:#000000;stroke-miterlimit:10;" d="M2165.843,568.545c0,0,46.193-2.252,55.193,11.748
		s9,24.25,9,24.25h-10.5c0,0-2-21.5-22.75-23.75s-31.003-0.75-31.003-0.75L2165.843,568.545z"/>
	<path style="fill:#FFFFFF;stroke:#000000;stroke-miterlimit:10;" d="M2196.488,600.602"/>
	<path style="fill:none;stroke:#FFFFFF;stroke-miterlimit:10;" d="M2119.988,642.268"/>
</g>
<path style="fill:#FFCB06;stroke:#000000;stroke-miterlimit:10;" d="M2243.655,604.543c0,0-11.333-12.942-5-24.275
	s32.146-15.333,32.239,4s-6.906,28.905-6.906,28.905l10.333,24.762l-16.666-24.762
	C2257.655,613.173,2246.655,604.484,2243.655,604.543z"/>
<path style="fill:#FFCB06;stroke:#000000;stroke-miterlimit:10;" d="M2253.438,385.269c0,0-34.616-22.833-54.45-35.667
	s-48-38-46.5-50s11.166-10.5,10.833-5.667s-2.833,1.794-2.833,1.794s-4.5-0.294-4,4.372s17.666,3.177,16.166-9.745
	s-28.5-16.166-28.333,5.373s39.333,57.206,67.333,74.206s28.354,17.992,28.354,17.992s7.257-2.659,13.988-2.649"/>
<path style="fill:#FFCB06;stroke:#000000;stroke-miterlimit:10;" d="M2248.65,269.27v-2.001v-39.28h11.005v41.281
	C2259.655,269.27,2254.146,268.77,2248.65,269.27z"/>
<path style="fill:#FFCB06;stroke:#000000;stroke-miterlimit:10;" d="M1122.011,341.836c0,0,46.406-36.221,77.644-96.901
	c0,0-26.87,1.667-23.333-16c2.288-11.43,35-9.206,29.943,10.664c0,0,1.066,10.079-2.61,17.002
	c-6.049,11.411-34.441,52.574-73.194,91.818C1130.461,348.42,1130.611,347.886,1122.011,341.836z"/>
<path style="fill:#FFCB06;stroke:#000000;stroke-miterlimit:10;" d="M1183.488,564.769c0,0,13.595,5.666,14.381-1.667
	s-10.547-23.333-4.047-30.167s12.833-9.167,15.833-3.5s-11,8.167-9.833,11.5s7.856,22.358,1.333,30.394
	c-4.957,6.106-5.599,4.592-5.599,4.592S1177.655,566.602,1183.488,564.769z"/>
<path style="fill:#FEEE00;stroke:#000000;stroke-miterlimit:10;" d="M1672.74,1252.24c0,9.707-7.481,14.761-18.251,14.761
	c-10.771,0-17.499-7.868-17.499-17.575c0-9.706,6.729-17.574,17.499-17.574c9.422,0,16.283,5.021,18.104,13.027
	C1672.853,1246.024,1672.74,1251.025,1672.74,1252.24z"/>
<path style="fill:#FEEE00;stroke:#000000;stroke-miterlimit:10;" d="M1765.997,1234.188c0,0,2.601,9.08-8.363,7.747
	s-18.148-8.285-12.854-10.976C1750.072,1228.27,1765.997,1234.188,1765.997,1234.188z"/>
<path style="fill:#FEEE00;stroke:#000000;stroke-miterlimit:10;" d="M1747.369,1264.146c0,0-8.311-6.878,0-9.545
	c8.14-2.612,21.59-1.655,18.513,9.006C1765.882,1263.607,1757.262,1266.305,1747.369,1264.146z"/>
<path style="fill:#FEEE00;stroke:#000000;stroke-miterlimit:10;" d="M1547.998,1259.182c0,0,3.9-5.569,12.279-4.408
	s9.857,6.119,9.857,6.119S1559.007,1268.429,1547.998,1259.182z"/>
<path style="fill:#FEEE00;stroke:#000000;stroke-miterlimit:10;" d="M1572.48,1229.471c0,0-2.158,8.798-9.491,9.131
	s-14.915-9.131-14.915-9.131S1558.305,1220.007,1572.48,1229.471z"/>
</svg>
