<?xml version="1.0" encoding="iso-8859-1"?>
<!-- Generator: Adobe Illustrator 15.0.0, SVG Export Plug-In . SVG Version: 6.00 Build 0)  -->
<!DOCTYPE svg PUBLIC "-//W3C//DTD SVG 1.1//EN" "http://www.w3.org/Graphics/SVG/1.1/DTD/svg11.dtd">
<svg version="1.1" xmlns="http://www.w3.org/2000/svg" xmlns:xlink="http://www.w3.org/1999/xlink" x="0px" y="0px"
	 width="2529.088px" height="1891.836px" viewBox="0 0 2529.088 1891.836" style="enable-background:new 0 0 2529.088 1891.836;"
	 xml:space="preserve">
<g id="yellow-clothing">
	<path style="fill:#FAC53A;stroke:#010101;stroke-linecap:round;stroke-linejoin:round;" d="M2328.238,1079.102
		c0.75,22.75,14.25,102.25,14.25,102.25c3.5,13-1.25,28-7.75,44.75s0.5,71.25,2,83.5s14,35.25,14,35.25l-349.75-8.5l175.604-268.75
		l0,0c0,0,32.126,4.747,147.559-7.169C2324.15,1060.433,2327.488,1056.352,2328.238,1079.102z"/>
	<path style="fill:#FFCB06;stroke:#000000;stroke-miterlimit:10;" d="M2326.286,1060.148c0,0,12.703,99.926,16.202,121.203
		s-3.854,34.139-8.937,48.872s-0.676,41.316,1.818,67.948s15.368,46.68,15.368,46.68l17.75,50.25c0,0,38,101.5,54,150.5
		s31.5,154.5,31.5,154.5h17.5l-42.5-158c0,0-22.5-70.5-34.5-101s-20-70.5-36.5-98.75s-16.25-84.75-17.25-98.75s7-21.5,10-36.5
		s-6-49.5-9.25-60s-8.5-86.953-8.5-86.953s6.5-101.047,7.5-105.047s-5.998-2.653-6.292,0
		C2333.902,957.753,2330.489,1055.101,2326.286,1060.148z"/>
	<path style="fill:#FFCB06;stroke:#000000;stroke-miterlimit:10;" d="M2280.329,441.704h36.825c0,0-4.166-55.602-14.916-96.852
		s-12.75-54-11.5-55.875s2-3.625,5.25-3.125s12.758-9.029,2.754-16.64s-19.803-0.746-29.278,5.197h-33.198
		c0,0-6.527-11.315-19.277-8.561s-15,17.004-4.75,20.004c0,0,3.25-1.494,0.5,9.878s-32.417,139.372-17.75,140.622
		s33.509,4.184,33.509,4.184L2280.329,441.704z"/>
	<path style="fill:#FFCB06;stroke:#000000;stroke-miterlimit:10;" d="M2191.377,430.081c0,0-8.639,7.479-14.139,0
		s18.027-31.979,14.139-39.479s-6.889-9-3.889-13.25s5.488-14.25-3.381-15.5s-14.295,8.5-7.707,13.5l0.838,2.75
		c0,0-7.75-2.25-7.5,1.5s8.5,8.75,7.25,11.75s-12.148,27.355-8.75,36.75c4.25,11.75,9.25,10.018,12.25,10
		c9.003-0.053,14.5-1.75,14.5-1.75L2191.377,430.081z"/>
	<path style="fill:#FFCB06;stroke:#000000;stroke-miterlimit:10;" d="M2316.191,430.88c0,0,19.047,5.721,16.797-6.529
		s-3.613-19.51-8.307-24.38s-5.943-14.37-1.193-17.87s-1.25-4.5-3-7.25s-2-11.219,5-13.109s10.25,3.609,11,6.359s-1,10-3,10.25
		s9.5,2.5,10.75,4.75s-4,7.25-8,8.25c0,0-4.25,0-0.5,7.5s10.5,32.25,4.25,37s-9.668,6.25-22.834,5L2316.191,430.88z"/>
	<path style="fill:#FFCB06;stroke:#000000;stroke-miterlimit:10;" d="M1028.318,1067.602l9.978-68.601l-2.64-40.065v-12.994
		l-14.667-3.673l5.5,23c8.167,25.667-5.504,102.333-5.504,102.333s-8.936,32.514-12.33,53.5c0,0-6.333,22,0,47.5
		s5.284,22.844,2.309,49.172s-8.475,90.328-13.975,109.328s-66.494,234-68.997,249.5s-28.003,105.957-28.003,105.957l11.5,1.373
		c0,0,30.5-115.461,39.5-153.396s34-129.177,39.5-149.806s17.116-37.278,20.614-69.725s13.356-123.887,13.356-123.887
		s-12.773-37.229-8.372-67.571C1016.087,1119.548,1018.647,1102.102,1028.318,1067.602z"/>
	<path style="fill:#FFCB06;stroke:#000000;stroke-miterlimit:10;" d="M1178.256,1062.542c0,0,13.86-11.646-3.204,76.54
		s-39.064,167.062-166.397,194.624l15.804-146.587c0,0-13.982-30.66-8.227-68.589s10.256-74.929,10.256-74.929
		S1137.988,1052.082,1178.256,1062.542z"/>
	<path style="fill:#FFCB06;stroke:#000000;stroke-miterlimit:10;" d="M1780.321,646.935c0,0,11.333-2.333,6-15.333
		s-2.286-11.667-2.286-11.667S1764.987,639.935,1780.321,646.935z"/>
	<path style="fill:#FFCB06;stroke:#000000;stroke-miterlimit:10;" d="M1952.988,623.268c0,0,7.999,16,4.666,19.667
		s-11.333,3-10.666-3s5.72-18,5.72-18"/>
	<g>
		<path style="fill:#FFCB06;stroke:#000000;stroke-miterlimit:10;" d="M475.169,566.312c0,0,50.777-13.208,63.753-2.691l0.99-5.362
			c0,0,21.743,7.561,28.043-15.233c0,0,2.359,0.276,8.392-1.984c6.031-2.26,9.354,2.807,9.354,2.807s4.1-5.308-8.133-9.968
			c0,0-4.729-13.091-17.045-9.565c-12.315,3.525-3.431,15.223-4.131,18.176c-0.701,2.953-2.272,6.099-5.702,5.94
			c-3.43-0.159-7.39-10.335-15.069-16.249c0,0-16.033-23.081-78.32-25.12c-63.467-2.078-82.445,30.3-82.445,30.3l-29.705-8.965
			c0,0-10.488,16.021,1.812,41.19c0,0,23.073-1.046,26.714,0c0,0,4.34,9.994,12.394,15.657c4.429,3.115,20.588,6,40.917-2.893
			C443.623,575.074,460.488,575.352,475.169,566.312z"/>
		<g>
			<path style="fill:#FFCB06;stroke:#000000;stroke-miterlimit:10;" d="M393.264,709.6c6.783,4.629,19.206-25.897,39.95-63.945
				c20.744-38.046,36.992-69.378,44.016-89.142c7.023-19.763,31.093-41.009,31.093-41.009s-31.29-14.234-83.927-6.385l1.687-0.625
				c0,0-18.604,22.621-20.919,34.85c0,0-9.2,18.03-11.198,30.716c-1.999,12.687-5.243,10.289-8.839,23.477
				s-3.292,17.265-3.292,17.265s-6.803,15.826-5.441,22.3c0,0-4.588,11.51-1.835,14.627c2.753,3.117,1.835,1.199,1.835,1.199
				s-2.746,10.248-0.692,11.358c2.054,1.111,2.665-1.527,2.665-1.527s-1.209,5.515-1.132,9.831c0.078,4.316,1.36,5.516,2.717,5.516
				c1.358,0-1.144,9.591,1.884,10.07c3.027,0.48,2.345-1.918,2.345-1.918s-1.896,7.434,0.947,9.112
				c2.843,1.679,3.525,0.48,3.525,0.48s-2.149,7.434,1.36,8.873c3.51,1.438,4.406-1.199,4.406-1.199S392.024,708.754,393.264,709.6z
				"/>
		</g>
	</g>
</g>
<g id="Layer_1">
</g>
</svg>
