<?xml version="1.0" encoding="iso-8859-1"?>
<!-- Generator: Adobe Illustrator 15.0.0, SVG Export Plug-In . SVG Version: 6.00 Build 0)  -->
<!DOCTYPE svg PUBLIC "-//W3C//DTD SVG 1.1//EN" "http://www.w3.org/Graphics/SVG/1.1/DTD/svg11.dtd">
<svg version="1.1" id="yellow_x5F_bracelets" xmlns="http://www.w3.org/2000/svg" xmlns:xlink="http://www.w3.org/1999/xlink"
	 x="0px" y="0px" width="2529.088px" height="1891.836px" viewBox="0 0 2529.088 1891.836"
	 style="enable-background:new 0 0 2529.088 1891.836;" xml:space="preserve">
<polygon style="fill:#FFCB06;stroke:#000000;stroke-miterlimit:10;" points="2098.249,766.417 2104.16,769.41 2083.341,828.467 
	2077.443,824.193 "/>
<path style="fill:#FFCB06;stroke:#000000;stroke-miterlimit:10;" d="M2038.311,842.148c0,0,34.377,22.417,54.027,42.102l4.984-7.649
	c0,0-37.129-32.665-54.564-40.999L2038.311,842.148z"/>
<path style="fill:#FFCB06;stroke:#000000;stroke-miterlimit:10;" d="M2106.162,866.775c0,0-36.344-33.175-55.635-41.311l4.849-7.055
	c0,0,57.909,38.43,55.556,41.517L2106.162,866.775z"/>
<polygon style="fill:#FFCB06;stroke:#000000;stroke-miterlimit:10;" points="2343.733,854.627 2350.618,851.543 2311.76,782.192 
	2305.99,787.268 "/>
<polygon style="fill:#FFCB06;stroke:#000000;stroke-miterlimit:10;" points="2363.972,844.707 2370.989,841.602 2330.305,772.789 
	2323.149,776.611 "/>
<polyline style="fill:#FFCB06;stroke:#000000;stroke-miterlimit:10;" points="2391.157,832.476 2345.794,765.6 2339.671,769.41 
	2383.99,835.602 2391.157,832.476 "/>
<polygon style="fill:#FFCB06;stroke:#000000;stroke-miterlimit:10;" points="1889.822,835.727 1922.225,786.875 1917.383,782.192 
	1883.989,828.678 "/>
<polygon style="fill:#FFCB06;stroke:#000000;stroke-miterlimit:10;" points="1876.725,818.409 1910.312,774.791 1904.165,770.411 
	1871.488,813.072 "/>
<polygon style="fill:#FFCB06;stroke:#000000;stroke-miterlimit:10;" points="1859.935,797.164 1892.988,758.602 1896.988,763.003 
	1862.879,802.603 "/>
<polygon style="fill:#FFCB06;stroke:#000000;stroke-miterlimit:10;" points="2045.854,799.166 2068.988,751.602 2075.508,754.902 
	2050.655,803.268 "/>
<polygon style="fill:#FFCB06;stroke:#000000;stroke-miterlimit:10;" points="2061.388,811.114 2084.815,759.603 2090.556,762.002 
	2067.064,815.779 "/>
<polygon style="fill:#FFCB06;stroke:#000000;stroke-miterlimit:10;" points="1236.173,863.767 1304.637,859.091 1304.637,851.267 
	1235.841,856.197 "/>
<polyline style="fill:#FFCB06;stroke:#000000;stroke-miterlimit:10;" points="1302.813,829.198 1236.939,833.599 1236.751,841.27 
	1303.072,836.6 "/>
<polygon style="fill:#FFCB06;stroke:#000000;stroke-miterlimit:10;" points="1300.633,806.641 1237.655,811.269 1236.842,818.561 
	1301.202,814.103 "/>
<path style="fill:#FFCB06;stroke:#000000;stroke-miterlimit:10;" d="M899.25,1135.218c0,0,41.571-10.938,60.155,2.723l-0.481,8.35
	c0,0-18.935-15.214-58.935-2.451L899.25,1135.218z"/>
<path style="fill:#FFCB06;stroke:#000000;stroke-miterlimit:10;" d="M901.251,1156.143c0,0,39.569-10.938,58.153,2.723l-0.481,7.349
	c0,0-16.933-14.213-56.933-1.45L901.251,1156.143z"/>
<path style="fill:#FFCB06;stroke:#000000;stroke-miterlimit:10;" d="M903.253,1176.66c0,0,34.734-8.059,54.888,1.261l-0.481,6.348
	c0,0-11.671-7.608-53.671,0L903.253,1176.66z"/>
<path style="fill:#FFCB06;stroke:#000000;stroke-miterlimit:10;" d="M980.678,800.958c0,0-17.643-3.397-36.178-3.397
	s-33.984,1.698-33.984,1.698v7.381c0,0,57.089-3.508,69.614,2.56L980.678,800.958z"/>
<path style="fill:#FFCB06;stroke:#000000;stroke-miterlimit:10;" d="M979.677,820.151c0,0-17.643-3.397-36.178-3.397
	s-33.984,1.698-33.984,1.698v7.381c0,0,57.089-3.508,69.614,2.56L979.677,820.151z"/>
<path style="fill:#FFCB06;stroke:#000000;stroke-miterlimit:10;" d="M978.676,841.346c0,0-17.643-3.397-36.178-3.397
	s-33.984,1.698-33.984,1.698v7.381c0,0,57.089-3.508,69.614,2.56L978.676,841.346z"/>
<path style="fill:#FFCB06;stroke:#000000;stroke-miterlimit:10;" d="M653.278,1087.217c0,0,16.156-22.645,38.683-32.13l2.789,4.744
	c0,0-23.762,13.328-37.386,31.4L653.278,1087.217z"/>
<path style="fill:#FFCB06;stroke:#000000;stroke-miterlimit:10;" d="M668.236,1101.174c0,0,15.752-19.991,35.68-30.128l3.79,4.744
	c0,0-21.76,11.326-35.384,29.398L668.236,1101.174z"/>
<path style="fill:#FFCB06;stroke:#000000;stroke-miterlimit:10;" d="M681.191,1114.13c0,0,13.153-18.641,35.68-28.126l3.79,4.744
	c0,0-21.76,9.324-35.384,27.396L681.191,1114.13z"/>
<polygon style="fill:#FFCB06;stroke:#000000;stroke-miterlimit:10;" points="282.418,1129.047 332.106,1130.62 331.35,1137.083 
	281.363,1136.082 "/>
<polygon style="fill:#FFCB06;stroke:#000000;stroke-miterlimit:10;" points="280.417,1149.278 330.104,1150.852 329.348,1157.314 
	279.361,1156.313 "/>
<polygon style="fill:#FFCB06;stroke:#000000;stroke-miterlimit:10;" points="277.232,1171.409 325.919,1173.983 325.163,1181.447 
	276.176,1178.444 "/>
<path style="fill:#FFCB06;stroke:#000000;stroke-miterlimit:10;" d="M376.183,805.603c0,0-21.195-16.002-63.195-6.002v1.001
	l-0.606,6.039c0,0,42.506-7.235,63.253,5.863L376.183,805.603z"/>
<path style="fill:#FFCB06;stroke:#000000;stroke-miterlimit:10;" d="M374.181,827.346c0,0-21.693-11.84-63.195-6.002l-0.606,8.041
	c0,0,42.506-7.235,63.253,5.863L374.181,827.346z"/>
<path style="fill:#FFCB06;stroke:#000000;stroke-miterlimit:10;" d="M372.223,849.447c0,0-22.023-9.339-63.525-3.501l-0.711,6.389
	c0,0,39.669-5.399,63.688,3.013L372.223,849.447z"/>
<path style="fill:#FFCB06;stroke:#000000;stroke-miterlimit:10;" d="M537.305,855.629l59.426,2.461l-0.602-6.884l-48.996-1.001
	C547.132,850.205,544.655,854.648,537.305,855.629z"/>
<path style="fill:#FFCB06;stroke:#000000;stroke-miterlimit:10;" d="M543.323,807.269c0,0,43.939-4.176,49.427-0.422v6.504h-44.011
	L543.323,807.269z"/>
<path style="fill:#FFCB06;stroke:#000000;stroke-miterlimit:10;" d="M594.413,828.252v6.6l-36.759-0.25c0,0-0.997-6.329-3.331-7.665
	L594.413,828.252z"/>
<path style="fill:#FFCB06;stroke:#000000;stroke-miterlimit:10;" d="M2300.399,728.469c0,0-9.41,32.532-42.744,32.532
	s-46.984-17.646-49.659-33.189l10.826-1.484c0,0,4.792,25.923,36.704,23.322c25.129-2.048,33.247-23.322,33.247-23.322
	L2300.399,728.469z"/>
<path style="fill:#FFCB06;stroke:#000000;stroke-miterlimit:10;" d="M2338.666,732.179c0,0-0.677,48.423-74.011,60.09
	c0,0-34.667,6-58.667-13.667s-35.25-45.683-35.25-45.683l-13.801,1.892c0,0,13.348,44.514,44.199,58.319
	s38.327,15.115,69.756,12.293l74.901-39.824l8.828-28.493l-3.884-3.449L2338.666,732.179z"/>
<path style="fill:#FFCB06;stroke:#000000;stroke-miterlimit:10;" d="M1041.988,773.602c0,0-32.72-31.809-42.47-60.559l-9.293,0.68
	c0,0,32.763,94.031,117.763,95.455s107.5-65.576,111-83.826l-8.911-1.92c0,0-17.496,76.003-102.589,76.17
	C1065.22,799.685,1041.988,773.602,1041.988,773.602z"/>
<path style="fill:#FFCB06;stroke:#000000;stroke-miterlimit:10;" d="M1100.655,738.136c8,6.868,24.667,1.187,24.667,1.187
	l5.333,8.518c-12,4.572-30,2.006-30,2.006V738.136z"/>
<path style="fill:#FFCB06;stroke:#000000;stroke-miterlimit:10;" d="M499.219,712.067l7.2,1.563c0,0-1.644,9.596-3.6,10.971
	c0,0-1.581,8.875-7.206,10c0,0-1.125,6.125-10,7.25c0,0,0,5.375-9,5.25c0,0-3.75,7.125-13.25,2.375c0,0-3.655,3.222-7.953,2.986
	l0.202-13.444C455.612,739.018,486.2,739.032,499.219,712.067z"/>
<path style="fill:#FFCB06;stroke:#000000;stroke-miterlimit:10;" d="M454.655,798.04c0,0,71.333-3.437,96-70.438l11.333,4.667
	c0,0-9.065,22.252-32.667,45.333c-33.333,32.599-74.667,28.441-74.667,28.441V798.04"/>
</svg>
