<?xml version="1.0" encoding="utf-8"?>
<!-- Generator: Adobe Illustrator 16.0.0, SVG Export Plug-In . SVG Version: 6.00 Build 0)  -->
<!DOCTYPE svg PUBLIC "-//W3C//DTD SVG 1.1//EN" "http://www.w3.org/Graphics/SVG/1.1/DTD/svg11.dtd">
<svg version="1.1" id="Layer_1" xmlns="http://www.w3.org/2000/svg" xmlns:xlink="http://www.w3.org/1999/xlink" x="0px" y="0px"
	 width="2529.088px" height="1891.836px" viewBox="0 0 2529.088 1891.836" enable-background="new 0 0 2529.088 1891.836"
	 xml:space="preserve">
<g id="yellow-clothing">
	<path fill="#FFCB06" stroke="#000000" stroke-miterlimit="10" d="M2326.286,1060.148c0,0,12.702,99.926,16.202,121.202
		c3.498,21.277-3.854,34.14-8.938,48.872c-5.083,14.733-0.676,41.316,1.818,67.948s15.367,46.68,15.367,46.68l17.75,50.25
		c0,0,38,101.5,54,150.5s31.5,154.5,31.5,154.5h17.5l-42.5-158c0,0-22.5-70.5-34.5-101s-20-70.5-36.5-98.75
		s-16.25-84.75-17.25-98.75s7-21.5,10-36.5s-6-49.5-9.25-60s-8.5-86.952-8.5-86.952s6.5-101.048,7.5-105.048s-5.998-2.652-6.291,0
		S2330.489,1055.101,2326.286,1060.148z"/>
	<path fill="#FFCB06" stroke="#000000" stroke-miterlimit="10" d="M2280.329,441.704h36.825c0,0-4.166-55.602-14.916-96.852
		s-12.75-54-11.5-55.875s2-3.625,5.25-3.125s12.758-9.029,2.754-16.64c-10.004-7.611-19.803-0.746-29.278,5.197h-33.198
		c0,0-6.527-11.315-19.277-8.561c-12.75,2.754-15,17.004-4.75,20.004c0,0,3.25-1.494,0.5,9.878s-32.416,139.372-17.75,140.622
		c14.668,1.25,33.51,4.185,33.51,4.185L2280.329,441.704z"/>
	<path fill="#FFCB06" stroke="#000000" stroke-miterlimit="10" d="M2191.377,430.081c0,0-8.639,7.479-14.139,0
		c-5.5-7.479,18.027-31.979,14.139-39.479s-6.889-9-3.889-13.25s5.488-14.25-3.381-15.5s-14.295,8.5-7.707,13.5l0.838,2.75
		c0,0-7.75-2.25-7.5,1.5s8.5,8.75,7.25,11.75s-12.148,27.355-8.75,36.75c4.25,11.75,9.25,10.019,12.25,10
		c9.002-0.053,14.5-1.75,14.5-1.75L2191.377,430.081z"/>
	<path fill="#FFCB06" stroke="#000000" stroke-miterlimit="10" d="M2316.191,430.88c0,0,19.047,5.721,16.797-6.529
		c-2.25-12.25-3.613-19.51-8.307-24.379c-4.694-4.87-5.943-14.37-1.193-17.87s-1.25-4.5-3-7.25s-2-11.219,5-13.109
		c7-1.89,10.25,3.609,11,6.359s-1,10-3,10.25s9.5,2.5,10.75,4.75s-4,7.25-8,8.25c0,0-4.25,0-0.5,7.5s10.5,32.25,4.25,37
		s-9.668,6.25-22.834,5L2316.191,430.88z"/>
	<path fill="#FFCB06" stroke="#000000" stroke-miterlimit="10" d="M1028.318,1067.602l9.978-68.601l-2.64-40.065v-12.993
		l-14.667-3.673l5.5,23c8.167,25.666-5.504,102.332-5.504,102.332s-8.937,32.515-12.33,53.5c0,0-6.333,22,0,47.5
		s5.284,22.845,2.309,49.173c-2.975,26.327-8.475,90.327-13.975,109.327s-66.494,234-68.997,249.5s-28.003,105.957-28.003,105.957
		l11.5,1.373c0,0,30.5-115.461,39.5-153.396s34-129.177,39.5-149.806s17.116-37.278,20.614-69.726
		c3.497-32.446,13.355-123.887,13.355-123.887s-12.773-37.229-8.372-67.571C1016.087,1119.548,1018.646,1102.102,1028.318,1067.602z
		"/>
	<path fill="#FFCB06" stroke="#000000" stroke-miterlimit="10" d="M1780.321,646.935c0,0,11.333-2.333,6-15.333
		s-2.286-11.667-2.286-11.667S1764.987,639.935,1780.321,646.935z"/>
	<path fill="#FFCB06" stroke="#000000" stroke-miterlimit="10" d="M1952.988,623.268c0,0,7.999,16,4.666,19.667s-11.333,3-10.666-3
		s5.72-18,5.72-18"/>
	<g>
		<path fill="#FFCB06" stroke="#000000" stroke-miterlimit="10" d="M475.169,566.312c0,0,50.777-13.209,63.753-2.691l0.99-5.362
			c0,0,21.743,7.562,28.043-15.232c0,0,2.359,0.275,8.392-1.984c6.031-2.26,9.354,2.807,9.354,2.807s4.1-5.308-8.133-9.968
			c0,0-4.729-13.091-17.045-9.564c-12.315,3.524-3.431,15.223-4.131,18.176c-0.701,2.953-2.272,6.099-5.702,5.939
			c-3.43-0.158-7.39-10.335-15.069-16.249c0,0-16.033-23.081-78.32-25.119c-63.467-2.078-82.445,30.3-82.445,30.3l-29.705-8.965
			c0,0-10.488,16.021,1.812,41.189c0,0,23.073-1.046,26.714,0c0,0,4.34,9.994,12.394,15.657c4.429,3.115,20.588,6,40.917-2.894
			C443.623,575.074,460.488,575.352,475.169,566.312z"/>
		<g>
			<path fill="#FFCB06" stroke="#000000" stroke-miterlimit="10" d="M393.264,709.6c6.783,4.629,19.206-25.896,39.95-63.944
				c20.744-38.046,36.992-69.378,44.016-89.143c7.023-19.763,31.093-41.009,31.093-41.009s-31.29-14.234-83.927-6.385l1.687-0.625
				c0,0-18.604,22.621-20.919,34.85c0,0-9.2,18.03-11.198,30.716c-1.999,12.688-5.243,10.289-8.839,23.478
				c-3.596,13.188-3.292,17.265-3.292,17.265s-6.803,15.826-5.441,22.3c0,0-4.588,11.511-1.835,14.627
				c2.753,3.117,1.835,1.199,1.835,1.199s-2.746,10.248-0.692,11.358c2.054,1.11,2.665-1.527,2.665-1.527s-1.209,5.515-1.132,9.831
				c0.078,4.316,1.36,5.516,2.717,5.516c1.358,0-1.144,9.592,1.884,10.07c3.027,0.48,2.345-1.918,2.345-1.918
				s-1.896,7.434,0.947,9.112c2.843,1.679,3.525,0.479,3.525,0.479s-2.149,7.435,1.36,8.873c3.51,1.438,4.406-1.199,4.406-1.199
				S392.024,708.754,393.264,709.6z"/>
		</g>
	</g>
</g>
<g id="Layer_1_1_">
</g>
</svg>
