<?xml version="1.0" encoding="iso-8859-1"?>
<!-- Generator: Adobe Illustrator 15.0.0, SVG Export Plug-In . SVG Version: 6.00 Build 0)  -->
<!DOCTYPE svg PUBLIC "-//W3C//DTD SVG 1.1//EN" "http://www.w3.org/Graphics/SVG/1.1/DTD/svg11.dtd">
<svg version="1.1" xmlns="http://www.w3.org/2000/svg" xmlns:xlink="http://www.w3.org/1999/xlink" x="0px" y="0px"
	 width="2529.088px" height="1891.836px" viewBox="0 0 2529.088 1891.836" style="enable-background:new 0 0 2529.088 1891.836;"
	 xml:space="preserve">
<g id="yellow-glyphs">
	<path style="fill:#FFCB06;stroke:#000000;stroke-miterlimit:10;" d="M646.569,174.931l-1.73-21.693
		c0,0-18.686,17.092-21.454,27.697s7.266,17.18,11.592,15.796S647.697,189.084,646.569,174.931z"/>
	<polygon style="fill:#FFCB06;stroke:#000000;stroke-miterlimit:10;" points="733.077,275.972 733.077,253.479 619.579,250.02 
		619.579,271.127 628.921,265.937 719.928,270.435 	"/>
	<path style="fill:#FFCB06;stroke:#000000;stroke-miterlimit:10;" d="M888.988,120.602c0,0-10-8-15.667-5.333s-3.667,26.667-21,19
		s-55.667-25.707-69.667-9.02s6.023,43.353,6.845,43.353s3.512-5.666,0-14.333s-4.155-17,0-23s13.155-11,34.822-0.667
		s42.333,18,48.667,4.333S889.655,125.268,888.988,120.602z"/>
	<path style="fill:#FFCB06;stroke:#000000;stroke-miterlimit:10;" d="M884.988,390.602v9l-38-1.981l-11.469,6.481
		c0,0-0.031-6-4.531-6.75s-3.75,6.75-3.75,6.75l-13.227-10.5l-42.042,1.5v-10l42.042,4.5l10.477-7c0,0,0,10,2.75,10.75
		s11.168-5.25,6.709-8.25s9.041,5.5,9.041,5.5H884.988z"/>
	<path style="fill:#FFCB06;stroke:#000000;stroke-miterlimit:10;" d="M714.488,1408.602c0,0,10-5,15,0s-3.75,17.25-11.25,12.75
		s-13.75,3-16.25,4s7.25,12.75,7.25,12.75l-3.5,1.5c0,0-11-10.25-13.25-11s-14.75,0.5-14.75,0.5l9.75,13.5h-7.25
		c0,0-21-21.75-24.25-25.75s-11.833-8.75-14.667-6s-11.083,9.277-1.083,13.639s13.75,0.861,17.75,6.611s5.917,8.5,9.333,9.75
		s2.667,6.25,2.667,6.25s-4.25-2.75-8.5-5.25s-1.75-4.75-5.5-7s-4.5-2.25-15.75-4s-17.669-16-9.209-22.25s21.709-5.5,21.709-5.5
		s12.25-6,13.5-6.25s12.815-19,12.815-19l3.435,2.879l-3.435,15.121c0,0,7.435,0.75,8.935,0.5l13.25-15.621l4,1.121l-7.583,17.5
		C697.655,1399.352,709.738,1404.352,714.488,1408.602z"/>
	<path style="fill:#FFCB06;stroke:#000000;stroke-miterlimit:10;" d="M661.988,1591.85v-10.498h-2c0,0-2.25,4.5-7.25,5
		s-7.5-5.25-10-5s-4.75,4.75-10.25,3.875s-7-6.375-9-6.125s-2,12.25-2,12.25L661.988,1591.85z"/>
	<path style="fill:#FFCB06;stroke:#000000;stroke-miterlimit:10;" d="M715.738,1571.852c0,0,5.25-5.75,7.75-7.75s2-11.75,2-11.75
		l-4.854,1.75c0,0-4.896-9.25-2.646-9.75s4-1.5,4-1.5v-2.75h-13.75v4.25l5.83,0.75v8l-9.42-0.25c0,0-0.659,8.75,3.591,11.25
		S715.738,1571.852,715.738,1571.852z"/>
	<path style="fill:#FFCB06;stroke:#000000;stroke-miterlimit:10;" d="M671.685,1571.852c0,0,7.11-5.269,9.803-7
		c3.5-2.25,3.5-12.5,3.5-12.5l-9.409,1.75c0,0-1.893-9.25,0.357-9.75s4-1.5,4-1.5l-1.001-3.751l-12.198-0.446v3.696l5.278,1.75
		l-1.001,9.001l-10.421-0.25c0,0-0.659,8.75,3.591,11.25S671.685,1571.852,671.685,1571.852z"/>
	<path style="fill:#FFCB06;stroke:#000000;stroke-miterlimit:10;" d="M1400.989,1457.935c1.333,0,42.667,3,42.667,3v-10h-42.667
		l4.333-9c0,0-5.48-4.334-14.073-1.667s-1.593,9.899-1.593,9.899l-55.667-3.565v10l57.26-0.667L1400.989,1457.935z"/>
	<path style="fill:#FFCB06;stroke:#000000;stroke-miterlimit:10;" d="M1669.988,1052.082c0,0-27.768,9.52-40.667,4.52
		c-8.368-3.243-16.999-2.352-28.333,0.824s-20.667-2.863-24.667-5.344s-6.187-4.48-6.187-4.48l6.187-8h-1.333l-7.234,6.667l-7.477-9
		l-3.438,1.666l5.457,8.863c0,0-3.975,2.765,1.691,4.284s15.333,6.853,19.333,9.853s16.812,1.333,25.406,0
		s14.593-0.304,23.927,1.682S1667.655,1056.562,1669.988,1052.082z"/>
	<path style="fill:#FFCB06;stroke:#000000;stroke-miterlimit:10;" d="M1565.321,973.935l-3.667-8h3.667l2.433,2l4.727-6.333l3.841,3
		l-3.841,6c0,0,10.174,9.333,13.174,12s10.979-2.001,16.989-3.667s18.679-0.055,27.345,4.473s10.667,3.193,21,2.527
		s16.332-5.332,16.666-7.666s-2.333-2-2.333-2s7.001-1.001,4.667,4.666s-11.666,9.667-25,8.667s-20.235-3.999-28.451-5.333
		s-16.217,2.667-26.883,4s-11-0.667-14-4.667s-3.666-6.333-5.333-6.333S1556.059,980.554,1565.321,973.935z"/>
	<path style="fill:#FFCB06;stroke:#000000;stroke-miterlimit:10;" d="M1670.465,957.602c0,0-8.227,10.25-28.477,1.25
		s-33.75,3.25-44,2.75s-17.25-13.75-20.75-16.75s5.25-12.5,5.25-12.5l-2.25-3.75l-8.5,9.75l-8.25-7.25l-1.834,1.75l6.1,9.75
		l-6.1,2.975l2.084,4.025c0,0,8.5-5.75,13.5,4s11,16.25,27.25,13s32-3.559,48.5,0.846S1679.691,957.102,1670.465,957.602z"/>
	<path style="fill:#FFCB06;stroke:#000000;stroke-miterlimit:10;" d="M1305.321,390.629v37.639l23.334,1.667
		c0,0-0.667-8.611-1.667-8.806s-9,4.528-10,0s0-29.194,0-29.194L1305.321,390.629z"/>
	<path style="fill:#FFCB06;stroke:#000000;stroke-miterlimit:10;" d="M1462.988,461.708c0,0,14.333,9.894,25,9.894
		s23.667,0,26.667,0s27.018,5.334,31.509,5.667s7.86-2.561,10.676-7.78s6.168-7.675,9.658-7.781s4.823-3.772-0.01-5.439
		s-2.833-2.167-2.833-2.167l2.843-11.5l-6.843,10.167l-13-5.5l9.833,8.167c0,0-3.329,13.5-6.748,14.333s-8.585-0.833-16.752-2.833
		s-13.333,0.167-23,0.667s-16.333,0.5-23.333,0.167S1466.988,460.813,1462.988,461.708z"/>
	<path style="fill:#FFCB06;stroke:#000000;stroke-miterlimit:10;" d="M1466.821,424.935c0,0,7.334,13.667,24.834,13.167
		s25.834-2.333,35.5-1s20.666,5,24.833,0.167s6.131-12.333,6.131-12.333l12.869-5c0,0,1.667-1.667-5.5-3.167
		s-0.834-11.833,1.833-13.833s-9.202,4.833-9.202,4.833s-1.964,2.167-6.131,0.833s-7.833-1.333-7.833-1.333s9.332,5.5,7.666,8.667
		s-1.5,12-3.5,13.833s-2.667,4.667-13,1.833s-22.166-4.5-33.666-1.833s-16.833,3.167-24-0.833S1466.821,424.935,1466.821,424.935z"
		/>
	<path style="fill:#FFCB06;stroke:#000000;stroke-miterlimit:10;" d="M1550.821,389.102l-3.166-55.833
		c0,0,11.791-4.884,21.979-3.108c0,0,0.855,4.108,3.521,4.108s3.5-2,3.5-2l-1.167-18.333h-5l-0.167,12.333
		c0,0-9.332-6.666-22.666-6.833c0,0-1.668-0.167-1.834-1.833s0-7.5,0-7.5h-4.333l-1.333,9.167c0,0-9.667,0.667-19.667,5.5
		c0,0-5.001,0.167-5.167-2.333s-0.833-6.5-0.833-6.5l-6,0.667c0,0-1,21.167,1,22.167s7.646,1.167,6.823-0.667s0-7.5,0-7.5
		s10.343,1.833,17.51,2s6.5,2.833,6.5,4.667s-0.833,51.833-0.833,51.833s1.251,1.333,2.959,0s4.04-1.814,6.374,0.593
		S1550.821,389.102,1550.821,389.102z"/>
	<path style="fill:#FFCB06;stroke:#000000;stroke-miterlimit:10;" d="M1571.655,125.602c0,0-3-6.332-10.667-3.666
		s-9.167,6.833-9.167,12.333s0.834,14.5-14.666,8s-47.667-17.834-60.667-10.667s-5.167,11.698-3.167,12.933s9.834-1.599,8.667-3.099
		s-0.667-7.833,8.833-5.833s56.166,16.167,61.5,14.833s7.5-6,7.5-9.333s-0.794-8.667-0.794-8.667S1570.989,132.935,1571.655,125.602
		z"/>
	<path style="fill:#FFCB06;stroke:#000000;stroke-miterlimit:10;" d="M2428.706,645.641l-19.75-19.5l-17.799,22.96h-12.085
		l23.134-30.46c0,0-13.174-23.79-11.049-35.79s15.944-13.947,27.473-9.21c16.358,6.722-2.142,44.5-2.142,44.5l22.218,27.5H2428.706z
		 M2409.537,610.641c0,0,11.346-23.557,3.048-30.278c-6.327-5.125-17.864,5.369-13.097,14.989
		C2404.586,605.637,2406.238,604.352,2409.537,610.641z"/>
	<path style="fill:#FFCB06;stroke:#000000;stroke-miterlimit:10;" d="M2410.738,987.602l9.674,6.75l-9.674,4.5v6.75l-9.999,18.5
		l0.999-19.75c0,0,7-5.25,7-6s0-10.75,0-10.75H2410.738z"/>
	<polygon style="fill:#FFCB06;stroke:#000000;stroke-miterlimit:10;" points="2393.488,992.852 2398.887,986.102 2385.988,984.852 
		2390.613,994.102 2390.613,1015.102 2393.488,1024.102 2396.738,1012.852 	"/>
	<polygon style="fill:#FFCB06;stroke:#000000;stroke-miterlimit:10;" points="2384.488,1024.102 2384.488,1013.102 
		2381.738,1001.352 2378.988,996.852 2378.988,987.602 2365.738,995.102 2376.488,998.852 2378.738,1016.352 	"/>
	<path style="fill:#FFCB06;stroke:#000000;stroke-miterlimit:10;" d="M2416.488,1067.726c0,0-16.5,3.626-26,3.376
		s-13.262-4-15.756-6.75s-7.244-5.156-7.744-4.203s-1.25-2.297-1.25-2.297h3.238l-1.988-10.75h1.988l5.756,3.25l8.256-3.25
		l-5.5,9.75l6.25,8.25C2383.738,1065.102,2396.488,1058.1,2416.488,1067.726z"/>
	<path style="fill:#FFCB06;stroke:#000000;stroke-miterlimit:10;" d="M2057.488,401.313V269.27c0,0-3.5-26.168-42.5-31.668
		s-82,1.232-84.5,39.866s-3.423,136.142-3.168,147.634c0.33,14.864-6.665,66.167,11.168,75.5c20.208,10.577,32.309,14.5,56.904,13.5
		s58.596-9.496,59.596-26.498s3-80.002,3-80.002L2057.488,401.313z"/>
	<path style="fill:#FFCB06;stroke:#000000;stroke-miterlimit:10;" d="M1879.988,361.964c0,0,0.854,122.971-11.573,129.304
		s-24.575,17.888-55.751,15.611s-61.176-15.392-61.176-29.584s5.5-140.693,4.5-164.693s-7.988-74.5,59.756-73.5
		s64.257,38.366,64.257,38.366L1879.988,361.964z"/>
</g>
<g id="Layer_1">
</g>
</svg>
