<?xml version="1.0" encoding="utf-8"?>
<!-- Generator: Adobe Illustrator 15.0.0, SVG Export Plug-In . SVG Version: 6.00 Build 0)  -->
<!DOCTYPE svg PUBLIC "-//W3C//DTD SVG 1.1//EN" "http://www.w3.org/Graphics/SVG/1.1/DTD/svg11.dtd">
<svg version="1.1" id="bird" xmlns="http://www.w3.org/2000/svg" xmlns:xlink="http://www.w3.org/1999/xlink" x="0px" y="0px"
	 width="732px" height="1891.836px" viewBox="0 0 732 1891.836" enable-background="new 0 0 732 1891.836" xml:space="preserve">
<path fill="#FFFFFF" stroke="#000000" stroke-miterlimit="10" d="M507.001,1217.043c0,0-4.333-29-12.333-33
	c0,0-2.334-1.895-2.667,2.386s-2.333,47.947-2.333,47.947s2.667,1.667,6,1.667s47.333-1.333,57,0s40.667,2.334,40.667,0s0-11,0-11
	l-16.667-43l-14,42l11-0.667c0,0,1.333-16.933,5.667-13.633c4.333,3.3,7,14.3,7,14.3s0.666,5.332-3.667,3.666
	s-8.333-4.002-8.333-4.002s-10-0.998-15.667,0.669S526.001,1228.377,507.001,1217.043z"/>
<path fill="#FFFFFF" stroke="#000000" stroke-miterlimit="10" d="M543.668,1206.709l1.667-20.28l-12-2.386
	c0,0,1.666,6.333,1.333,11.333s-1.333,11.333-1.333,11.333H543.668z"/>
<rect x="539.335" y="1220.376" fill="#FFFFFF" stroke="#000000" stroke-miterlimit="10" width="8.652" height="15.303"/>
</svg>
