<?xml version="1.0" encoding="utf-8"?>
<!-- Generator: Adobe Illustrator 15.0.0, SVG Export Plug-In . SVG Version: 6.00 Build 0)  -->
<!DOCTYPE svg PUBLIC "-//W3C//DTD SVG 1.1//EN" "http://www.w3.org/Graphics/SVG/1.1/DTD/svg11.dtd">
<svg version="1.1" id="bird" xmlns="http://www.w3.org/2000/svg" xmlns:xlink="http://www.w3.org/1999/xlink" x="0px" y="0px"
	 width="732px" height="1891.836px" viewBox="0 0 732 1891.836" enable-background="new 0 0 732 1891.836" xml:space="preserve">
<g>
	<path fill="#FFFFFF" stroke="#000000" stroke-miterlimit="10" d="M578.501,1625.626c0,0-1.5-18-9-18s-11,17-9.5,18
		S578.501,1625.626,578.501,1625.626z"/>
	<path fill="#FFFFFF" stroke="#000000" stroke-miterlimit="10" d="M578.501,1588.876l-7.5-11.75l-3.5,7.5l-7.841-7.5l-3.409,7.25
		l-7.75-10l-4,8.75l-6.5-8.75l-6.25,10.25v4.25l6.5-5.75l7.5,7.25l4.5-6.25l7.75,7.5l1.659-7.5l7.841,6l4.5-5.25l3.25,5.25
		C575.251,1590.126,576.001,1590.376,578.501,1588.876z"/>
	<path fill="#FFFFFF" stroke="#000000" stroke-miterlimit="10" d="M517.001,1589.624v-10.498h-2c0,0-2.25,4.5-7.25,5s-7.5-5.25-10-5
		s-4.75,4.75-10.25,3.875s-7-6.375-9-6.125s-2,12.25-2,12.25L517.001,1589.624z"/>
	<path fill="#FFFFFF" stroke="#000000" stroke-miterlimit="10" d="M476.501,1607.626h36.502c0,0-1.002,17.443-19.252,17.443
		C478.501,1625.07,476.501,1607.626,476.501,1607.626z"/>
	<path fill="#FFFFFF" stroke="#000000" stroke-miterlimit="10" d="M570.751,1569.626c0,0,5.25-5.75,7.75-7.75s2-11.75,2-11.75
		l-4.854,1.75c0,0-4.896-9.25-2.646-9.75s4-1.5,4-1.5v-2.75h-13.75v4.25l5.83,0.75v8l-9.421-0.25c0,0-0.659,8.75,3.591,11.25
		S570.751,1569.626,570.751,1569.626z"/>
	<path fill="#FFFFFF" stroke="#000000" stroke-miterlimit="10" d="M526.698,1569.626c0,0,7.109-5.269,9.803-7
		c3.5-2.25,3.5-12.5,3.5-12.5l-9.408,1.75c0,0-1.893-9.25,0.357-9.75s4-1.5,4-1.5l-1.002-3.751l-12.197-0.446v3.696l5.278,1.75
		l-1.001,9.001l-10.422-0.25c0,0-0.658,8.75,3.592,11.25S526.698,1569.626,526.698,1569.626z"/>
	<path fill="#FFFFFF" stroke="#000000" stroke-miterlimit="10" d="M500.501,1553.751c0,0,0.25,8.375-3.75,10.375s-5,6.75-5,6.75
		h-3.5c0,0-2.5-2.75-6.25-6.25s-1-10.697-2.75-11.599s2.5-1.849,3.75,0s0.586,10.349,6.668,10.099s6.082-9.375,6.082-9.375h6"/>
	<polygon fill="#FFFFFF" stroke="#000000" stroke-miterlimit="10" points="549.501,1610.626 548.001,1625.07 540.001,1619.376 
		533.251,1623.31 533.251,1609.126 535.501,1609.126 537.001,1616.348 543.001,1616.849 544.251,1609.126 	"/>
	<path fill="#FFFFFF" stroke="#000000" stroke-miterlimit="10" d="M526.751,1611.626l-2,11.684l-9.182-1.684
		c0,0-0.568-4.141,1.432-4.32s5.5,2.57,5.5,2.57l0.75-8.25C523.251,1611.626,525.501,1609.626,526.751,1611.626z"/>
</g>
</svg>
