<?xml version="1.0" encoding="utf-8"?>
<!-- Generator: Adobe Illustrator 15.0.0, SVG Export Plug-In . SVG Version: 6.00 Build 0)  -->
<!DOCTYPE svg PUBLIC "-//W3C//DTD SVG 1.1//EN" "http://www.w3.org/Graphics/SVG/1.1/DTD/svg11.dtd">
<svg version="1.1" id="bird" xmlns="http://www.w3.org/2000/svg" xmlns:xlink="http://www.w3.org/1999/xlink" x="0px" y="0px"
	 width="732px" height="1891.836px" viewBox="0 0 732 1891.836" enable-background="new 0 0 732 1891.836" xml:space="preserve">
<polygon fill="#FFFFFF" stroke="#000000" stroke-miterlimit="10" points="595.335,1272.089 580.668,1254.043 566.668,1265.043 
	556.001,1254.043 541.501,1263.066 531.668,1250.043 517.001,1264.709 506.335,1251.709 487.001,1266.376 492.668,1270.043 
	506.335,1264.043 521.001,1276.043 531.668,1263.043 543.661,1274.043 556.335,1263.043 567.335,1276.043 581.001,1265.709 
	589.668,1276.043 "/>
<path fill="#FFFFFF" stroke="#000000" stroke-miterlimit="10" d="M593.335,1304.709l-15.667-20.333l-13.667,12.667l-10.333-12.667
	l-17,10.166l-10.667-10.166l-13.333,11.667l-13.333-14l-12.334,11.333c0,0-4,7.001,4.334,7.667l8.666-7.667l12.667,11.333l13-9
	l10.333,9l16-11.333l9,11.333c0,0,4-0.333,7.334-2.333c3.333-2,10-5.333,10-5.333l9,11L593.335,1304.709z"/>
</svg>
