<?xml version="1.0" encoding="utf-8"?>
<!-- Generator: Adobe Illustrator 15.0.0, SVG Export Plug-In . SVG Version: 6.00 Build 0)  -->
<!DOCTYPE svg PUBLIC "-//W3C//DTD SVG 1.1//EN" "http://www.w3.org/Graphics/SVG/1.1/DTD/svg11.dtd">
<svg version="1.1" id="bird" xmlns="http://www.w3.org/2000/svg" xmlns:xlink="http://www.w3.org/1999/xlink" x="0px" y="0px"
	 width="732px" height="1891.836px" viewBox="0 0 732 1891.836" enable-background="new 0 0 732 1891.836" xml:space="preserve">
<path fill="#FFFFFF" stroke="#000000" stroke-miterlimit="10" d="M569.501,1406.376c0,0,10-5,15,0s-3.75,17.25-11.25,12.75
	s-13.75,3-16.25,4s7.25,12.75,7.25,12.75l-3.5,1.5c0,0-11-10.25-13.25-11s-14.75,0.5-14.75,0.5l9.75,13.5h-7.25
	c0,0-21-21.75-24.25-25.75s-11.833-8.75-14.666-6c-2.834,2.75-11.084,9.277-1.084,13.639s13.75,0.861,17.75,6.611
	s5.917,8.5,9.334,9.75c3.416,1.25,2.666,6.25,2.666,6.25s-4.25-2.75-8.5-5.25s-1.75-4.75-5.5-7s-4.5-2.25-15.75-4
	s-17.669-16-9.209-22.25c8.459-6.25,21.709-5.5,21.709-5.5s12.25-6,13.5-6.25s12.815-19,12.815-19l3.435,2.879l-3.435,15.121
	c0,0,7.435,0.75,8.935,0.5l13.25-15.621l4,1.121l-7.583,17.5C552.668,1397.126,564.751,1402.126,569.501,1406.376z"/>
</svg>
