<?xml version="1.0" encoding="utf-8"?>
<!-- Generator: Adobe Illustrator 15.0.0, SVG Export Plug-In . SVG Version: 6.00 Build 0)  -->
<!DOCTYPE svg PUBLIC "-//W3C//DTD SVG 1.1//EN" "http://www.w3.org/Graphics/SVG/1.1/DTD/svg11.dtd">
<svg version="1.1" id="crown4_1_" xmlns="http://www.w3.org/2000/svg" xmlns:xlink="http://www.w3.org/1999/xlink" x="0px" y="0px"
	 width="732px" height="1891.836px" viewBox="0 0 732 1891.836" enable-background="new 0 0 732 1891.836" xml:space="preserve">
<g>
	<path fill="#FFFFFF" stroke="#000000" stroke-miterlimit="10" d="M362.772,491.279c0,0,5.461,8.013,3.579,12.688
		c-1.882,4.676-5.532,6.17-4.018,11.536c0,0-41.062-15.362-92.242-5.183c0,0-6.473-2.784-5.88-7.844
		c0.592-5.061,5.625-11.197,5.625-11.197s-7.472-4.969-6.288-7.306s8.658-3.215,10.137-1.169c0,0,8.882-4.338,15.396-1.146
		c0,0,12.142-4.661,22.948-1.173c0,0,7.845-4.618,18.799-1.295c0,0,11.214-2.23,15.377,0.984c0,0,1.446-3.214,9.614,0.292
		c0,0,15.409-1.941,13.812,3.214C367.304,491.198,362.772,491.279,362.772,491.279z"/>
</g>
</svg>
