<?xml version="1.0" encoding="utf-8"?>
<!-- Generator: Adobe Illustrator 15.0.0, SVG Export Plug-In . SVG Version: 6.00 Build 0)  -->
<!DOCTYPE svg PUBLIC "-//W3C//DTD SVG 1.1//EN" "http://www.w3.org/Graphics/SVG/1.1/DTD/svg11.dtd">
<svg version="1.1" id="clothing" xmlns="http://www.w3.org/2000/svg" xmlns:xlink="http://www.w3.org/1999/xlink" x="0px" y="0px"
	 width="732px" height="1891.836px" viewBox="0 0 732 1891.836" enable-background="new 0 0 732 1891.836" xml:space="preserve">
<path fill="#FFFFFF" stroke="#000000" stroke-miterlimit="10" d="M210,1078.075c-2.665-30.439,14.23-50.48,17.191-58.37
	c2.96-7.89-0.191-19.77,7.834-46.328c4.559-15.089,9.812-36.807,10.475-68.775c0.656-31.656-1.5-49-1.5-49s34.005-5.319,67.49-4.255
	c30.22,0.961,60.388,8.237,58.175,9.588c-4.663,2.849-8.964,50.353-6.166,67.447s8.22,41.193,6,58.505
	c-2.221,17.313-10.444,30.564-6.892,43.275L378,1088.627c0,0-14.667,180.766-16,214.475c-1.391,35.189-1.408,34.584-6,88
	l10.161,238.758l-153.657-10.605c0,0-1.668-145.49,0.996-165.652s12.721-65.004,10.5-97c-2.221-31.997-5.729-124.815-6.174-158.565
	c-0.444-33.75,1.333-58.733,1.333-67.5S212.138,1102.485,210,1078.075z"/>
<path fill="#FFFFFF" stroke="#000000" stroke-miterlimit="10" d="M328.5,1332.742c-48.333,271.192-43.438,263.947-49.051,291.138"/>
</svg>
