<?xml version="1.0" encoding="utf-8"?>
<!-- Generator: Adobe Illustrator 15.0.0, SVG Export Plug-In . SVG Version: 6.00 Build 0)  -->
<!DOCTYPE svg PUBLIC "-//W3C//DTD SVG 1.1//EN" "http://www.w3.org/Graphics/SVG/1.1/DTD/svg11.dtd">
<svg version="1.1" id="hair" xmlns="http://www.w3.org/2000/svg" xmlns:xlink="http://www.w3.org/1999/xlink" x="0px" y="0px"
	 width="732px" height="1891.836px" viewBox="0 0 732 1891.836" enable-background="new 0 0 732 1891.836" xml:space="preserve">
<path fill="#FFFFFF" stroke="#000000" stroke-miterlimit="10" d="M284.852,650.041c9.006-16.612,31.481-61.772,37.815-75.105
	s18.333-11,18.333-11c45-8,51.333,0,51.333,0l2.758,10.01C378,561.935,349,579.935,349,579.935
	c-2.151,2.061-3.272,8.451-7.413,12.904c-3.21,3.452-11.446,3.03-14.894,5.813c-5.337,4.308-5.377,11.044-5.377,11.044
	l-7.983,32.572c0,0-2.421,12.326-5.161,17.667c-1.514,2.951,0,18.097,0,22.667c0,4-0.292,18.352,0,19.667
	c0.291,1.315-0.012,18.494,0,22s1.615,17.808,1.615,17.808s-0.9,22.938-0.639,27.918c0.262,4.98-3.258,12.577-3.258,12.577
	s1.887,5.673,2.758,8.687c0.872,3.015-1.027,9.598-0.141,11.999s-0.953,11.286-0.887,13.916c0.067,2.63,1.027,9.643,1.027,9.643
	s1.126,6.793,0,8.766c-1.127,1.972-6.423,0.657-9.245,0.876c-2.82,0.219-7.171-0.657-10.617,0.658s-0.996-0.438-5.574,1.315
	c-4.578,1.753-7.635-0.877-10.041,0.438s-12.128,0-12.128,0s-7.227,0-8.377-1.315s-0.431-6.607-1.341-8.836
	c-0.911-2.229,2.269-14.394,0-18.288c-2.27-3.893,1.603-14.954,1.603-14.954s0,0-2.255-1.212s1.993-18.336,0-21.363
	c-1.994-3.027,0-17.696,0-17.696c-2.7-4.33,3.366-21.092,1.339-23.501c-1.339-1.593-1.494-10.742-1.444-16.768
	c0.025-3.096-2.386-5.625-6.519-5.592c-9.891,0.08-30.187,1.825-47.261,12.746c-8.514,5.446-16.253,13.246-20.027,24.752
	c-9.762,29.761-13.764,92.612-13.763,92.613l-14.417-1.519l-0.616-17.021c-1.151-1.804,0.947-15.779,0.644-19.069
	c-0.303-3.29,3.189-12.051,2.523-14.914c-0.666-2.863,3.015-14.869,2.868-17.33c-0.397-6.646,0.157-4.553,1.885-8.452
	c-0.305-0.428,1.527-1.017,1.462-1.732c-0.449-5.004,4.289-16.136,4.105-20.985c-0.209-5.542,11.756-12.648,11.756-12.648
	s-0.222-4.602,0-7.89c0.222-3.287,9.771-11.834,7.772-15.341c-1.999-3.506,9.104-14.245,11.991-18.847
	c2.887-4.603,10.881-13.807,10.881-18.19c0-4.383,8.425-10.838,7.48-13.249c-0.944-2.411,4.844-12.388,8-16.333
	s3.617-6.579,2.818-10.304c-0.798-3.726,5.408-12.241,6.182-16.029c0.604-2.956,7.615-27.905,7.615-27.905l7.005,5.218
	l-4.709,13.625l-2.399,14.262l-6.482,25.256c0,0-3.113,11.294,1.041,12.871c0,0-2.715,6.423-1.353,10.122
	c1.104,3,3.283,1.218,3.283,1.218c-3.583,13.833,1.627,13.839,1.627,13.839c-1.211,13.745,4.706,9.828,4.706,9.828
	c-2.917,9.667,3.995,7.916,3.995,7.916s-0.168,2.234-0.502,6.215s5.172,1.87,5.172,1.87s-0.399,10.568,4.403,4.713
	S284.852,650.041,284.852,650.041"/>
</svg>
