<?xml version="1.0" encoding="utf-8"?>
<!-- Generator: Adobe Illustrator 15.0.0, SVG Export Plug-In . SVG Version: 6.00 Build 0)  -->
<!DOCTYPE svg PUBLIC "-//W3C//DTD SVG 1.1//EN" "http://www.w3.org/Graphics/SVG/1.1/DTD/svg11.dtd">
<svg version="1.1" id="hands_x5F_accessories" xmlns="http://www.w3.org/2000/svg" xmlns:xlink="http://www.w3.org/1999/xlink"
	 x="0px" y="0px" width="732px" height="1891.836px" viewBox="0 0 732 1891.836" enable-background="new 0 0 732 1891.836"
	 xml:space="preserve">
<polygon fill="#FFFFFF" stroke="#000000" stroke-miterlimit="10" points="607.151,1658.157 616.665,1504.603 620.667,1275.936 
	622.494,1143.633 611.968,1142.613 612.418,1273.27 599.118,1658.157 "/>
<polygon fill="#FFFFFF" stroke="#000000" stroke-miterlimit="10" points="623.875,1101.938 635.194,625.594 629.667,626.417 
	616.769,1099.937 "/>
<path fill="#FFFFFF" stroke="#000000" stroke-miterlimit="10" d="M631.197,626.781c0,0,12.883,0.641,13.771-11.581
	c0.921-12.678,13.323-22.63,13.323-22.63s-8.677-6.537-26.891-5.555c-6.164,0.332-13.42,0.639-21.801,3.544
	c0,0,11.386,8.549,11.831,22.127C621.874,626.265,631.197,626.781,631.197,626.781z"/>
<path fill="#FFFFFF" stroke="#000000" stroke-miterlimit="10" d="M166.704,1254.218c0,0,5.549,13.835-9.551,26.383
	c-15.1,12.549-17.559,13.666-17.559,13.666s-17.765-18.335-16.876-31.858c1.12-17.048,3.11-16.806,3.11-16.806l-4.612-5.529
	c0,0-6.936,10.155-5.604,24.181c1.333,14.024,12.879,30.013,12.879,30.013l-15.319-2.809l-0.225,10.013l23.701,1.535l-4.378,57.081
	h11.492l0.718-56.712l24.757,0.359v-10.271l-21.205,0.803c0,0,19.468-8.665,27.409-32.399c3.161-9.449-3.192-8.687-3.192-8.687
	L166.704,1254.218z"/>
</svg>
