<?xml version="1.0" encoding="utf-8"?>
<!-- Generator: Adobe Illustrator 15.0.0, SVG Export Plug-In . SVG Version: 6.00 Build 0)  -->
<!DOCTYPE svg PUBLIC "-//W3C//DTD SVG 1.1//EN" "http://www.w3.org/Graphics/SVG/1.1/DTD/svg11.dtd">
<svg version="1.1" id="crown2_1_" xmlns="http://www.w3.org/2000/svg" xmlns:xlink="http://www.w3.org/1999/xlink" x="0px" y="0px"
	 width="732px" height="1891.836px" viewBox="0 0 732 1891.836" enable-background="new 0 0 732 1891.836" xml:space="preserve">
<path fill="#FFFFFF" stroke="#000000" stroke-miterlimit="10" d="M331.627,459.468l0.013,21.018l-40.636,2.002l0.092-23.02
	c-17.005,0.976-37.612-6.598-47.359-23.522c-13.882-24.107,4.327-33.912,10.729-86.865c3.212-26.571-3.656-72.781-3.656-72.781
	c-7.584-37.016-12.81-60.864-12.81-60.864c-3.036-8.328-22.511-60.414-14-62.167c0,0,6.667-11,28.271,62.167
	c13.777,46.658,24.153,76.685,21.936,131.167c-0.801,19.685-3.715,30.051-8.711,53.275c-7.483,34.79,24.648,36.75,40.833,43.696
	c7.11,3.05,5.769,13.167,7.449,9.66c1.68-3.506,0.541-7.89,8.09-11.834c7.55-3.945,25.838-1.881,35.369-20.467
	s-6.945-57.114-5.833-91.007c1.112-33.893,2.847-116.952,21.194-148.322c15.401-26.333,17.604-23,17.604-23
	c6.696-1.058,6.221,9.125-6.544,41.525c-10.468,26.571-16.044,113.284-12.195,146.596c3.849,33.312,20.43,58.441,12.14,83.252
	S331.627,459.468,331.627,459.468"/>
</svg>
