<?xml version="1.0" encoding="utf-8"?>
<!-- Generator: Adobe Illustrator 15.0.0, SVG Export Plug-In . SVG Version: 6.00 Build 0)  -->
<!DOCTYPE svg PUBLIC "-//W3C//DTD SVG 1.1//EN" "http://www.w3.org/Graphics/SVG/1.1/DTD/svg11.dtd">
<svg version="1.1" id="skin" xmlns="http://www.w3.org/2000/svg" xmlns:xlink="http://www.w3.org/1999/xlink" x="0px" y="0px"
	 width="732px" height="1891.836px" viewBox="0 0 732 1891.836" enable-background="new 0 0 732 1891.836" xml:space="preserve">
<path fill="#FFFFFF" stroke="#000000" stroke-miterlimit="10" d="M321.316,609.697l-13.144,51.846l0.62,19.21l-0.125,58.515
	c0,0,34.601-1.608,44.057-27.161c0,0-2.506-26.68,9.026-30.005c13.389-3.86,30.805-4.404,32.407-9.717
	c0.875-2.902,0.473-10.16,1.508-14.825c0.992-4.475,1.965-6.13,2.604-8.708c0.369-1.486-3.363-2.479-7.807-3.075
	c-3.802-0.511-5.392-0.733-5.392-0.733c0.43-0.066,1.923,0.33,4.867,0.75c4.845,0.69,8.908,1.443,9.015,0.301
	c0.886-9.492,0.064-22.652,3.553-25.313c5.746-4.383,12.358-2.017,5.118-13.588c-4.496-7.188-12.533-33.247-12.533-33.247
	s-13.819-12.677-46.091,5.99c0,0-3,15-14.667,15.667S321.316,609.697,321.316,609.697z"/>
<path fill="#FFFFFF" stroke="#000000" stroke-miterlimit="10" d="M194.333,723.269c0,0-17.333,9-23,43.667
	c-6.412,39.228-18.723,185.353-18.723,185.353S139,1003.846,139,1081.602c0,47.029-2.22,36.117-8.103,89.062l-0.71,7.75
	c-15.037,23.039-12.504,43.896-10.625,55.805s9.399,8.904,9.399,8.904c3.106,6.791,14.521,7.5,12.748,5.791
	c7.29,7.021,16.854,1.002,16.854,1.002c5.64,7.896,16.226,1.601,16.226,1.601c-0.692,10.677,15.44,18.461,14.971,15.586
	c-0.469-2.875,4.333-17.279,0.672-46.846c-3.663-29.566-11.375-38.21-11.375-38.21v-5.005c0,0,16.115-108.663,25.442-156.439
	c9.326-47.774,1.5-68.312,1.5-68.312s23.193-80.188,23.998-152.188c0.131-11.741,10.319,24.469,11.335,32.502
	c1.229,9.719,2.667,23,2.667,23s67.332-12,125.666,5.333l1.668-4l17.333-1l1.616,2.551c0,0,12.15,78.08,23.95,113.22
	c18.435,54.896,93.058,115.512,93.058,115.512s42.848,45.406,67.041,58.383c29.77,15.967,50.486,15.092,55.002,13.003
	c4.625-2.142,7.862-12.466,7.862-12.466c3.775-3.944,3.775-11.953,3.775-11.953c5.106-5.697,2.254-14.355,2.254-14.355
	c6.559-15.442-16.132-19.146-16.132-19.146c-8.594-2.193-49.517-6.59-49.517-6.59s-42.542-50.691-65.261-83.11
	c-19.931-28.438-17.613-33.11-52.98-64.956l-6.784-62.922c-5.547-71.834-8.089-117.945-13.541-137.683
	c-2.344-8.485-24.681-14.485-24.681-14.485s-19.663,70-105.33,75.334c0,0-2.667,12.666-1.333,36.332c0,0-1,1.668-15,1.334
	s-35.667,0-35.667,0s-8,1.332-7.333-6.334s1.333-76,1.333-76s-2.333-9.666-1-16.332c1.333-6.668,1-8.668,1-8.668
	s-0.333-7.666-0.333-14.332c0-6.668-0.667-10-0.667-10s-2.333-4.668-15.333-2.668S199.333,718.269,194.333,723.269z"/>
<path fill="#FFFFFF" stroke="#000000" stroke-miterlimit="10" d="M366.277,1630.229l4.325,39.807c0,0,66.73,35.23,99.045,46.566
	c16.311,5.722,26.158,3.695,29.342,5.687c9.717,6.072-2.488,13.813-2.488,13.813s-39.295-1.609-61.5-2.048
	c-22.206-0.438-114.5,5.048-117.128-14.427c-1.013-7.501,1.333-19.27,0-31.33c-1.333-12.062-13.03-62.763-13.03-62.763
	L366.277,1630.229z"/>
<path fill="#FFFFFF" stroke="#000000" stroke-miterlimit="10" d="M214.54,1619.531c0,0-2.317,58.044-5.039,70.994
	c-3.378,16.076-1.782,37.188,10.034,37.501c17.347,0.462,95.797,8.075,122.763,8.002c0,0,13.247,1.543,16.432-2.315
	c0,0,15.938,3.31,16.876,0c0,0,20.563,1.893,21.438,1.007c0.874-0.887,9.576-12.979,1.583-14.73
	c-7.994-1.754-23.464-5.562-23.464-5.562s-46.663-15.981-60.845-18.907c0,0-22.424-13.51-48.184-27.137
	c0,0-0.161-32.729,3.413-44.873L214.54,1619.531z"/>
<path fill="#FFFFFF" stroke="#000000" stroke-miterlimit="10" d="M362.333,621.935"/>
</svg>
