<?xml version="1.0" encoding="utf-8"?>
<!-- Generator: Adobe Illustrator 15.0.0, SVG Export Plug-In . SVG Version: 6.00 Build 0)  -->
<!DOCTYPE svg PUBLIC "-//W3C//DTD SVG 1.1//EN" "http://www.w3.org/Graphics/SVG/1.1/DTD/svg11.dtd">
<svg version="1.1" id="bird" xmlns="http://www.w3.org/2000/svg" xmlns:xlink="http://www.w3.org/1999/xlink" x="0px" y="0px"
	 width="732px" height="1891.836px" viewBox="0 0 732 1891.836" enable-background="new 0 0 732 1891.836" xml:space="preserve">
<g>
	<path fill="#FFFFFF" stroke="#000000" stroke-miterlimit="10" d="M329.181,566.312c0,0,50.777-13.208,63.753-2.691l0.99-5.362
		c0,0,21.743,7.561,28.043-15.233c0,0,2.359,0.276,8.392-1.984c6.031-2.26,9.354,2.807,9.354,2.807s4.1-5.308-8.133-9.968
		c0,0-4.729-13.091-17.045-9.565c-12.315,3.525-3.431,15.223-4.131,18.176c-0.701,2.953-2.272,6.099-5.702,5.94
		c-3.43-0.159-7.39-10.335-15.069-16.249c0,0-16.033-23.081-78.32-25.12c-63.467-2.078-82.445,30.3-82.445,30.3l-29.705-8.965
		c0,0-10.488,16.021,1.812,41.19c0,0,23.073-1.046,26.714,0c0,0,4.34,9.994,12.394,15.657c4.429,3.115,20.588,6,40.917-2.893
		C297.635,575.074,314.5,575.352,329.181,566.312z"/>
	<g>
		<path fill="#FFFFFF" stroke="#000000" stroke-miterlimit="10" d="M247.275,709.6c6.783,4.629,19.206-25.897,39.95-63.945
			c20.744-38.046,36.992-69.378,44.016-89.142c7.023-19.763,31.093-41.009,31.093-41.009s-31.29-14.234-83.927-6.385l1.687-0.625
			c0,0-18.604,22.621-20.919,34.85c0,0-9.2,18.03-11.198,30.716c-1.999,12.687-5.243,10.289-8.839,23.477
			s-3.292,17.265-3.292,17.265s-6.803,15.826-5.441,22.3c0,0-4.588,11.51-1.835,14.627c2.753,3.117,1.835,1.199,1.835,1.199
			s-2.746,10.248-0.692,11.358c2.054,1.111,2.665-1.527,2.665-1.527s-1.209,5.515-1.132,9.831c0.078,4.316,1.36,5.516,2.717,5.516
			c1.358,0-1.144,9.591,1.884,10.07c3.027,0.48,2.345-1.918,2.345-1.918s-1.896,7.434,0.947,9.112
			c2.843,1.679,3.525,0.48,3.525,0.48s-2.149,7.434,1.36,8.873c3.51,1.438,4.406-1.199,4.406-1.199S246.036,708.754,247.275,709.6z"
			/>
	</g>
</g>
</svg>
