<?xml version="1.0" encoding="utf-8"?>
<!-- Generator: Adobe Illustrator 15.0.0, SVG Export Plug-In . SVG Version: 6.00 Build 0)  -->
<!DOCTYPE svg PUBLIC "-//W3C//DTD SVG 1.1//EN" "http://www.w3.org/Graphics/SVG/1.1/DTD/svg11.dtd">
<svg version="1.1" id="bracelets" xmlns="http://www.w3.org/2000/svg" xmlns:xlink="http://www.w3.org/1999/xlink" x="0px" y="0px"
	 width="732px" height="1891.836px" viewBox="0 0 732 1891.836" enable-background="new 0 0 732 1891.836" xml:space="preserve">
<path fill="#FFFFFF" stroke="#000000" stroke-miterlimit="10" d="M130.188,1178.414c0,0,33.595,0.188,48.87,3.188l7.06-50.982
	l-49.688-1.573L130.188,1178.414z"/>
<path fill="#FFFFFF" stroke="#000000" stroke-miterlimit="10" d="M167.003,800.305c0,0,30.031-10.19,63.192,5.297l-3.976,50.026
	c0,0-8.626-8.69-64.221-3.295L167.003,800.305z"/>
<path fill="#FFFFFF" stroke="#000000" stroke-miterlimit="10" d="M574.333,1091.603l-28.36-36.516c0,0-24.789,10.507-38.683,32.13
	l32.042,31.304C539.333,1118.521,555.333,1094.603,574.333,1091.603z"/>
<path fill="#FFFFFF" stroke="#000000" stroke-miterlimit="10" d="M388.667,855.935l62.076,2.155l-3.98-51.243
	c0,0-9.382-3.245-50.428,0.422c0,0,12,8.333,12.001,19.668c0,0,3.664,1.998,3.331,7.665S405,841.269,405,841.269
	S403.693,855.068,388.667,855.935z"/>
</svg>
