<?xml version="1.0" encoding="utf-8"?>
<!-- Generator: Adobe Illustrator 16.0.0, SVG Export Plug-In . SVG Version: 6.00 Build 0)  -->
<!DOCTYPE svg PUBLIC "-//W3C//DTD SVG 1.1//EN" "http://www.w3.org/Graphics/SVG/1.1/DTD/svg11.dtd">
<svg version="1.1" id="Layer_4" xmlns="http://www.w3.org/2000/svg" xmlns:xlink="http://www.w3.org/1999/xlink" x="0px" y="0px"
	 width="2529.088px" height="1891.836px" viewBox="0 0 2529.088 1891.836" enable-background="new 0 0 2529.088 1891.836"
	 xml:space="preserve">
<g>
	<path fill="#FFFFFF" stroke="#000000" stroke-miterlimit="10" d="M2368.598,1753.761c20.853,0.173,20.058-11.159,20.058-11.159
		l-5.3-135.333c0,0,0.637-86.562-0.033-110.667c-0.655-24.109-24.633-80.828-28.667-90c-4.03-9.17-8-60.957-8-60.957l-113.335-3.646
		l23.779,57.463l9.556,88.462l33.333,60.958l16,134.388c0,0-32,34.667-80,42s-54.666,5.999-54.666,11.333s0,11.334,3.333,11.334
		c0,0,6,2.667,18,2c0,0,7.333,1.334,18,0c0,0,10.001,2.667,24.667,0c0,0,29.999,2,46.666,1.333S2368.598,1753.761,2368.598,1753.761
		z"/>
	<path fill="#FFFFFF" stroke="#000000" stroke-miterlimit="10" d="M2171.354,1552.293l8.005-9.566
		c22.537-40.244,8.272-99.127,6.545-108.926c-1.729-9.799,35.419-91.803,35.419-91.803l-108.667-2.286
		c-3.956,15.156-2,97.557-2,97.557l-28.295,102.384l-3.264,22.758c0,0-24.127,114.74-35.489,123.828
		c-8.109,6.492-83.969,31.306-120.27,43.03c0,0-25.35,0.666-25.35,7.333s2,19.655,32.667,17.161s21.334-3.827,30.667-2.494
		s21.997-3.001,39.665-4.167h58.668c0,0,30.999,5.501,42.333,2.834s10.666-10.666,12-30s16-80,26.667-102
		S2171.354,1552.293,2171.354,1552.293z"/>
	<path fill="#FFFFFF" stroke="#000000" stroke-miterlimit="10" d="M2178.053,1048.545c48.651,17.557,153.253-35.951,153.253-35.951
		c0.778-34.889,0.183-87.242,25.183-133.742c27.152-50.503,43.25-50.384,43.25-50.384l-151.22,70.634c0,0-46.368,15.796-62.03,3.5
		c-5.519-4.333-30-19-30-19s10.587,62.34,15.362,105.016c0.08,0.715,0.158,1.425,0.234,2.129c0,0-0.097,13.855-1.347,26.355
		S2178.053,1048.545,2178.053,1048.545"/>
	<path fill="#FFFFFF" stroke="#000000" stroke-miterlimit="10" d="M2328.238,1079.102c0.75,22.75,14.25,102.25,14.25,102.25
		c3.5,13-1.25,28-7.75,44.75s0.5,71.25,2,83.5s14,35.25,14,35.25l-349.75-8.5l175.604-268.75l0,0c0,0,32.126,4.747,147.559-7.169
		C2324.15,1060.433,2327.488,1056.352,2328.238,1079.102z"/>
	<path fill="#FFFFFF" stroke="#000000" stroke-miterlimit="10" d="M1749.41,731.845c16.861,5.048,57.361,15.014,57.361,15.014
		c-15.217-6.243-13.783-6.757-13.783-12.216s32.771-2.041,32.771-2.041l7.229,2.041c0,0,15.316,1,35.5,2.464
		c19.737,1.42,23.997,20.611,24.5,21.495l122.361,118.33c0,0,64.092-98.934,86.231-122.01
		c22.142-23.093,55.356-20.111,55.356-20.111s6.996,32.791,35.496,52.791c39.589,27.781,78.461,17.821,78.461,17.821l-46.898,24.663
		l-70.258-35.484l-33.75,53.5c0,0-20.03,26.122-40.5,53c-20.476,26.89-61.5,60.5-80.202,60.5c-21.298,0-138.587-168.758-141.29-166
		c-2.7,2.748-45.008,3-45.008,3s-62.5-11.5-71.998-20.248c0,0-4.335-8.085,3.998-9.418s0.333-1.333,0.333-1.333
		s-7.666-1.201-7.333-6.601s4-6.066,4-6.066s-9.001-4-7.667-10s3.334-6,3.334-6s-7.271-2.333-3.469-8.667
		S1749.41,731.845,1749.41,731.845z"/>
	<path fill="#FFFFFF" stroke="#000000" stroke-miterlimit="10" d="M2166.545,567.604c-2.133,5.473,0.889-85.291,0.889-85.291
		s137.055,22.789,189.055-26.711c56.419-53.706,53-172.5,53-172.5l44.53-5.634c0,0-46.778,173.269-73.53,229.634
		c-26.749,56.366-76.5,148.525-76.5,148.525l-22.357,0.136c0,0-14.893,0.089-20.393-9.411s-7.75-23.75-7.75-23.75
		s-1.75-13.75-3.75-15.25s-19-3.75-19-3.75s-3.75-28.75-23.66-32.643L2166.545,567.604z"/>
	<path fill="#FFFFFF" stroke="#000000" stroke-miterlimit="10" d="M2368.488,870.088l52.039-0.462l2.088-47.246
		c0,0,10.04-87.445-13.96-105.778s-33.332-13.667-64.666-18.333s-42.6-0.085-56.3-42.542l-20.801-3.812
		c0,0,6.737,18.282,10.946,30.413s10.806,33.774,9.854,43.774l0,0c0,0,32.549,7,59.549,6.75S2368.488,870.088,2368.488,870.088z"/>
	<ellipse fill="#FFFFFF" stroke="#000000" stroke-miterlimit="10" cx="2251.513" cy="202.402" rx="35.5" ry="26"/>
	<path fill="#FFFFFF" stroke="#000000" stroke-miterlimit="10" d="M2280.329,441.704h36.825c0,0-4.166-55.602-14.916-96.852
		s-12.75-54-11.5-55.875s2-3.625,5.25-3.125s12.758-9.029,2.754-16.64s-19.803-0.746-29.278,5.197h-33.198
		c0,0-6.527-11.315-19.277-8.561s-15,17.004-4.75,20.004c0,0,3.25-1.494,0.5,9.878s-32.417,139.372-17.75,140.622
		s33.509,4.184,33.509,4.184L2280.329,441.704z"/>
	<path fill="#FFFFFF" stroke="#000000" stroke-miterlimit="10" d="M2251.513,443.269c0,0,38.809-1.334,43.809-3.667
		s4-27.333,0-48.333s-23-102-24-107.667s-9.249-43.638,4.417-46.971c0,0,10.2-8.229-2.75-8.229c-7.639,0-10.026,0.575-19.665-0.034
		s-25.336-3.166-25.002,0.034s10.334,8.866,11.334,15.2s-4.334,38-6.667,48s-31.666,144.333-23.333,146
		S2242.988,442.602,2251.513,443.269z"/>
	<ellipse fill="#FFFFFF" stroke="#000000" stroke-miterlimit="10" cx="2253.438" cy="415.102" rx="32.5" ry="29.833"/>
	<path fill="#FFFFFF" stroke="#000000" stroke-miterlimit="10" d="M2248.65,269.27v-2.001v-39.28h11.005v41.281
		C2259.655,269.27,2254.146,268.77,2248.65,269.27z"/>
	<path fill="#FFFFFF" stroke="#000000" stroke-miterlimit="10" d="M2269.464,274.409c0,0-10.921-11.693-33.198,0l-1.204,6.873
		c0,0,20.354-10.209,35.557-1.111L2269.464,274.409z"/>
	<path fill="#FFFFFF" stroke="#000000" stroke-miterlimit="10" d="M2273.992,295.729l-2.169-9.7c0,0-14.335-8.562-37.659,0
		l-2.104,9.7C2232.06,295.729,2252.996,284.524,2273.992,295.729z"/>
	<path fill="#FFFFFF" stroke="#000000" stroke-miterlimit="10" d="M2253.438,385.269c0,0-34.616-22.833-54.45-35.667s-48-38-46.5-50
		s11.166-10.5,10.833-5.667s-2.833,1.794-2.833,1.794s-4.5-0.294-4,4.372s17.666,3.177,16.166-9.745s-28.5-16.166-28.333,5.373
		s39.333,57.206,67.333,74.206s28.354,17.992,28.354,17.992s7.257-2.659,13.988-2.649"/>
	<path fill="#FFFFFF" stroke="#000000" stroke-miterlimit="10" d="M2191.377,430.081c0,0-8.639,7.479-14.139,0
		s18.027-31.979,14.139-39.479s-6.889-9-3.889-13.25s5.488-14.25-3.381-15.5s-14.295,8.5-7.707,13.5l0.838,2.75
		c0,0-7.75-2.25-7.5,1.5s8.5,8.75,7.25,11.75s-12.148,27.355-8.75,36.75c4.25,11.75,9.25,10.018,12.25,10
		c9.003-0.053,14.5-1.75,14.5-1.75L2191.377,430.081z"/>
	<path fill="#FFFFFF" stroke="#000000" stroke-miterlimit="10" d="M2316.191,430.88c0,0,19.047,5.721,16.797-6.529
		s-3.613-19.51-8.307-24.38s-5.943-14.37-1.193-17.87s-1.25-4.5-3-7.25s-2-11.219,5-13.109s10.25,3.609,11,6.359s-1,10-3,10.25
		s9.5,2.5,10.75,4.75s-4,7.25-8,8.25c0,0-4.25,0-0.5,7.5s10.5,32.25,4.25,37s-9.668,6.25-22.834,5L2316.191,430.88z"/>
	<path fill="#FFFFFF" stroke="#000000" stroke-miterlimit="10" d="M2328.645,459.351c11.296,0.117,19.601,4.591,38.851,5.591
		s31.243,1.41,44.493-5.84s16.25-19.051,12-20.9s-1,2.317-9.5,6.734s-22.75,11.417-66,1.667s-87.439-3.732-93.25-1.667
		l-1.192,42.668l14.942-1c0,0,1.003-17.804,9.25-22.752c0,0,5.25-2.038,21.75-2.144S2323.284,459.295,2328.645,459.351z"/>
	<path fill="#FFFFFF" stroke="#000000" stroke-miterlimit="10" d="M2253.438,487.235l-12.7,0.369c0,0,2.25-21.502-5.75-23.502
		s-20.91-1.5-35.83-7c0,0-9.17-0.25-12.42-2c0,0-12.75,8.25-27.75,5s-16.75-6.5-28-5s-38.75,7.699-50.5-16.9c0,0-0.5-6.35,7.5,1.65
		s16.75,13.25,28.5,9.75s29.25-10.083,41.5-4.667c0,0,8.333-6.328,18.5-6.734s18.5-1.85,18.5-1.85l34,4l8.839,0.92
		c0,0,12.411,4.497,17.411,3.663L2253.438,487.235z"/>
	<path fill="#FFFFFF" stroke="#000000" stroke-miterlimit="10" d="M2166.485,556.619c0,0-9.497,5.482-12.747,1.982
		s-0.602-9.75,3.199-15s7.584-10.25,2.442-15.25s-14.392-11.5-17.892-5.75c-2.115,3.476,3.533,6.312,8.332,8.012
		c3.141,1.112,5.918,1.738,5.918,1.738s-9-1.25-11.25,15.75s7.398,18.75,12.449,18.25s9.548-3.25,9.548-3.25V556.619z"/>
	<path fill="#FFFFFF" stroke="#000000" stroke-miterlimit="10" d="M2165.843,568.545c0,0,46.193-2.252,55.193,11.748
		s9,24.25,9,24.25h-10.5c0,0-2-21.5-22.75-23.75s-31.003-0.75-31.003-0.75L2165.843,568.545z"/>
	<path fill="#FFFFFF" stroke="#000000" stroke-miterlimit="10" d="M2196.488,600.602"/>
	<path fill="#FFFFFF" stroke="#000000" stroke-miterlimit="10" d="M2165.783,580.043c0,0-1.545,6.309-1.545,11.559
		s-5.5,25.75-8,31.25s-5.961,18.5-2.48,18.75s10.73,0,10.73,0s1.994,11.572,1.997,14.161s14.753,1.839,14.753,1.839l-14.75,0.75
		c0,0,5.5,15.75,6,20s1.75,6.75,12.75,7.25s26,7.25,28.5,17.5s3,39.5,27.25,45.25s43.5-8.75,46.25-21s-7.75-42.5-13.25-54.25
		s-7.1-21.188-7.1-21.188s-8.643-5.375-11.67-21.314s-5.48-23.248-5.48-23.248l-19-3.75l-11.202,0.941c0,0-0.952-19.809-22.75-23.75
		S2165.783,580.043,2165.783,580.043z"/>
	<path fill="#FFFFFF" stroke="#000000" stroke-miterlimit="10" d="M2216.238,605.852c0,0-11-1.5-19.75-5.25s-21.5-2.25-24.75,5.25
		s-6.932,7.5,5.909,7.25s28.591-7.202,28.591-7.202L2216.238,605.852z"/>
	<path fill="#FFFFFF" stroke="#000000" stroke-miterlimit="10" d="M2178.053,1048.545l-6.064,1.307l-1.25,17.5c0,0,85.25,3,161.25-8
		l3.5-1.217l6-103.533h-7.235l-2.947,57.992C2331.306,1012.594,2228.117,1066.488,2178.053,1048.545z"/>
	<path fill="#FFFFFF" stroke="#000000" stroke-miterlimit="10" d="M2326.286,1060.148h6.702c0,0,5.25,76.453,8.5,86.953
		s12.25,45,9.25,60s-11,22.5-10,36.5s0.75,70.5,17.25,98.75s24.5,68.25,36.5,98.75s34.5,101,34.5,101l42.5,158h-17.5
		c0,0-15.5-105.5-31.5-154.5s-54-150.5-54-150.5l-17.75-50.25c0,0-12.874-20.048-15.368-46.68s-6.9-53.215-1.818-67.948
		s12.436-27.595,8.937-48.872S2326.286,1060.148,2326.286,1060.148z"/>
	<path fill="#FFFFFF" stroke="#000000" stroke-miterlimit="10" d="M2354.622,737.106c0,0,67.366-14.53,79.366,26.982
		s-27.191,60.872-34.25,64.378l-135.043,63.078c0,0-51.613,24.453-69.168,14.875s-87.702-60.21-87.702-60.21l-56.837-43.108
		c0,0-8.5-9.948-22.5-6.974s-47.5,3.474-76.5-8.026s-28.666-9.833-28.333-14.167s4.666-6.333,4.666-6.333s-15-3.201-16.333-6.601
		s4.333-9.066,4.333-9.066l-16.333-6.667c0,0,0.333-11.333,10.333-12.333c0,0-11.666-4.667-5.666-9.333s12.605-6,16.803-3.333
		s38.863,13.667,38.863,13.667s-1.999-11,8.334-8.667s34.999,4.333,54.666,7s45.667,19.333,45.667,19.333l155.008,78.484
		l121.798-64.051l16.648-9.815c0,0-27.287,14.961-20.954,13.628L2354.622,737.106z"/>
	<path fill="#FFFFFF" stroke="#000000" stroke-miterlimit="10" d="M2092.338,884.25c0,0-38.705-37.056-54.027-42.102l21.085-31.034
		l57.182,41.438L2092.338,884.25z"/>
	<polygon fill="#FFFFFF" stroke="#000000" stroke-miterlimit="10" points="2305.487,787.101 2345.794,765.6 2391.157,832.476 
		2343.733,854.627 	"/>
	<g>
		<path fill="#FFFFFF" stroke="#000000" stroke-miterlimit="10" d="M1739.987,738.935c0,0,33.668,12.667,56.001,17.333"/>
		<path fill="#FFFFFF" stroke="#000000" stroke-miterlimit="10" d="M1743.319,755.268c0,0,35.002,11.334,57.002,16.001"/>
		<path fill="#FFFFFF" stroke="#000000" stroke-miterlimit="10" d="M1748.579,768.152c0,0,38.742,12.782,58.742,16.449"/>
		<path fill="#FFFFFF" stroke="#000000" stroke-miterlimit="10" d="M1806.771,746.859c0,0,17.55,4.076,44.55,0.743"/>
	</g>
	<path fill="#FFFFFF" stroke="#000000" stroke-miterlimit="10" d="M1910.321,732.935c0,0,45.333,23,98,25.667"/>
	<path fill="#FFFFFF" stroke="#000000" stroke-miterlimit="10" d="M1916.321,751.935c0,0,45.667,11.667,82.667,19.333"/>
	<path fill="#FFFFFF" stroke="#000000" stroke-miterlimit="10" d="M1960.321,733.935c0,0,3.333,6,48,6.333"/>
	<path fill="#FFFFFF" stroke="#000000" stroke-miterlimit="10" d="M1802.988,732.935c0,0,13.979-27.287,8.333-43
		c-7.666-21.333-22-26.064-24-25.699s-2.666-8.474-2.666-8.474h-14.667v6.505c0,0-29.002,16-30.001,36s11.608,40.204,37.963,40.667
		C1793.315,739.205,1802.988,732.935,1802.988,732.935z"/>
	<path fill="#FFFFFF" stroke="#000000" stroke-miterlimit="10" d="M1780.321,646.935c0,0,11.333-2.333,6-15.333
		s-2.286-11.667-2.286-11.667S1764.987,639.935,1780.321,646.935z"/>
	<path fill="#FFFFFF" stroke="#000000" stroke-miterlimit="10" d="M1952.988,623.268c0,0,7.999,16,4.666,19.667s-11.333,3-10.666-3
		s5.72-18,5.72-18"/>
	<path fill="#FFFFFF" stroke="#000000" stroke-miterlimit="10" d="M1944.655,655.763h18.333v12.839c0,0,29.525,3.206,27,31.333
		s-32.666,26.753-35.333,27.876s-43.668-2.707-44.334-30.458s33.334-28.751,33.334-28.751L1944.655,655.763z"/>
	<path fill="#FFFFFF" stroke="#000000" stroke-miterlimit="10" d="M2243.655,604.543c0,0-11.333-12.942-5-24.275
		s32.146-15.333,32.239,4s-6.906,28.905-6.906,28.905l10.333,24.762l-16.666-24.762
		C2257.655,613.173,2246.655,604.484,2243.655,604.543z"/>
	<path fill="#FFFFFF" stroke="#000000" stroke-miterlimit="10" d="M2119.988,642.268"/>
	<path fill="#FFFFFF" stroke="#000000" stroke-miterlimit="10" d="M2156.938,734.811l61.885-8.483c0,0,5.909,26.37,36.704,23.322
		s32.163-23.714,32.163-23.714l63.049,7.722l3.884,3.449l-12.138,30.259l-71.592,38.058
		C2270.893,805.423,2185.321,823.269,2156.938,734.811z"/>
	<path fill="#FFFFFF" stroke="#000000" stroke-miterlimit="10" d="M2300.399,728.469c0,0-9.41,32.532-42.744,32.532
		s-46.984-17.646-49.659-33.189l10.826-1.484c0,0,4.792,25.923,36.704,23.322c25.129-2.048,33.247-23.322,33.247-23.322
		L2300.399,728.469z"/>
	<path fill="#FFFFFF" stroke="#000000" stroke-miterlimit="10" d="M2338.666,732.179c0,0-0.677,48.423-74.011,60.09
		c0,0-34.667,6-58.667-13.667s-35.25-45.683-35.25-45.683l-13.801,1.892c0,0,13.348,44.514,44.199,58.319
		s38.327,15.115,69.756,12.293l71.592-38.058l12.138-30.259l-3.884-3.449L2338.666,732.179z"/>
	<polygon fill="#FFFFFF" stroke="#000000" stroke-miterlimit="10" points="2180.97,685.248 2172.988,790.352 2153.738,786.102 
		2175.733,683.861 	"/>
	<path fill="#FFFFFF" stroke="#000000" stroke-miterlimit="10" d="M2185.987,1020.602c0,0-1.333,9,4.667,8.5
		S2192.653,1019.936,2185.987,1020.602z"/>
</g>
</svg>
