<?xml version="1.0" encoding="utf-8"?>
<!-- Generator: Adobe Illustrator 16.0.0, SVG Export Plug-In . SVG Version: 6.00 Build 0)  -->
<!DOCTYPE svg PUBLIC "-//W3C//DTD SVG 1.1//EN" "http://www.w3.org/Graphics/SVG/1.1/DTD/svg11.dtd">
<svg version="1.1" id="Layer_2" xmlns="http://www.w3.org/2000/svg" xmlns:xlink="http://www.w3.org/1999/xlink" x="0px" y="0px"
	 width="2529.088px" height="1891.836px" viewBox="0 0 2529.088 1891.836" enable-background="new 0 0 2529.088 1891.836"
	 xml:space="preserve">
<g>
	<g>
		<path fill="#FFFFFF" d="M943.105,1695.123c0.691,0,2.062-1.043,0.766-1.043C943.179,1694.08,941.809,1695.123,943.105,1695.123
			L943.105,1695.123z"/>
	</g>
</g>
<path fill="#FFFFFF" stroke="#000000" stroke-miterlimit="10" d="M962.224,1891.86"/>
<path fill="#FFFFFF" stroke="#000000" stroke-miterlimit="10" d="M-56.5-196.949l12-1c0,0-12,333.166-12,366.082
	c0,32.918-4,77.187-4,77.187l-16-0.654c0,0,13.333-264.948,13.333-284.28C-63.167-58.949-53.166-192.949-56.5-196.949z"/>
<g>
	<path fill="#FFFFFF" stroke="#000000" stroke-miterlimit="10" d="M-11.833-162.949c0,0-4.333-29-12.333-33
		c0,0-2.334-1.896-2.667,2.386c-0.333,4.28-2.333,47.946-2.333,47.946s2.667,1.668,6,1.668s47.333-1.334,57,0
		c9.667,1.332,40.667,2.334,40.667,0s0-11,0-11l-16.667-43l-14,42l11-0.668c0,0,1.333-16.933,5.667-13.633s7,14.301,7,14.301
		s0.667,5.332-3.667,3.666s-8.333-4.002-8.333-4.002s-10-0.998-15.667,0.668C34.167-153.949,7.167-151.615-11.833-162.949z"/>
	<path fill="#FFFFFF" stroke="#000000" stroke-miterlimit="10" d="M24.834-173.283l1.667-20.28l-12-2.386
		c0,0,1.667,6.332,1.333,11.332s-1.333,11.334-1.333,11.334H24.834z"/>
	<rect x="20.501" y="-159.617" fill="#FFFFFF" stroke="#000000" stroke-miterlimit="10" width="8.652" height="15.304"/>
	<polygon fill="#FFFFFF" stroke="#000000" stroke-miterlimit="10" points="76.501,-107.904 61.834,-125.949 47.834,-114.949 
		37.167,-125.949 22.667,-116.928 12.834,-129.949 -1.833,-115.283 -12.499,-128.283 -31.833,-113.617 -26.166,-109.949 
		-12.499,-115.949 2.167,-103.949 12.834,-116.949 24.827,-105.949 37.501,-116.949 48.501,-103.949 62.167,-114.283 
		70.834,-103.949 	"/>
	<path fill="#FFFFFF" stroke="#000000" stroke-miterlimit="10" d="M74.501-75.283L58.834-95.617L45.167-82.949L34.834-95.617
		l-17,10.166L7.167-95.617L-6.166-83.949l-13.333-14l-12.333,11.332c0,0-4,7.002,4.333,7.668l8.667-7.668l12.667,11.334l13-9
		l10.333,9l16-11.334l9,11.334c0,0,4-0.334,7.333-2.334s10-5.332,10-5.332l9,11L74.501-75.283z"/>
	<polygon fill="#FFFFFF" stroke="#000000" stroke-miterlimit="10" points="72.501,-28.617 67.167,-51.283 63.834,-48.513 
		65.501,-24.617 	"/>
	<polygon fill="#FFFFFF" stroke="#000000" stroke-miterlimit="10" points="-27.833,-29.283 -22.499,-47.951 -26.832,-55.951 
		-35.166,-30.949 	"/>
	<path fill="#FFFFFF" stroke="#000000" stroke-miterlimit="10" d="M3.501-15.283l2-11.666c0,0,15.667,2.334,26.333,0l2,15
		C33.834-11.949,14.501-11.951,3.501-15.283z"/>
	<path fill="#FFFFFF" stroke="#000000" stroke-miterlimit="10" d="M18.667-25.928c30.492,1.176,49.5-27.333,49.5-27.333
		s-36.333-0.356-43.34-0.022c-7.008,0.332-51.66-3-51.66-3S-15.333-27.238,18.667-25.928z"/>
	<path fill="#FFFFFF" stroke="#000000" stroke-miterlimit="10" d="M50.667,26.383c0,0,10-5,15,0s-3.75,17.25-11.25,12.75
		s-13.75,3-16.25,4s7.25,12.75,7.25,12.75l-3.5,1.5c0,0-11-10.25-13.25-11s-14.75,0.5-14.75,0.5l9.75,13.5h-7.25
		c0,0-21-21.75-24.25-25.75s-11.833-8.75-14.667-6s-11.083,9.277-1.083,13.64s13.75,0.86,17.75,6.61s5.917,8.5,9.333,9.75
		s2.667,6.25,2.667,6.25s-4.25-2.75-8.5-5.25s-1.75-4.75-5.5-7s-4.5-2.25-15.75-4s-17.669-16-9.209-22.25s21.709-5.5,21.709-5.5
		s12.25-6,13.5-6.25s12.814-19,12.814-19l3.436,2.88l-3.436,15.12c0,0,7.436,0.75,8.936,0.5l13.25-15.62l4,1.12l-7.583,17.5
		C33.834,17.133,45.917,22.133,50.667,26.383z"/>
	<path fill="#FFFFFF" stroke="#000000" stroke-miterlimit="10" d="M59.667,245.633c0,0-1.5-18-9-18s-11,17-9.5,18
		S59.667,245.633,59.667,245.633z"/>
	<path fill="#FFFFFF" stroke="#000000" stroke-miterlimit="10" d="M59.667,208.883l-7.5-11.75l-3.5,7.5l-7.842-7.5l-3.408,7.25
		l-7.75-10l-4,8.75l-6.5-8.75l-6.25,10.25v4.25l6.5-5.75l7.5,7.25l4.5-6.25l7.75,7.5l1.658-7.5l7.842,6l4.5-5.25l3.25,5.25
		C56.417,210.133,57.167,210.383,59.667,208.883z"/>
	<path fill="#FFFFFF" stroke="#000000" stroke-miterlimit="10" d="M-1.833,209.631v-10.498h-2c0,0-2.25,4.5-7.25,5s-7.5-5.25-10-5
		s-4.75,4.75-10.25,3.875s-7-6.375-9-6.125s-2,12.25-2,12.25L-1.833,209.631z"/>
	<path fill="#FFFFFF" stroke="#000000" stroke-miterlimit="10" d="M-42.333,227.633h36.502c0,0-1.002,17.443-19.252,17.443
		C-40.333,245.076-42.333,227.633-42.333,227.633z"/>
	<path fill="#FFFFFF" stroke="#000000" stroke-miterlimit="10" d="M51.917,189.633c0,0,5.25-5.75,7.75-7.75s2-11.75,2-11.75
		l-4.854,1.75c0,0-4.896-9.25-2.646-9.75s4-1.5,4-1.5v-2.75h-13.75v4.25l5.83,0.75v8l-9.42-0.25c0,0-0.659,8.75,3.591,11.25
		S51.917,189.633,51.917,189.633z"/>
	<path fill="#FFFFFF" stroke="#000000" stroke-miterlimit="10" d="M7.864,189.633c0,0,7.109-5.269,9.803-7
		c3.5-2.25,3.5-12.5,3.5-12.5l-9.409,1.75c0,0-1.894-9.25,0.356-9.75s4-1.5,4-1.5l-1-3.75l-12.198-0.446v3.696l5.277,1.75l-1.001,9
		l-10.421-0.25c0,0-0.659,8.75,3.591,11.25S7.864,189.633,7.864,189.633z"/>
	<path fill="#FFFFFF" stroke="#000000" stroke-miterlimit="10" d="M-18.333,173.758c0,0,0.25,8.375-3.75,10.375s-5,6.75-5,6.75h-3.5
		c0,0-2.5-2.75-6.25-6.25s-1-10.696-2.75-11.599c-1.75-0.901,2.5-1.849,3.75,0s0.586,10.349,6.668,10.099s6.082-9.375,6.082-9.375h6
		"/>
	<polygon fill="#FFFFFF" stroke="#000000" stroke-miterlimit="10" points="30.667,230.633 29.167,245.076 21.167,239.383 
		14.417,243.316 14.417,229.133 16.667,229.133 18.167,236.354 24.167,236.855 25.417,229.133 	"/>
	<path fill="#FFFFFF" stroke="#000000" stroke-miterlimit="10" d="M7.917,231.633l-2,11.685l-9.182-1.685
		c0,0-0.568-4.141,1.432-4.319s5.5,2.569,5.5,2.569l0.75-8.25C4.417,231.633,6.667,229.633,7.917,231.633z"/>
	<path fill="#FFFFFF" stroke="#000000" stroke-miterlimit="10" d="M45.167,93.049c0,0,26.334-13,18.667-14.333
		s-19.667,9.167-36.167,7.167s-57.5-9.834-59.5-7.167s28.5,20.167,39.75,19.667S31.317,100.738,45.167,93.049z"/>
</g>
</svg>
