<?xml version="1.0" encoding="utf-8"?>
<!-- Generator: Adobe Illustrator 16.0.0, SVG Export Plug-In . SVG Version: 6.00 Build 0)  -->
<!DOCTYPE svg PUBLIC "-//W3C//DTD SVG 1.1//EN" "http://www.w3.org/Graphics/SVG/1.1/DTD/svg11.dtd">
<svg version="1.1" id="Layer_5" xmlns="http://www.w3.org/2000/svg" xmlns:xlink="http://www.w3.org/1999/xlink" x="0px" y="0px"
	 width="2529.088px" height="1891.836px" viewBox="0 0 2529.088 1891.836" enable-background="new 0 0 2529.088 1891.836"
	 xml:space="preserve">
<g>
	<path fill="#FFFFFF" stroke="#000000" stroke-miterlimit="10" d="M789.213,1119.827c0,0,2.853,8.658-2.254,14.356
		c0,0,0,8.008-3.775,11.953c0,0-3.237,10.324-7.863,12.466c-4.515,2.089-25.232,2.964-55.001-13.003
		c-24.194-12.977-67.042-58.383-67.042-58.383s-73.869-52.146-96.06-117.514c-11.916-35.1-23.951-116.222-23.951-116.222
		l5.876-55.28l19.708-73.542c0,0,20.11,5.007,26.146,20.76c7.327,19.12,12.299,72.726,14.542,137.682l4.145,53.993
		c33.36,30.037,36.821,40.777,58.624,71.883c22.719,32.419,61.257,85.113,61.257,85.113s40.923,4.396,49.516,6.59
		C773.081,1100.681,795.772,1104.385,789.213,1119.827z"/>
	<path opacity="0.65" fill="#FFFFFF" stroke="#000000" stroke-miterlimit="10" d="M542.667,435.946"/>
	<path fill="#FFFFFF" stroke="#000000" stroke-miterlimit="10" d="M474.003,371.964c0,0-3.947-166.342-3.947-210.363
		c0-30.244-1.833-54.646,36.144-54.646c39.442,0,36.467,42.646,36.467,42.646l26.102,327l-101.245,1.924L474.003,371.964z"/>
	<path fill="#FFFFFF" stroke="#000000" stroke-miterlimit="10" d="M442.252,166.602c0,0,7.695-62.365-33.683-62.365
		c-44.557,0-43.984,47.956-43.984,47.956l-11.324,323.269h86.823L442.252,166.602z"/>
	<polygon fill="#FFFFFF" stroke="#000000" stroke-miterlimit="10" points="753.139,1658.157 764.655,1504.603 766.655,1275.936 
		768.482,1143.633 757.956,1142.613 758.406,1273.27 743.104,1658.157 	"/>
	<polygon fill="#FFFFFF" stroke="#000000" stroke-miterlimit="10" points="769.863,1101.938 781.182,625.594 775.655,626.417 
		762.757,1099.937 	"/>
	<path fill="#FFFFFF" stroke="#000000" stroke-miterlimit="10" d="M461.916,607.382l21.786-16.466
		c33.035-34.248,57.378-16.97,57.378-16.97s8.037,26.059,12.534,33.247c7.24,11.571,0.626,9.205-5.119,13.588
		c-3.488,2.661-2.667,15.821-3.552,25.313c-0.107,1.144-4.171,0.391-9.015-0.3c-2.945-0.42-5.438-0.817-5.868-0.751
		c0,0,2.59,0.223,6.392,0.734c4.443,0.598,8.176,1.589,7.807,3.075c-0.64,2.578-1.612,4.234-2.604,8.708
		c-1.035,4.665-0.633,11.922-1.508,14.825c-1.602,5.313-19.018,5.857-32.407,9.717c-11.533,3.325-8.425,24.957-8.425,24.957
		c-10.058,36.795-47.827,32.004-47.827,32.004l3.294-58.31l-0.62-19.21L461.916,607.382z"/>
	<path fill="#FFFFFF" stroke="#000000" stroke-miterlimit="10" d="M477.615,459.468l0.013,21.018l-40.636,2.002l0.092-23.02
		c-17.005,0.976-37.612-6.598-47.359-23.522c-13.882-24.107,4.327-33.912,10.729-86.865c3.212-26.571-3.656-72.781-3.656-72.781
		c-7.584-37.016-12.81-60.864-12.81-60.864c-3.036-8.328-16.111-39.327-7.6-41.08c0,0,12.142-6.586,21.871,41.08
		s24.153,76.685,21.936,131.167c-0.801,19.685-3.715,30.051-8.711,53.275c-7.483,34.79,24.648,36.75,40.833,43.696
		c7.11,3.05,5.769,13.167,7.449,9.66c1.68-3.506,0.541-7.89,8.09-11.834c7.55-3.945,25.838-1.881,35.369-20.467
		s-6.945-57.114-5.833-91.007c1.112-33.893,3.172-116.764,21.194-148.322c18.022-31.558,17.604-23,17.604-23
		c6.696-1.058,6.221,9.125-6.544,41.525c-10.468,26.571-16.044,113.284-12.195,146.596c3.849,33.312,20.43,58.441,12.14,83.252
		S477.615,459.468,477.615,459.468"/>
	<path fill="#FFFFFF" stroke="#000000" stroke-miterlimit="10" d="M777.185,626.781c0,0,12.883,0.641,13.771-11.581
		c0.921-12.678,13.323-22.63,13.323-22.63s-15.544-13.503-48.692-2.011c0,0,11.386,8.549,11.831,22.127
		C767.862,626.265,777.185,626.781,777.185,626.781z"/>
	<path opacity="0.82" fill="#FFFFFF" stroke="#000000" stroke-miterlimit="10" d="M696.654,1108.603
		c0,0,15.828-12.731,26.911-14.512l-35-50.412c0,0-31.388,12.774-45.282,34.397l42.037,40.444
		C685.321,1118.521,686.782,1119.223,696.654,1108.603z"/>
	<path fill="#FFFFFF" stroke="#000000" stroke-miterlimit="10" d="M325.046,1182.046c0,0,16.115-113.668,25.442-161.444
		c9.326-47.775,1.5-68.313,1.5-68.313s25.45-69.169,23.081-161.41c-33.125-64.702-31.744-57.733-39.32-70.854
		c0,0-14.262,8.363-20.761,47.577S298.6,952.288,298.6,952.288s-13.611,51.558-13.611,129.313c0,47.029-3.22,46.127-9.103,99.072
		C275.886,1180.674,315.721,1176.765,325.046,1182.046z"/>
	<path opacity="0.82" fill="#FFFFFF" stroke="#000000" stroke-miterlimit="10" d="M332.724,1130.709l4.026-31.726
		c0,0-19.585-6.181-53.732,0l-0.492,31.726C282.526,1130.709,316.501,1129.37,332.724,1130.709z"/>
	<path fill="#FFFFFF" stroke="#000000" stroke-miterlimit="10" d="M312.692,1254.218c0,0,1.314,15.572-13.786,28.12
		c-15.1,12.549-13.324,11.929-13.324,11.929s-17.765-18.335-16.876-31.858c1.12-17.048,3.11-16.806,3.11-16.806l-4.612-5.529
		c0,0-6.936,10.155-5.604,24.181c1.333,14.024,12.879,30.013,12.879,30.013l-17.321-3.81l1.777,11.014l22.7,1.535l-5.379,57.081
		h13.494l0.718-56.712l25.758,2.361v-12.272l-22.206,0.803c0,0,24.173-22.977,27.409-32.399c3.235-9.424-3.192-8.687-3.192-8.687
		L312.692,1254.218z"/>
	<path fill="#FFFFFF" stroke="#000000" stroke-miterlimit="10" d="M325.046,1182.046c0,0,7.713,8.644,11.375,38.21
		c3.661,29.566-0.14,43.971,0.329,46.846c0.47,2.875-19.667-2.907-18.975-13.584c0,0-10.585,4.293-16.225-3.603
		c0,0-7.519,8.717-17.856,0c0,0-8.928,2.371-11.747-3.789c0,0-7.52,0-9.399-11.908s-1.41-32.765,13.627-55.804
		C276.176,1178.414,317.528,1177.099,325.046,1182.046z"/>
	<path fill="#FFFFFF" stroke="#000000" stroke-miterlimit="10" d="M514.268,1630.229l7.328,36.804c0,0,88.823,44.937,95.041,47.567
		c6.217,2.629,19.852,2.686,19.852,2.686s19.562-0.506,19.5,3c-0.201,11.457-13.5,15.816-13.5,15.816s-39.294-1.609-61.5-2.048
		c-22.206-0.438-114.5,5.048-117.128-14.427c-1.012-7.501,1.333-19.269,0-31.33c-1.333-12.062-13.03-62.762-13.03-62.762
		L514.268,1630.229z"/>
	<path fill="#FFFFFF" stroke="#000000" stroke-miterlimit="10" d="M357.525,1619.531c0,0,0.686,58.044-2.036,70.994
		c-3.378,16.076-1.782,37.187,10.034,37.501c17.347,0.462,107.219,11.763,122.763,2.997c0,0,13.247,2.544,16.432-1.315
		c0,0,15.938,3.31,16.876,0c0,0,15.558-1.11,16.433-1.996c0.874-0.886,16.876-10.276,8.882-12.029
		c-7.994-1.754-25.758-5.26-25.758-5.26s-47.965-14.465-60.844-14.903c0,0-22.424-13.51-48.184-27.137
		c0,0,2.842-32.729,6.416-44.873L357.525,1619.531z"/>
	<g opacity="0.82">
		<path fill="#FFFFFF" stroke="#010101" stroke-width="0.25" stroke-linecap="round" stroke-linejoin="round" d="M488.287,1731.023
			c0,0-4.918-6.989-16.876-17.971"/>
		<path fill="#FFFFFF" stroke="#010101" stroke-width="0.25" stroke-linecap="round" stroke-linejoin="round" d="M504.719,1729.708
			c0,0-8.882-13.149-16.432-18.847"/>
		<path fill="#FFFFFF" stroke="#010101" stroke-width="0.25" stroke-linecap="round" stroke-linejoin="round" d="M521.595,1729.708
			c0,0-6.662-10.52-14.656-16.655"/>
		<path fill="#FFFFFF" stroke="#010101" stroke-width="0.25" stroke-linecap="round" stroke-linejoin="round" d="M538.028,1727.712
			c0,0-6.839-11.202-20.874-16.851"/>
	</g>
	<path opacity="0.82" fill="#FFFFFF" stroke="#000000" stroke-miterlimit="10" d="M532.133,855.629l5.68-53.607
		c38.194-9.862,56.808-2.717,56.808-2.717l3.309,43.543l0.804,15.242L532.133,855.629z"/>
	<path opacity="0.82" fill="#FFFFFF" stroke="#000000" stroke-miterlimit="10" d="M311.99,797.302c0,0,30.031-10.19,63.192,5.297
		l-2.975,53.029c0,0-9.627-8.69-65.222-3.295L311.99,797.302z"/>
	
		<path id="path2241_2_"   opacity="0.82" fill="#FFFFFF" stroke="#000000" stroke-miterlimit="10" d="
		M538.322,582.657c3.925,2.123,1.168,2.909,0.143,2.586c-4.45-1.42-8.314-2.836-12.185-3.011c-4.189-0.186-8.625-0.135-12.552,0.993
		c-5.333,1.534-9.116,4.426-12.537,5.583c-3.678,1.253-7.261,2.215-9.819,2.353c-0.553-0.267-0.202-0.594,0.039-0.915
		c5.037-1.456,5.021-0.467,18.401-8.66c3.38-2.07,7.429-2.758,10.609-2.863c6.091-0.194,12.006,0.72,17.907,3.933H538.322z"/>
	<g opacity="0.82">
		
			<path id="path2243_3_"  fill="#FFFFFF" stroke="#000000" stroke-miterlimit="10" d="
			M538.673,597.76c2.753,5.259,7.511,4.611,0.857,5.358c-2.232-0.874-16.188,1.444-22.156-0.745
			c-3.138-1.028-8.113-1.931-12.679-3.451c-3.75-1.259-8.527-0.304-12.82-0.414c-0.877-0.021,0.089-0.473,0.932-0.688
			c4.526-1.207,11.376-0.698,14.954-2.389c4.983-2.368,13.408-6.558,19.707-6.179C531.596,589.498,533.253,592.25,538.673,597.76
			L538.673,597.76z"/>
		
			<path id="path2245_3_"  fill="#FFFFFF" stroke="#010101" stroke-width="0.2514" stroke-linecap="round" stroke-linejoin="round" d="
			M528.058,600.617c1.444-0.98,2.888-4.082,2.764-5.944c1.878,1.152,4.875,3.362,6.37,5.944
			C536.176,600.167,529.901,600.537,528.058,600.617z"/>
		
			<path id="path2247_3_"  fill="#FFFFFF" stroke="#010101" stroke-width="0.2514" stroke-linecap="round" stroke-linejoin="round" d="
			M510.427,595.308c2.688,2.347,5.956,4.868,9.161,5.269c-1.761-1.525-2.46-6.648-2.437-6.178
			C514.724,594.859,512.683,595.71,510.427,595.308z"/>
	</g>
	<path fill="#FFFFFF" stroke="#000000" stroke-miterlimit="10" d="M355.988,1078.075c-2.665-30.439,16.233-54.584,19.194-62.474
		c2.96-7.89,2.783-30.245,5.831-42.225c3.887-15.275,7.647-36.925,10.475-68.775c2.828-31.851-5.081-57.526-5.081-57.526
		s-0.854-23.034-9.268-48.779c-5.923-18.122-40.176-78.02-40.176-78.02s32.525,84.825,122.072,85.325
		c76.453,0.427,101.25-80.942,101.25-80.942s-17.985,66.962-22.711,78.546c0,0,21.468,18.085,11.961,36.396
		c-12.547,24.165-26.533,13.178-31.196,16.027c-4.663,2.849-11.649,55.659-8.851,72.753s8.22,41.193,6,58.505
		c-2.221,17.313-10.444,30.564-6.892,43.275l15.392,58.464c0,0-14.667,180.766-16,214.475s-6,88-6,88l15.166,238.758
		l-162.666-10.605c0,0,5.773-138.507,8.438-158.669s11.322-73.637,9.101-105.633c-2.221-31.997-7.769-123.166-8.213-156.916
		c-0.444-33.75,1.333-58.733,1.333-67.5S358.126,1102.485,355.988,1078.075z"/>
	<path opacity="0.82" fill="#FFFFFF" stroke="#010101" stroke-width="0.25" stroke-linecap="round" stroke-linejoin="round" d="
		M474.488,1332.742c-48.333,271.192-43.438,263.947-49.051,291.138"/>
	<path opacity="0.82" fill="#FFFFFF" stroke="#000000" stroke-width="1.0709" stroke-linecap="round" stroke-linejoin="round" d="
		M515.49,859.091c0,0-40.13-8.544-126.986-3.462l-1.602-9.897c0,0,14.542-1.359,67.956-1.359s71.355,9.897,71.355,9.897
		L515.49,859.091z"/>
	<g>
		<path fill="#FFFFFF" stroke="#000000" stroke-miterlimit="10" d="M449.647,804.229c-88.847-7.003-113.117-85.205-113.117-85.205
			c27.887-11.991,54.906-11.458,54.906-11.458s7.755,22.753,56.255,30.093c37.539,5.681,51.528-27.594,51.528-27.594
			c43.653,9.133,59.633,14.595,59.633,14.595s-20.839,88.357-109.205,80.57"/>
		<g>
			<path fill="#FFFFFF" stroke="#010101" stroke-width="0.2514" stroke-linecap="round" stroke-linejoin="round" d="
				M450.345,752.427c0,0,9.989,0.281,9.666-5.272c-0.323-5.551-0.323-5.551-0.323-5.551s2.364-3.037-8.201-2.542
				C451.487,739.062,450.496,748.35,450.345,752.427z"/>
			<path fill="#FFFFFF" stroke="#010101" stroke-width="0.2514" stroke-linecap="round" stroke-linejoin="round" d="M459.59,749.159
				c0,0,5.599,2.003,9.805,0c4.206-2.004,2.265-9.6,0-11.5"/>
			<path fill="#FFFFFF" stroke="#010101" stroke-width="0.2514" stroke-linecap="round" stroke-linejoin="round" d="
				M471.875,745.718c0,0,7.226,0.385,9.814-1.865c2.589-2.25,4.854-4.589-2.587-9.849"/>
			<path fill="#FFFFFF" stroke="#010101" stroke-width="0.2514" stroke-linecap="round" stroke-linejoin="round" d="
				M484.158,739.875c0,0,6.551,1.438,9.482-2.216c2.932-3.653-3.863-7.745-8.069-8.037"/>
			<path fill="#FFFFFF" stroke="#010101" stroke-width="0.2514" stroke-linecap="round" stroke-linejoin="round" d="
				M494.607,734.888c0,0,10.378-7.604,4.877-9.357c-5.5-1.753-7.751-2.404-7.751-2.404"/>
			<path fill="#FFFFFF" stroke="#010101" stroke-width="0.2514" stroke-linecap="round" stroke-linejoin="round" d="
				M501.092,727.284c0,0,10.206-14.054,6.568-14.696"/>
		</g>
		<path opacity="0.82" fill="#FFFFFF" stroke="#010101" stroke-width="0.2514" stroke-linecap="round" stroke-linejoin="round" d="
			M448.904,795.625c0,0,44.428,1.684,76.688-34.802c27.562-31.172,23.766-32.943,23.766-32.943"/>
	</g>
	<path fill="#FFFFFF" stroke="#000000" stroke-miterlimit="10" d="M542.3,575.947l-3.378-13.327
		c-32.102-19.839-157.988,17.4-157.988,17.4s-10.853,25.638-9.375,28.268c1.478,2.63-9.223,11.615-8.425,15.341
		c0.798,3.726,1.558,7.889-1.598,11.834s-7.932,12.054-6.987,14.464c0.945,2.411-9.714,9.205-9.714,13.588
		c0,4.383-7.994,13.587-10.881,18.19c-2.887,4.602-13.99,15.341-11.991,18.847c1.999,3.507-7.55,12.054-7.772,15.341
		c-0.222,3.288,0,7.89,0,7.89s-11.965,7.106-11.756,12.648c0.183,4.849-4.555,15.981-4.105,20.985
		c0.064,0.715,0.234,1.304,0.54,1.732c0,0-2.25,5.077-0.57,6.881c1.68,1.804-3.427,17.556-2.761,20.419
		c0.667,2.863-2.826,11.624-2.523,14.914c0.303,3.29-1.795,17.266-0.644,19.069l0.616,17.021h16.095
		c-0.001,0,0.555-59.85,13.272-92.032c4.45-11.262,10.106-24.888,16.418-27.335c28.652-11.11,52.883-10.52,52.883-10.52
		s-0.688,19.726,1.339,22.136c2.026,2.41-4.039,19.172-1.339,23.501c0,0-1.994,14.669,0,17.696c1.993,3.027-2.255,20.151,0,21.363
		s2.255,1.212,2.255,1.212s-3.873,11.061-1.603,14.954c2.269,3.894-0.911,16.059,0,18.288c0.91,2.229,0.19,7.521,1.341,8.836
		s8.377,1.315,8.377,1.315s9.722,1.315,12.128,0s5.463,1.315,10.041-0.438c4.578-1.753,2.129,0,5.574-1.315
		s7.796-0.438,10.617-0.658c2.821-0.219,8.118,1.096,9.245-0.876c1.126-1.973,0-8.766,0-8.766s-0.96-7.013-1.027-9.643
		c-0.066-2.63,1.773-11.514,0.887-13.916s1.012-8.984,0.141-11.999c-0.872-3.014-2.758-8.687-2.758-8.687s3.521-7.596,3.258-12.577
		c-0.262-4.981,0.639-27.918,0.639-27.918s4.022-13.954,4.01-17.46s0.291-20.247,0-21.562c-0.292-1.315-1.074-20.071,0-20.3
		c4.469-0.953-2.214-19.681,0-22.151c4.034-4.5,2.348-13.713,2.348-13.713l5.171-37.194c0,0,27.175-21.115,33.576-27.245
		C495.875,580.45,519.612,559.293,542.3,575.947z"/>
	<g>
		<path fill="#FFFFFF" stroke="#000000" stroke-miterlimit="10" d="M477.039,558.8c0,0,48.907-5.695,61.884,4.821l0.99-5.362
			c0,0,21.743,7.561,28.043-15.233c0,0,2.359,0.276,8.392-1.984c6.031-2.26,9.354,2.807,9.354,2.807s4.1-5.308-8.133-9.968
			c0,0-4.729-13.091-17.045-9.565c-12.315,3.525-3.431,15.223-4.131,18.176c-0.701,2.953-2.272,6.099-5.702,5.94
			c-3.43-0.159-8.391-10.335-16.07-16.249c0,0-13.885-24.184-77.319-27.122c-63.433-2.938-82.445,32.302-82.445,32.302
			l-29.705-8.965c0,0-10.488,16.021,1.812,41.19c0,0,23.073-1.046,26.714,0c0,0,4.34,9.994,12.394,15.657
			C394.125,590.909,464.867,621.452,477.039,558.8z"/>
		<g>
			<path opacity="0.82" fill="#FFFFFF" stroke="#000000" stroke-miterlimit="10" d="M393.264,709.6
				c6.783,4.629,19.206-25.897,39.95-63.945c20.744-38.046,36.992-69.378,44.016-89.142c7.023-19.763,33.083-41.406,33.083-41.406
				s-33.281-13.837-85.917-5.988l1.687-0.625c0,0-18.604,22.621-20.919,34.85c0,0-9.2,18.03-11.198,30.716
				c-1.999,12.687-5.243,10.289-8.839,23.477s-3.292,17.265-3.292,17.265s-6.803,15.826-5.441,22.3c0,0-4.588,11.51-1.835,14.627
				c2.753,3.117,1.835,1.199,1.835,1.199s-2.746,10.248-0.692,11.358c2.054,1.111,2.665-1.527,2.665-1.527s-1.209,5.515-1.132,9.831
				c0.078,4.316,1.36,5.516,2.717,5.516c1.358,0-1.144,9.591,1.884,10.07c3.027,0.48,2.345-1.918,2.345-1.918
				s-1.896,7.434,0.947,9.112c2.843,1.679,3.525,0.48,3.525,0.48s-2.149,7.434,1.36,8.873c3.51,1.438,4.406-1.199,4.406-1.199
				S392.024,708.754,393.264,709.6z"/>
			<g opacity="0.82">
				<path fill="#FFFFFF" stroke="#010101" stroke-width="0.2514" stroke-linecap="round" stroke-linejoin="round" d="
					M419.176,672.384c0,0-23.516-23.125-13.745-64.689c9.771-41.563,20.827-72.379,30.302-88.685"/>
				<path fill="#FFFFFF" stroke="#010101" stroke-width="0.2514" stroke-linecap="round" stroke-linejoin="round" d="
					M443.696,626.417c0,0-24.841-8.294-19.215-35.471c5.626-27.177,25.353-66.823,26.444-68.741"/>
				<path fill="#FFFFFF" stroke="#010101" stroke-width="0.2514" stroke-linecap="round" stroke-linejoin="round" d="
					M453.522,607.695c0,0-18.974-8.548-10.979-33.384c7.173-22.286,17.224-42.514,17.224-42.514"/>
				<path fill="#FFFFFF" stroke="#010101" stroke-width="0.2514" stroke-linecap="round" stroke-linejoin="round" d="
					M472.815,565.82c0,0-5.994-0.971-5.698-6.146c0.296-5.175,11.503-32.427,26.342-40.664"/>
			</g>
		</g>
	</g>
	<g>
		<path fill="#FFFFFF" stroke="#000000" stroke-miterlimit="10" d="M508.761,491.279c0,0,6.462,7.012,4.58,11.687
			c-1.882,4.676-6.094,5.34-4.58,10.706c0,0-41.5-13.531-92.681-3.352c0,0-6.473-2.784-5.88-7.844
			c0.592-5.061,5.625-11.197,5.625-11.197s-9.474-4.969-8.29-7.306c1.184-2.337,10.66-3.215,12.139-1.169
			c0,0,8.882-4.338,15.396-1.146c0,0,12.142-4.661,22.948-1.173c0,0,7.845-4.618,18.799-1.295c0,0,11.214-2.23,15.377,0.984
			c0,0,1.446-3.214,9.614,0.292c0,0,17.383-3.799,13.812,3.214C512.051,490.694,508.761,491.279,508.761,491.279z"/>
		<path fill="#FFFFFF" stroke="#010101" stroke-width="0.2514" stroke-linecap="round" stroke-linejoin="round" d="M450.606,506.766
			c0,0-0.452-12.272,0-16.071c0.452-3.798-0.967-4.093-0.967-4.093"/>
		<path fill="#FFFFFF" stroke="#010101" stroke-width="0.2514" stroke-linecap="round" stroke-linejoin="round" d="M499.533,511.271
			c0,0,3.244-8.595,1.367-16.485c0,0-0.496-6.478,4.328-6.234"/>
		<path fill="#FFFFFF" stroke="#010101" stroke-width="0.2514" stroke-linecap="round" stroke-linejoin="round" d="M423.228,508.226
			c0,0-4.738-4.967-2.369-13.44c2.369-8.475,0.853-8.182,0.853-8.182"/>
		<path fill="#FFFFFF" stroke="#010101" stroke-width="0.2514" stroke-linecap="round" stroke-linejoin="round" d="M442.472,506.766
			c0,0-1.777-3.508-1.777-9.352c0-5.844,1.777-9.937,0-10.812"/>
		<path fill="#FFFFFF" stroke="#010101" stroke-width="0.2514" stroke-linecap="round" stroke-linejoin="round" d="M433.294,506.766
			c0,0-2.666-3.753-2.369-10.936c0.296-7.181-0.023-9.229-0.023-9.229"/>
		<path fill="#FFFFFF" stroke="#010101" stroke-width="0.2514" stroke-linecap="round" stroke-linejoin="round" d="M506.256,491.279
			c0,0-41.797-6.136-87.283,0"/>
		<path fill="#FFFFFF" stroke="#010101" stroke-width="0.2514" stroke-linecap="round" stroke-linejoin="round" d="M476.298,505.473
			c0,0,2.665-8.059,1.333-13.295c-0.998-3.92,3.331-5.991,3.997-5.991"/>
		<path fill="#FFFFFF" stroke="#010101" stroke-width="0.2514" stroke-linecap="round" stroke-linejoin="round" d="M488.956,506.474
			c0,0,2.887-9.57,1.999-12.638s1.908-7.016,4.507-7.234"/>
	</g>
	<path opacity="0.82" fill="#FFFFFF" stroke="#010101" stroke-width="0.2514" stroke-linecap="round" stroke-linejoin="round" d="
		M741.479,1104.32c0,0-6.224,2.687-4.668,8.639c0,0,38.322,4.224,40.461,5.376c0,0-35.209-6.144-41.628-4.992
		c-6.419,1.152-7.586,10.175-2.917,13.438c0,0,2.14-2.688,20.036,0c17.896,2.688,25.872,4.795,25.872,4.795
		s-43.185-10.938-46.297-3.45c-3.112,7.486,7.197,10.75,7.197,10.75s8.17-2.304,24.121,0.961c15.951,3.264,12.131,2.88,12.131,2.88
		s-31.389-8.831-36.641-2.688"/>
	<path opacity="0.82" fill="#FFFFFF" stroke="#010101" stroke-width="0.2514" stroke-linecap="round" stroke-linejoin="round" d="
		M506.419,707.063"/>
</g>
</svg>
