<?xml version="1.0" encoding="utf-8"?>
<!-- Generator: Adobe Illustrator 16.0.0, SVG Export Plug-In . SVG Version: 6.00 Build 0)  -->
<!DOCTYPE svg PUBLIC "-//W3C//DTD SVG 1.1//EN" "http://www.w3.org/Graphics/SVG/1.1/DTD/svg11.dtd">
<svg version="1.1" id="Layer_3" xmlns="http://www.w3.org/2000/svg" xmlns:xlink="http://www.w3.org/1999/xlink" x="0px" y="0px"
	 width="2529.088px" height="1891.836px" viewBox="0 0 2529.088 1891.836" enable-background="new 0 0 2529.088 1891.836"
	 xml:space="preserve">
<g>
	<path fill="#FFFFFF" stroke="#000000" stroke-miterlimit="10" d="M995.988,279.602l-7.667-57.811l-26.333-0.731
		c0,0,38.307,223.876,87.319,352.941c0,0,23.15,1.152,65.567-2.351c42.422-3.492,66.447-5.215,66.447-5.215l16.547-142.5
		c0,0,4.952-5.953-59.542-3.952c-52.181,1.619-89.353-16.519-105.601-34.658c-17.07-19.057-25.201-50.965-20.737-82.723
		C1011.988,302.602,1000.295,294.602,995.988,279.602z"/>
	<path fill="#FFFFFF" stroke="#000000" stroke-miterlimit="10" d="M1014.655,295.602c0,0-6.347-13.979-9.896-22.86
		c-3.547-8.889-13.361-44.866,15.896-50.951c29.252-6.089,25.962,27.526,24.667,38.478c-1.294,10.943-13.333,25.551,3.333,35.667
		c16.673,10.113,106.792,45.047,117.276,121.907c0,0-54.609,9.76-105.609-12.24C997.492,378.499,1014.655,295.602,1014.655,295.602z
		"/>
	<path fill="#FFFFFF" stroke="#000000" stroke-miterlimit="10" d="M1135.655,669.435c-47.638-3.842-47-36.333-37.076-69.468
		c9.043-30.192,24.744-29.009,24.744-29.009l52.031-4.084c9.533-0.72,12.31,4.38,18.335,8.034s17.799,17.861,15.815,20.373
		s-5.761,11.37-9.85,26.655s-8.697,26.167-8.697,26.167c-8.155,12.645-11.351,23.106-25.803,30.333l-11.333-10.167
		C1153.822,668.269,1145.989,670.269,1135.655,669.435z"/>
	<path fill="#FFFFFF" stroke="#000000" stroke-miterlimit="10" d="M1100.988,737.852c-0.166,26.036,2,48.25,1,100.25"/>
	<path fill="#FFFFFF" stroke="#000000" stroke-miterlimit="10" d="M1355.696,1107.185"/>
	<path fill="#FFFFFF" stroke="#000000" stroke-miterlimit="10" d="M970.058,1530.397c0,0,2.807,154.086,0.632,176.239
		c-2.178,22.148,4.594,27.818,4.594,27.818l124.205,3.146l35.044,0.555c0,0,19.569,1.109,23.513-2.973
		c4.269-4.419,1.85-19.272-17.768-19.072c-12.287,0.123-37.75-4.15-76.261-19.723c-38.507-15.574-31.909-19.415-27.032-54.268
		c5.631-40.234,18.455-114.364,18.455-114.364s16.549-101.155,21.049-114.155s41-79.896,41-79.896h-108.833
		c0,0-9.063,79.896-15.115,94.896s-20.413,53.5-23.482,99.5"/>
	<path fill="#FFFFFF" stroke="#000000" stroke-miterlimit="10" d="M1122.011,341.836c0,0,46.406-36.221,77.644-96.901
		c0,0-26.87,1.667-23.333-16c2.288-11.43,35-9.206,29.943,10.664c0,0,1.066,10.079-2.61,17.002
		c-6.049,11.411-34.441,52.574-73.194,91.818C1130.461,348.42,1130.611,347.886,1122.011,341.836z"/>
	<path fill="#FFFFFF" stroke="#000000" stroke-miterlimit="10" d="M1178.256,1095.824"/>
	<line fill="#FFFFFF" stroke="#000000" stroke-miterlimit="10" x1="1042.238" y1="709.852" x2="990.226" y2="713.683"/>
	<path fill="#FFFFFF" stroke="#000000" stroke-miterlimit="10" d="M1482.991,1688.692c8.749-5.205,11.101-14.636,4.583-31.091
		c-4.049-10.213-7.743-10.992-10.586-16.5c-4.672-9.062-3.246-11.604-3.5-20.5c-0.209-7.305,3.23-128.551,4.688-245.523
		c1.398-112.205,0.813-220.477,0.813-220.477h-9.501c0,0,1.794,101.574,1.213,211.998c-0.684,129.964-3.886,272.188-5.872,275.502
		c-3.673,6.134-28.841,23-1.999,50.265c0,0,3.729,0.863,4.554-5.265c0.806-6.141-13.896-11-4.896-21.5
		c8.852-10.327,16.522-1.958,19.5,3.996c4,8,0.132,13.054-1.5,15.504C1478.851,1687.551,1482.991,1688.692,1482.991,1688.692z"/>
	<path fill="#FFFFFF" stroke="#000000" stroke-miterlimit="10" d="M1481.899,648.611l-9.911,453.994l6.521-0.348l9.065-452.656
		c0,0,15.414,13.5,16.414,16.5s5.5,21,5.5,21l7-2.669c0,0-4-35.943-9-43.637s-19.914-13.431-19.914-13.431L1481.899,648.611z"/>
	<path fill="#FFFFFF" stroke="#000000" stroke-miterlimit="10" d="M1183.488,564.769c0,0,13.595,5.666,14.381-1.667
		s-10.547-23.333-4.047-30.167s12.833-9.167,15.833-3.5s-11,8.167-9.833,11.5s7.856,22.358,1.333,30.394
		c-4.957,6.106-5.599,4.592-5.599,4.592S1177.655,566.602,1183.488,564.769z"/>
	<path fill="#FFFFFF" stroke="#000000" stroke-miterlimit="10" d="M1210.078,594.493c0,0,16.578-1.558,22.244,9.775
		s0,18.667,0,18.667s-5.667-10.833-15-4.5s-17.667,4.5-17.667,4.5S1203.988,604.583,1210.078,594.493z"/>
	<path fill="#FFFFFF" stroke="#000000" stroke-miterlimit="10" d="M1206.988,598.935c0,0-9.667-17.334-28.167-15.167
		s-17.443,33.254-4.833,37.667c10,3.5,17-1.5,21.5-4.5s7.424-5.471,7.424-5.471L1206.988,598.935z"/>
	<path fill="#FFFFFF" stroke="#000000" stroke-miterlimit="10" d="M1193.322,595.435c0,0-2.667-4.167-9.333-4.333
		s-8.837,13.167-1.668,14s9.502-0.85,11.002-2.508S1195.462,597.52,1193.322,595.435z"/>
	<path fill="#FFFFFF" stroke="#000000" stroke-miterlimit="10" d="M1153.155,688.102l12-9.667l-11.333-10.167
		c0,0-20.919,5.151-40.793-4.425c0,0-20.604-6.798-19.84-33.998c1.299-46.265,27.006-61.667,25.799-58.744
		c-0.271,0.657-40.75,9.75-42.25,62c-1.004,34.986,29.052,44.363,28.739,45.334c-3.569,11.073-6.627,29.618-4.489,59.416
		c0,0,10.5,4,29.5,0s20.684-20.537,20.967-27.144S1153.155,688.102,1153.155,688.102z"/>
	<path fill="#FFFFFF" stroke="#000000" stroke-miterlimit="10" d="M1041.988,773.602c0,0-30.25-26.5-40-55.25"/>
	<path fill="#FFFFFF" stroke="#000000" stroke-miterlimit="10" d="M981.322,791.268l-12.667,190.667
		c8.333,16.334,0.667,87.999-4.667,113.889s-6.382,86.36-6.382,86.36s5.716,17.083,11.382,35.589s1.667,40.828,2.333,48.161
		s0.667,8.667-5.739,8.334s-7.977-15.584-7.977-15.584s-1.284,1.917-4.618,2.54s-9.667-4.344-9.667-4.344c-4,4.612-13,0-13,0
		s1.35,1.804-15.333,0c-25.235-2.729-19.333-26.946-19-43.279s8-29.333,8-29.333s-8-69.667-9.333-129.667s9-79.333,9-79.333
		l5-121.329c0,0-0.905-98.847,19.714-118.926s61.856-21.292,61.856-21.292l53.013-3.88c0,0,38.417,31.143,71.083,29.784
		s34.941-16.36,37.804-27.859c0,0,94.197,18.167,106.53,23.5s37.667,11.609,41,56.138c3.325,44.424,3.32,44.368,12,164.195
		c0,0,60.334,69.666,88.667,110.333s34.666,38.231,34.666,38.231s56.001-6.398,60.334,3.019s0,15.084,0,15.084
		s1.333,7.999-1.667,11.333s3,6.668-3,12.334s1.838,9-3.081,12.333s-17.043,10.915-49.252-4.667s-138.206-83.074-173.753-157.333
		c-38.773-81-26.915-185-26.915-185s-17.333,42-36.667,51.333c0,0-141.179-9.667-184.756-0.667
		C1016.232,861.935,1004.989,810.268,981.322,791.268z"/>
	<path fill="#FFFFFF" stroke="#000000" stroke-miterlimit="10" d="M977.447,849.588l3.23-48.629c0,0-39.269-7.643-70.312,0
		l-2.043,47.312C908.322,848.27,962.573,842.241,977.447,849.588z"/>
	<polygon fill="#FFFFFF" stroke="#000000" stroke-miterlimit="10" points="1358.607,1101.62 1397.473,1061.896 1426.447,1098.62 
		1397.975,1129.883 	"/>
	<path fill="#FFFFFF" stroke="#000000" stroke-miterlimit="10" d="M1311.488,1142.102"/>
	<path fill="#FFFFFF" stroke="#000000" stroke-miterlimit="10" d="M1200.988,862.602c0,0-14.727,87.5-15.863,107
		s3.363,57-2.637,67.5s-134-29.5-140.5-38s-17-65-20-87.5s-5.756-49.667-5.756-49.667S1082.988,853.102,1200.988,862.602z"/>
	<path fill="#FFFFFF" stroke="#000000" stroke-miterlimit="10" d="M1074.488,969.602"/>
	<ellipse fill="#FFFFFF" stroke="#000000" stroke-miterlimit="10" cx="1163.488" cy="1011.852" rx="4" ry="3.25"/>
	<path fill="#FFFFFF" stroke="#000000" stroke-miterlimit="10" d="M1180.655,1038.846c0,0,5.333,1.756,3,15.756
		c-1.974,11.842-14.667,8-30.667,4s-126.5-15-126.5-15l3.5-48C1029.988,995.602,1130.423,1037.998,1180.655,1038.846z"/>
	<path fill="#FFFFFF" stroke="#000000" stroke-miterlimit="10" d="M1178.256,1062.542c0,0,13.86-11.646-3.204,76.54
		s-39.064,167.062-166.397,194.624l15.804-146.587c0,0-13.982-30.66-8.227-68.589s10.256-74.929,10.256-74.929
		S1153.858,1059.816,1178.256,1062.542z"/>
	<path fill="#FFFFFF" stroke="#000000" stroke-miterlimit="10" d="M1180.962,1062.542c0,0,57.692,230.936,53.026,271.164h-225.333
		c0,0,84.137-13.191,123.068-72.481S1185.936,1098.482,1180.962,1062.542z"/>
	<path fill="#FFFFFF" stroke="#000000" stroke-miterlimit="10" d="M1016.087,1119.548h-7.432c0,0-6.333,23.554,0,49.054
		s5.284,22.844,2.309,49.172s-8.475,90.328-13.975,109.328s-66.494,234-68.997,249.5s-28.003,105.957-28.003,105.957l11.5,1.373
		c0,0,30.5-115.461,39.5-153.396s34-129.177,39.5-149.806s17.116-37.278,20.614-69.725s13.356-123.887,13.356-123.887
		S1011.686,1149.89,1016.087,1119.548z"/>
	<path fill="#FFFFFF" stroke="#000000" stroke-miterlimit="10" d="M1175.488,1730.534"/>
	<path fill="#FFFFFF" stroke="#000000" stroke-miterlimit="10" d="M1233.988,1333.706c0,0,9.5,29.896,6,53.896s-2.451,48,0.774,54
		s47.226,209,52.726,225s15,24.77,30,30.135s76,25.865,86.5,27.865s35.191-2.635,32.096,5.933s-2.596,13.067-9.596,13.067
		s-134-1-152.5-8c0,0-43.5,11.5-39-13s-13.5-74-23-91s-47.5-92.5-50.5-132s2-63.5,0-76.5s-35-89.396-35-89.396H1233.988z"/>
	<path fill="#FFFFFF" stroke="#000000" stroke-miterlimit="10" d="M1020.988,942.269l14.667,3.673v12.994l2.64,40.065l-5.974,68.601
		h-7.333c0,0,9.667-76.666,1.5-102.333L1020.988,942.269z"/>
	<path fill="#FFFFFF" stroke="#000000" stroke-miterlimit="10" d="M1043.238,709.843l-53.013,3.88c0,0,24.263,56.376,55.609,74.254
		c0,0,37.903,38.125,110.653,12.125c52.708-18.837,62.5-74.75,62.5-74.75l-55.517-11.961"/>
	<path fill="#FFFFFF" stroke="#000000" stroke-miterlimit="10" d="M1151.897,703.595c0,0,28.591,20.756,49.341,57.006
		s23.5,65.25,23.5,65.25l-48.75,10.75c0,0-10.25-39.25-26.75-61s-26.25-35.972-26.25-35.972S1155.807,737.589,1151.897,703.595z"/>
	<path fill="#FFFFFF" stroke="#000000" stroke-miterlimit="10" d="M908.488,833.102h-15.75c-3.75-74.75,27.5-115.25,43.5-134.75
		s18-37.25,46.5-78.75s66.021-47.051,66.021-47.051l0.548,1.45l69.681-2.899c-23.25,5.5-41.25,29-42.25,62
		s28.739,45.333,28.739,45.333s-2.909,11.886-4.7,26.417s1.211,133.25,1.211,133.25l-54.471,0.5l-4.279-128.759
		c0,0-31.25,2.509-55.955,4.068s-47.295,4.44-64.269,27.542C923.015,741.453,910.988,757.852,908.488,833.102z"/>
	<path fill="#FFFFFF" stroke="#000000" stroke-miterlimit="10" d="M952.988,1261.225c0,0-11.855,38.293-31.926,40.877
		c-11.522,1.483-16.573-49.225-16.573-49.225s-5.252-1.714-6.95-5.277c-1.706-3.547-1.001,46.266,20.455,61.514h-22.457l1.001,10.97
		l26.945,0.516l-2.002,58.003l10.785,2.129l1.722-59.983l26.417,0.542l0.041-9.688l-30.955-1c0,0,12.81-6.596,28.115-37.899
		L952.988,1261.225z"/>
	<polygon fill="#FFFFFF" stroke="#000000" stroke-miterlimit="10" points="1304.637,859.091 1236.173,863.767 1237.655,811.269 
		1300.633,806.641 	"/>
	<path fill="#FFFFFF" stroke="#000000" stroke-miterlimit="10" d="M957.606,1182.185c0,0-28.949-5.582-53.618,2.084l-4.739-49.051
		c0,0,37.572-10.604,60.155,2.723l-1.798,46.328"/>
</g>
</svg>
