<?xml version="1.0" encoding="utf-8"?>
<!-- Generator: Adobe Illustrator 16.0.0, SVG Export Plug-In . SVG Version: 6.00 Build 0)  -->
<!DOCTYPE svg PUBLIC "-//W3C//DTD SVG 1.1//EN" "http://www.w3.org/Graphics/SVG/1.1/DTD/svg11.dtd">
<svg version="1.1" id="Layer_2" xmlns="http://www.w3.org/2000/svg" xmlns:xlink="http://www.w3.org/1999/xlink" x="0px" y="0px"
	 width="2529.088px" height="1891.836px" viewBox="0 0 2529.088 1891.836" enable-background="new 0 0 2529.088 1891.836"
	 xml:space="preserve">
<polyline fill="#FFFFFF" points="1882.988,1747.102 1864.488,1360.599 1853.984,1360.846 "/>
<g>
	<path fill="#FFFFFF" stroke="#000000" stroke-miterlimit="10" d="M1871.488,1297.841l-3.5-135.739c0,0-1.992-29.5-20.996-30.5
		s-20.588,18.5-22.796,30.5s0.425,85.346-30.392,96.923s-136.816,7.577-160.316,7.077s-98-1-98-1v26.5L1871.488,1297.841z"/>
	<polygon fill="#FFFFFF" stroke="#000000" stroke-miterlimit="10" points="1572.48,1604.551 1824.196,1607.062 1822.357,1573.998 
		1574.131,1571.584 	"/>
	<polygon fill="#FFFFFF" stroke="#000000" stroke-miterlimit="10" points="1882.988,1747.102 1865.489,1360.599 1534.488,1352.802 
		1511.488,1747.102 1565.346,1747.102 1581.988,1414.602 1813.488,1414.602 1831.988,1747.102 	"/>
	<polyline fill="#FFFFFF" stroke="#000000" stroke-miterlimit="10" points="1853.984,1360.846 1872.49,1747.102 1882.988,1747.102 	
		"/>
	<polygon fill="#FFFFFF" stroke="#000000" stroke-miterlimit="10" points="1510.487,1747.102 1521.595,1746.959 1543.983,1353.602 
		1534.487,1353.602 	"/>
	<path fill="#FFFFFF" stroke="#000000" stroke-miterlimit="10" d="M1530.974,1352.787l333.515,7.812c5.177,0,18.5,3.003,16.5-11.944
		c0,0-5.5-4.051-17.509-2.763l-332.506-6.18c-5.176,0-8.378,0.275-8.378,5.538
		C1522.596,1345.25,1522.458,1352.511,1530.974,1352.787z"/>
	<path fill="#FFFFFF" stroke="#000000" stroke-miterlimit="10" d="M1867.512,1345.94c0,0-2.023-16.398,2.477-21.721
		s27-9.822,30.5-9.822s0-15,0-15s-150.059-4.5-178.029-5s-227.971-2.5-227.971-2.5v18.5c0,0,30,1.791,34,10.646
		s5.5,18.965,5.5,18.965L1867.512,1345.94z"/>
	<polygon fill="#FFFFFF" stroke="#000000" stroke-miterlimit="10" points="1857.996,1297.841 1852.988,1162.102 1835.989,1162.102 
		1836.987,1296.84 	"/>
	<path fill="#FFFFFF" stroke="#000000" stroke-miterlimit="10" d="M1672.74,1252.24c0,9.707-7.481,14.761-18.251,14.761
		c-10.771,0-17.499-7.868-17.499-17.575c0-9.706,6.729-17.574,17.499-17.574c9.422,0,16.283,5.021,18.104,13.027
		C1672.853,1246.024,1672.74,1251.025,1672.74,1252.24z"/>
	<path fill="#FFFFFF" stroke="#000000" stroke-miterlimit="10" d="M1762.488,1231.852c0,0,11.5,2.5,12,14
		s-7.021,20.252-15.636,19.251s-27.114,0.249-25.864-21.001S1762.488,1231.852,1762.488,1231.852z"/>
	<circle fill="#FFFFFF" stroke="#000000" stroke-miterlimit="10" cx="1560.277" cy="1244.357" r="19.25"/>
	<path fill="#FFFFFF" stroke="#000000" stroke-miterlimit="10" d="M1853.984,1337.994c0,0-0.996-22.058,14.502-25.392
		s15.498-3.334,15.498-3.334l0.005-2.999l-379.338-6.427v2.76c0,0,25.008,0,30.837,10s6.54,18.666,6.54,18.666L1853.984,1337.994z"
		/>
	<path fill="#FFFFFF" stroke="#000000" stroke-miterlimit="10" d="M1613.656,1205.268v6.667c0,0,15.666,1.334,13.666,15.333
		c-1.573,11.014-6.77,37.913-6.77,37.913l-19.561,0.475c0,0-8.003-29.315-8.003-35.685s1.333-16.037,12-17.703
		c0,0,0.333-6.535-3-9.768l-1.333-2.898c0,0,4,3.464,8,2.898s6.333-2.898,6.333-2.898L1613.656,1205.268z"/>
	<path fill="#FFFFFF" stroke="#000000" stroke-miterlimit="10" d="M1698.338,1208.602l-1.1,6.102c0,0-12.582,3.287-11.249,17.926
		s12.349,33.026,12.349,33.026l12.651,0.526c0,0,12.334-25.865,11.667-36.223s-11.667-13.691-11.667-13.691l-2-7.666l3.333-1.667
		h-18.002L1698.338,1208.602z"/>
	<path fill="#FFFFFF" stroke="#000000" stroke-miterlimit="10" d="M1703.488,1205.602c0,0,2.834-4.869,8.834-3.102
		s3.667,3.102,3.667,3.102l0.446-6c0,0-13.638-0.667-14.542-11.667c0,0,0.763,12.667-11.237,11.667v6
		C1690.656,1205.602,1697.01,1198.856,1703.488,1205.602z"/>
	<path fill="#FFFFFF" stroke="#000000" stroke-miterlimit="10" d="M1608.656,1202.5c0,0-0.001-7.567,6.999-6.733
		s6.001,2.834,6.001,2.834l0.265-6.999c0,0-10.755,3.667-11.677-6.333c0,0-1.517,11.499-14.59,7.615c0,0-0.855,4.419,2.002,3.884
		C1605.656,1195.269,1608.49,1198.115,1608.656,1202.5z"/>
	<path fill="#FFFFFF" stroke="#000000" stroke-miterlimit="10" d="M1765.997,1234.188c0,0,2.601,9.08-8.363,7.747
		s-18.148-8.285-12.854-10.976C1750.072,1228.27,1765.997,1234.188,1765.997,1234.188z"/>
	<path fill="none" stroke="#000000" stroke-miterlimit="10" d="M1747.369,1264.146c0,0-8.311-6.878,0-9.545
		c8.14-2.612,21.59-1.655,18.513,9.006C1765.882,1263.607,1757.262,1266.305,1747.369,1264.146z"/>
	<path fill="#FFFFFF" stroke="#000000" stroke-miterlimit="10" d="M1760.052,1251.663c2.525-3.016,3.796-9.382,1.381-9.52
		c-2.416-0.139-10.329-1.192-10.329-1.192s-6.737,1.33-2.073,8.475C1751.646,1253.434,1758.548,1253.459,1760.052,1251.663z"/>
	<path fill="none" stroke="#000000" stroke-linejoin="bevel" stroke-miterlimit="10" d="M1663.145,1265.655
		c0,0-1.047-9.721-8.268-10.721s-11.758,2.809-12.656,7.438C1642.221,1262.372,1650.3,1270.043,1663.145,1265.655z"/>
	<path fill="#FFFFFF" stroke="#000000" stroke-miterlimit="10" d="M1663.145,1233.527c0,0,2.287,9.344-8.268,8.542
		s-8.328-8.542-8.328-8.542S1654.854,1229.959,1663.145,1233.527z"/>
	<path fill="#FFFFFF" stroke="#000000" stroke-miterlimit="10" d="M1654.877,1242.069c0,0,5.415,2.069,5.445,5.5
		c0.051,5.81-3.938,6.719-7.64,7.208s-4.692-4.603-4.026-7.723S1651.045,1242.309,1654.877,1242.069z"/>
	<path fill="none" stroke="#000000" stroke-linejoin="bevel" stroke-miterlimit="10" d="M1547.998,1259.182
		c0,0,3.9-5.569,12.279-4.408s9.857,6.119,9.857,6.119S1559.007,1268.429,1547.998,1259.182z"/>
	<path fill="#FFFFFF" stroke="#000000" stroke-miterlimit="10" d="M1572.48,1229.471c0,0-2.158,8.798-9.491,9.131
		s-14.915-9.131-14.915-9.131S1558.305,1220.007,1572.48,1229.471z"/>
	<path fill="#FFFFFF" stroke="#000000" stroke-miterlimit="10" d="M1565.656,1238.61c0,0,3.239,6.84,1.666,12.324
		s-3.424,5.345-7.045,3.839s-1.622-1.283-2.955-7.895s0.243-8.855,2.955-8.566S1565.656,1238.61,1565.656,1238.61z"/>
</g>
<g display="none">
	<g display="inline">
		<path fill="#FFFFFF" stroke="#000000" stroke-miterlimit="10" d="M108.988,1722.038l332,8.985l327.494,12.578l204.333-13.067
			l223.077,7.76l332.096,8.808l426.083,3.965l317.917,3.01h257.1v18.525l-397.1-7l-418-1l-310-6l-319-4.839l-220,0.313
			c0,0-95.846,9.525-141.423,6.525s-293.577-6.839-293.577-6.839l-255-6.661l-10,0.219l-25-3.719l-27-7.5L108.988,1722.038z"/>
		<path fill="#FFFFFF" stroke="#000000" stroke-miterlimit="10" d="M2529.088,1790.602l0.025,16l-796.027-8
			c0,0-817.098-14-881.098-8s-128.423,7.253-128.423,7.253l-591.577-25.253l-8-18.839c0,0,481.632,41.512,616,26.419
			c112-12.58,608,0,608,0L2529.088,1790.602z"/>
		<path fill="#FFFFFF" stroke="#000000" stroke-miterlimit="10" d="M2529.088,1825.602v10h-543.1h-249l-679-10h-295l5.494-11
			c0,0,138.645-8,201.576-8s500.892,8,500.892,8s488.039,2,538.039,2S2529.088,1825.602,2529.088,1825.602z"/>
		<path fill="#FFFFFF" stroke="#000000" stroke-miterlimit="10" d="M2529.113,1856.602l-0.025,16h-540.1h-504c0,0-162-4-213,0
			s-75.309-5-112.154,0s-292.846,1.058-292.846,1.058l-87-7.791v-22.267c0,0,85,6,126,0s121,8,144,8s36-6,91-4s142-1,196,0
			s66.725,2,105.362,1s357.638,2,357.638,2h338l391.1,2"/>
	</g>
	<polygon display="inline" fill="#FFFFFF" stroke="#000000" stroke-miterlimit="10" points="2529.088,1754.076 2491.984,1753.763 
		2479.988,126.602 2511.988,126.602 	"/>
	<polygon display="inline" fill="#FFFFFF" stroke="#000000" stroke-miterlimit="10" points="2529.113,93.763 990.226,89.759 
		67.988,84.602 67.988,49.602 925.988,63.602 2008.321,64.602 2529.113,68.46 	"/>
	<path display="inline" fill="#FFFFFF" stroke="#000000" stroke-miterlimit="10" d="M2529.113,42.602v-12c0,0-785.572,4-856.349,0
		s-367.072,2.997-437.924-3.003S743.988,14.602,731.988,14.602s-650,0-650,0v14c0,0,517.5,0,589.75,0s592.831,14,592.831,14
		H2529.113z"/>
</g>
</svg>
