<?xml version="1.0" encoding="utf-8"?>
<!-- Generator: Adobe Illustrator 16.0.0, SVG Export Plug-In . SVG Version: 6.00 Build 0)  -->
<!DOCTYPE svg PUBLIC "-//W3C//DTD SVG 1.1//EN" "http://www.w3.org/Graphics/SVG/1.1/DTD/svg11.dtd">
<svg version="1.1" id="Layer_2" xmlns="http://www.w3.org/2000/svg" xmlns:xlink="http://www.w3.org/1999/xlink" x="0px" y="0px"
	 width="2529.088px" height="1891.836px" viewBox="0 0 2529.088 1891.836" enable-background="new 0 0 2529.088 1891.836"
	 xml:space="preserve">
<g>
	<g>
		<path fill="#FFFFFF" d="M943.105,1695.123c0.692,0,2.062-1.043,0.766-1.043C943.179,1694.08,941.809,1695.123,943.105,1695.123
			L943.105,1695.123z"/>
	</g>
</g>
<path fill="none" stroke="#FFFFFF" stroke-miterlimit="10" d="M1587.798,684.433"/>
<path fill="none" stroke="#FFFFFF" stroke-miterlimit="10" d="M1487.574,1119.548l-45.49-3.446c0,0-4.096,1.5-4.096,6
	s4.362,5.5,4.362,5.5l3.214,0.427l42.01,5.573c0,0-50.086-10-49.586,0s10,7,17.5,8.5s24.227,0.355,28.682,3.5l-39.182-3.5
	c0,0-3.5,6.5,6,9.5s27,3,27,3"/>
<path fill="none" stroke="#FFFFFF" stroke-miterlimit="10" d="M1888.258,833.653c0,0,28.67-31.988,33.2-47.52l-28.47-27.532
	c0,0-19.984,29-34.992,37L1888.258,833.653z"/>
<path fill="none" stroke="#FFFFFF" stroke-miterlimit="10" d="M1806.771,746.859"/>
<path fill="none" stroke="#FFFFFF" stroke-miterlimit="10" d="M1928.321,767.602c0,0,35,10.333,61.667,17"/>
<g>
	<polygon fill="#FFFFFF" stroke="#000000" stroke-miterlimit="10" points="2370.488,1222.102 2370.488,1230.602 2422.988,1233.102 
		2422.988,1224.102 	"/>
	<path fill="#FFFFFF" stroke="#000000" stroke-miterlimit="10" d="M2377.488,1212.602h19.25c0,0-3.479-14.992-9.625-15
		C2377.488,1197.59,2377.488,1212.602,2377.488,1212.602z"/>
	<path fill="#FFFFFF" stroke="#000000" stroke-miterlimit="10" d="M2422.988,1211.602c0,0-8-0.5-6.75-6.5s11.25-24.5,1.75-32
		s-9.75,0.5-22.25,0s-4-4.25-11.25-11s-14.5-4.75-15.25-2.5s0.25,5.25,1.25,6.5s10.5-0.5,11,3s1.75,11,11.5,10.25s19.5-3,21.25,2.75
		s-7.75,18.25-4,25.75s12.75,10,12.75,10S2426.153,1212.313,2422.988,1211.602z"/>
	<rect x="2368.977" y="1115.352" fill="#FFFFFF" stroke="#000000" stroke-miterlimit="10" width="11.512" height="28.75"/>
	<ellipse fill="#FFFFFF" stroke="#000000" stroke-miterlimit="10" cx="2376.488" cy="1086.852" rx="9.5" ry="8.75"/>
	<ellipse fill="#FFFFFF" stroke="#000000" stroke-miterlimit="10" cx="2412.287" cy="1091.688" rx="8.125" ry="7.375"/>
	<path fill="#FFFFFF" stroke="#000000" stroke-miterlimit="10" d="M2414.988,1120.602c0,0,3.75,13,3.25,16.25s-3.25,7.25-3.25,7.25
		h-4.25c0,0-4.5-8.25-3.5-11.75s3.5-11.75,3.5-11.75H2414.988z"/>
	<path fill="#FFFFFF" stroke="#000000" stroke-miterlimit="10" d="M2416.488,1067.726c0,0-16.5,3.626-26,3.376
		s-13.262-4-15.756-6.75s-7.244-5.156-7.744-4.203s-1.25-2.297-1.25-2.297h3.238l-1.988-10.75h1.988l5.756,3.25l8.256-3.25
		l-5.5,9.75l6.25,8.25C2383.738,1065.102,2396.488,1058.1,2416.488,1067.726z"/>
	<polygon fill="#FFFFFF" stroke="#000000" stroke-miterlimit="10" points="2410.738,1035.102 2410.738,1041.852 2370.488,1041.852 
		2370.488,1035.102 2378.988,1030.102 2385.988,1034.102 2387.113,1029.102 2396.738,1029.102 2399.738,1035.477 2404.162,1032.102 
			"/>
	<path fill="#FFFFFF" stroke="#000000" stroke-miterlimit="10" d="M2410.738,987.602l9.674,6.75l-9.674,4.5v6.75l-9.999,18.5
		l0.999-19.75c0,0,7-5.25,7-6s0-10.75,0-10.75H2410.738z"/>
	<polygon fill="#FFFFFF" stroke="#000000" stroke-miterlimit="10" points="2393.488,992.852 2398.887,986.102 2385.988,984.852 
		2390.613,994.102 2390.613,1015.102 2393.488,1024.102 2396.738,1012.852 	"/>
	<polygon fill="#FFFFFF" stroke="#000000" stroke-miterlimit="10" points="2384.488,1024.102 2384.488,1013.102 2381.738,1001.352 
		2378.988,996.852 2378.988,987.602 2365.738,995.102 2376.488,998.852 2378.738,1016.352 	"/>
	<path fill="#FFFFFF" stroke="#000000" stroke-miterlimit="10" d="M2420.412,965.352l-53.424-2.5c0,0,18.75,12.75,28.5,12.25
		S2420.412,965.352,2420.412,965.352z"/>
	<path fill="#FFFFFF" stroke="#000000" stroke-miterlimit="10" d="M2420.412,920.352c0,0,1.326,25.5,2.576,29.25
		s1.25,13.25-3.75,13.25s-6.5-6.25-4.75-11.5s2.75-16.75,2-20.75s-1.5-10.25-1.5-10.25H2420.412z"/>
	<path fill="#FFFFFF" stroke="#000000" stroke-miterlimit="10" d="M2377.488,918.602c0,0-5.955-11.68,1.584-11.333
		s1.416,11.333,1.416,11.333H2377.488z M2384.488,960.352l-2-31.75h8.125l0.544-9h-8.669c0,0,8.25-10.5,2-15s-16.75,1.75-14,7.25
		s4.625,9.5,4.625,9.5l-8.125-2.5v10.25l8.125-1.25l-1.375,32.5H2384.488z"/>
</g>
<path fill="#FFFFFF" stroke="#000000" stroke-miterlimit="10" d="M962.224,1891.86"/>
<g>
	<path fill="#FFFFFF" stroke="#000000" stroke-miterlimit="10" d="M2428.706,645.641l-19.75-19.5l-17.799,22.96h-12.085
		l23.134-30.46c0,0-13.174-23.79-11.049-35.79s15.944-13.947,27.473-9.21c16.358,6.722-2.142,44.5-2.142,44.5l22.218,27.5H2428.706z
		 M2409.537,610.641c0,0,11.346-23.557,3.048-30.278c-6.327-5.125-17.864,5.369-13.097,14.989
		C2404.586,605.637,2406.238,604.352,2409.537,610.641z"/>
	<path fill="#FFFFFF" stroke="#000000" stroke-miterlimit="10" d="M2410.738,571.256l1.75-6.905c0,0,5-0.75,5-2.5
		s1.5-6.25-6.75-6.25s-19.662,0-19.581,4s2.331,4.25,5.081,5.5l2.228,7.945C2398.466,573.046,2400.988,570.661,2410.738,571.256z"/>
	<rect x="2396.488" y="613.852" fill="#FFFFFF" stroke="#000000" stroke-miterlimit="10" width="26" height="8"/>
	<polygon fill="#FFFFFF" stroke="#000000" stroke-miterlimit="10" points="2425.155,583.15 2434.738,578.823 2432.738,601.352 
		2423.96,597.286 	"/>
	<path fill="#FFFFFF" stroke="#000000" stroke-miterlimit="10" d="M2391.156,581.352l-12.084-3.5v22.25h14.872
		C2393.944,600.102,2389.824,588.352,2391.156,581.352z"/>
</g>
<g>
	<polygon fill="#FFFFFF" stroke="#000000" stroke-miterlimit="10" points="1330.988,1193.885 1317.036,1193.885 1302.988,1638.603 
		1316.988,1641.6 	"/>
	<polygon fill="#FFFFFF" stroke="#000000" stroke-miterlimit="10" points="1439.988,1567.102 1439.988,1576.104 1353.008,1572.714 
		1330.988,1570.602 1347.488,1547.881 1406.488,1547.881 1413.988,1553.85 1354.488,1553.974 1348.488,1563.994 	"/>
	<path fill="#FFFFFF" stroke="#000000" stroke-miterlimit="10" d="M1330.988,1586.102c0,0,17.5,2.5,25.5,0l-6,27c0,0-12,2-13.5,0
		S1330.988,1586.102,1330.988,1586.102z"/>
	<path fill="#FFFFFF" stroke="#000000" stroke-miterlimit="10" d="M1434.656,1592.269l-14-2.945c0,0-6.334-7.722-13.334-3.222
		s2.666,18.422,4,20.961s2,6.928,2,6.928s-15.668-7.389-27.834-4.389s-18.165,12.333-34.832,12c0,0-6.333,0.667,0,3.667
		s13.666,2.999,17.666,2.666s12.667,2,12.667,2s13,1.333,18,0s11.333-7.332,15-7.666s13.667-0.668,8-10.334s-9.333-17.667-2.333-17
		c3.197,0.305,7.604,0.775,10.36,0.109C1433.296,1594.253,1434.656,1592.269,1434.656,1592.269z"/>
	<polygon fill="#FFFFFF" stroke="#000000" stroke-miterlimit="10" points="1398.989,1629.935 1403.656,1641.6 1415.322,1641.6 
		1415.322,1644.935 1373.989,1644.935 1373.989,1641.6 1385.488,1641.6 1380.989,1629.935 1383.989,1629.935 1391.249,1640.602 
		1398.656,1640.602 1395.998,1630.39 	"/>
	<path fill="#FFFFFF" stroke="#000000" stroke-miterlimit="10" d="M1434.656,1644.935c0,0,0.26-0.509,0.643-1.375
		c1.782-4.041,6.22-15.841-0.643-19.958c0,0-13,3.999-10,15.333s5,6,5,6s-2.412-6.667,1.627-7.5
		C1431.283,1637.435,1435.99,1638.268,1434.656,1644.935z"/>
	<polygon fill="#FFFFFF" stroke="#000000" stroke-miterlimit="10" points="1429.322,1505.269 1443.656,1505.269 1443.656,1475.602 
		1431.283,1473.269 1434.656,1500.935 	"/>
	<polygon fill="#FFFFFF" stroke="#000000" stroke-miterlimit="10" points="1397.989,1502.268 1397.989,1475.268 1385.488,1475.268 
		1385.488,1500.602 	"/>
	<polygon fill="#FFFFFF" stroke="#000000" stroke-miterlimit="10" points="1343.738,1494.602 1344.989,1473.269 1332.322,1469.268 
		1332.322,1497.602 1351.322,1497.602 	"/>
	<path fill="#FFFFFF" stroke="#000000" stroke-miterlimit="10" d="M1400.989,1457.935c1.333,0,42.667,3,42.667,3v-10h-42.667
		l4.333-9c0,0-5.48-4.334-14.073-1.667s-1.593,9.899-1.593,9.899l-55.667-3.565v10l57.26-0.667L1400.989,1457.935z"/>
	<path fill="#FFFFFF" stroke="#000000" stroke-miterlimit="10" d="M1333.989,1416.602c0,0,6.999-29.334,17.333-28.667
		s19,29.808,19,29.808S1347.989,1423.936,1333.989,1416.602z"/>
	<path fill="#FFFFFF" stroke="#000000" stroke-miterlimit="10" d="M1409.989,1411.935c0,0,3.999,14.667,17.333,14.667
		s15.028-9.334,15.028-14.667s-1-21-16.181-21S1409.656,1404.601,1409.989,1411.935z"/>
	<polygon fill="#FFFFFF" stroke="#000000" stroke-miterlimit="10" points="1414.364,1420.186 1420.989,1408.768 1412.386,1398.455 
		1420.989,1391.57 1427.656,1404.055 1436.489,1394.589 1441.513,1404.055 1434.656,1408.768 1441.513,1417.742 1436.489,1424.41 
		1426.949,1415.269 1421.656,1424.41 	"/>
	<path fill="#FFFFFF" stroke="#000000" stroke-miterlimit="10" d="M1447.656,1347.935l-7.668,8h-87.832c0,0-4.5,17-13.5,13.667
		s5.666-20.334,12.666-21.667S1447.656,1347.935,1447.656,1347.935z"/>
	<path fill="#FFFFFF" stroke="#000000" stroke-miterlimit="10" d="M1438.322,1355.935c0,0-11,15.667-40.333,15.667
		s-41.501-15.667-41.501-15.667H1438.322z"/>
	<polygon fill="#FFFFFF" stroke="#000000" stroke-miterlimit="10" points="1451.601,1320.934 1438.322,1301.845 1430.656,1312.602 
		1421.987,1299.843 1412.386,1310.889 1402.322,1297.841 1388.822,1310.935 1378.989,1299.843 1365.989,1311.269 1354.322,1297.841 
		1338.656,1316.269 1346.989,1321.935 1354.989,1313.269 1366.989,1323.602 1381.322,1314.935 1388.822,1325.269 1402.322,1311.555 
		1412.386,1323.935 1420.322,1314.602 1429.322,1325.269 1438.322,1315.935 1447.656,1327.269 	"/>
	<polygon fill="#FFFFFF" stroke="#000000" stroke-miterlimit="10" points="1447.656,1293.935 1450.6,1289.269 1429.322,1267.011 
		1414.656,1278.602 1402.989,1266.182 1391.737,1274.314 1379.989,1264.983 1367.656,1274.314 1353.656,1264.983 1338.656,1279.459 
		1345.322,1283.935 1355.696,1276.935 1366.989,1285.935 1379.656,1276.269 1388.822,1285.269 1402.322,1279.459 1412.386,1289.602 
		1429.322,1279.459 	"/>
	<path fill="#FFFFFF" stroke="#000000" stroke-miterlimit="10" d="M1345.322,1244.357l99,3.41c0,0,2.834-7.814,1.667-9.157
		s-81.834-5.009-81.834-5.009s-3.5-3.988-4-8.494s-1.333-6.34-1.333-6.34h-15.333
		C1343.489,1218.768,1341.468,1244.225,1345.322,1244.357z"/>
	<path fill="#FFFFFF" stroke="#000000" stroke-miterlimit="10" d="M1357.989,1217.435c0,0-1.333-22.499-11-25.833
		s-4.03,15.333-4.03,15.333s-0.97,11.166,2.03,11.833S1357.156,1219.102,1357.989,1217.435z"/>
	<path fill="#FFFFFF" stroke="#000000" stroke-miterlimit="10" d="M1383.156,1217.268h11.459l0.013-26.064
		c0,0-2.832,0.565-5.735-1.102s-5.236,0.9-5.736,3.783S1383.156,1217.268,1383.156,1217.268z"/>
	<path fill="#FFFFFF" stroke="#000000" stroke-miterlimit="10" d="M1445.155,1237.029l-15.5-45.826c0,0-4.166-1.565-4.833,0
		s-7,38.756-7,38.756l4.5,1.893l6.333-23.083l10.834,28.261l5.666,1.259V1237.029z"/>
</g>
<path fill="#FFFFFF" stroke="#000000" stroke-miterlimit="10" d="M607.321,1185.269l12-1c0,0-12,333.166-12,366.083
	s-4,77.186-4,77.186l-16-0.654c0,0,13.333-264.948,13.333-284.281S610.655,1189.269,607.321,1185.269z"/>
<g>
	<path fill="#FFFFFF" stroke="#000000" stroke-miterlimit="10" d="M651.988,1219.269c0,0-4.333-29-12.333-33
		c0,0-2.334-1.895-2.667,2.386s-2.333,47.947-2.333,47.947s2.667,1.667,6,1.667s47.333-1.333,57,0s40.667,2.334,40.667,0s0-11,0-11
		l-16.667-43l-14,42l11-0.667c0,0,1.333-16.933,5.667-13.633s7,14.3,7,14.3s0.667,5.332-3.667,3.666s-8.333-4.002-8.333-4.002
		s-10-0.998-15.667,0.669S670.988,1230.603,651.988,1219.269z"/>
	<path fill="#FFFFFF" stroke="#000000" stroke-miterlimit="10" d="M688.655,1208.935l1.667-20.28l-12-2.386
		c0,0,1.667,6.333,1.333,11.333s-1.333,11.333-1.333,11.333H688.655z"/>
	<rect x="684.322" y="1222.602" fill="#FFFFFF" stroke="#000000" stroke-miterlimit="10" width="8.653" height="15.303"/>
	<polygon fill="#FFFFFF" stroke="#000000" stroke-miterlimit="10" points="740.322,1274.314 725.655,1256.269 711.655,1267.269 
		700.988,1256.269 686.488,1265.291 676.655,1252.269 661.988,1266.935 651.322,1253.935 631.988,1268.602 637.655,1272.269 
		651.322,1266.269 665.988,1278.269 676.655,1265.269 688.648,1276.269 701.322,1265.269 712.322,1278.269 725.988,1267.935 
		734.655,1278.269 	"/>
	<path fill="#FFFFFF" stroke="#000000" stroke-miterlimit="10" d="M738.322,1306.935l-15.667-20.333l-13.667,12.667l-10.333-12.667
		l-17,10.166l-10.667-10.166l-13.333,11.667l-13.333-14l-12.333,11.333c0,0-4,7.001,4.333,7.667l8.667-7.667l12.667,11.333l13-9
		l10.333,9l16-11.333l9,11.333c0,0,4-0.333,7.333-2.333s10-5.333,10-5.333l9,11L738.322,1306.935z"/>
	<polygon fill="#FFFFFF" stroke="#000000" stroke-miterlimit="10" points="736.322,1353.602 730.988,1330.935 727.655,1333.706 
		729.322,1357.602 	"/>
	<polygon fill="#FFFFFF" stroke="#000000" stroke-miterlimit="10" points="635.988,1352.935 641.322,1334.268 636.989,1326.268 
		628.655,1351.269 	"/>
	<path fill="#FFFFFF" stroke="#000000" stroke-miterlimit="10" d="M667.322,1366.935l2-11.666c0,0,15.667,2.334,26.333,0l2,15
		C697.655,1370.269,678.322,1370.268,667.322,1366.935z"/>
	<path fill="#FFFFFF" stroke="#000000" stroke-miterlimit="10" d="M682.488,1356.291c30.493,1.176,49.5-27.333,49.5-27.333
		s-36.333-0.356-43.34-0.023s-51.66-3-51.66-3S648.488,1354.98,682.488,1356.291z"/>
	<path fill="#FFFFFF" stroke="#000000" stroke-miterlimit="10" d="M714.488,1408.602c0,0,10-5,15,0s-3.75,17.25-11.25,12.75
		s-13.75,3-16.25,4s7.25,12.75,7.25,12.75l-3.5,1.5c0,0-11-10.25-13.25-11s-14.75,0.5-14.75,0.5l9.75,13.5h-7.25
		c0,0-21-21.75-24.25-25.75s-11.833-8.75-14.667-6s-11.083,9.277-1.083,13.639s13.75,0.861,17.75,6.611s5.917,8.5,9.333,9.75
		s2.667,6.25,2.667,6.25s-4.25-2.75-8.5-5.25s-1.75-4.75-5.5-7s-4.5-2.25-15.75-4s-17.669-16-9.209-22.25s21.709-5.5,21.709-5.5
		s12.25-6,13.5-6.25s12.815-19,12.815-19l3.435,2.879l-3.435,15.121c0,0,7.435,0.75,8.935,0.5l13.25-15.621l4,1.121l-7.583,17.5
		C697.655,1399.352,709.738,1404.352,714.488,1408.602z"/>
	<path fill="#FFFFFF" stroke="#000000" stroke-miterlimit="10" d="M723.488,1627.852c0,0-1.5-18-9-18s-11,17-9.5,18
		S723.488,1627.852,723.488,1627.852z"/>
	<path fill="#FFFFFF" stroke="#000000" stroke-miterlimit="10" d="M723.488,1591.102l-7.5-11.75l-3.5,7.5l-7.841-7.5l-3.409,7.25
		l-7.75-10l-4,8.75l-6.5-8.75l-6.25,10.25v4.25l6.5-5.75l7.5,7.25l4.5-6.25l7.75,7.5l1.659-7.5l7.841,6l4.5-5.25l3.25,5.25
		C720.238,1592.352,720.988,1592.602,723.488,1591.102z"/>
	<path fill="#FFFFFF" stroke="#000000" stroke-miterlimit="10" d="M661.988,1591.85v-10.498h-2c0,0-2.25,4.5-7.25,5s-7.5-5.25-10-5
		s-4.75,4.75-10.25,3.875s-7-6.375-9-6.125s-2,12.25-2,12.25L661.988,1591.85z"/>
	<path fill="#FFFFFF" stroke="#000000" stroke-miterlimit="10" d="M621.488,1609.852h36.502c0,0-1.002,17.443-19.252,17.443
		C623.488,1627.295,621.488,1609.852,621.488,1609.852z"/>
	<path fill="#FFFFFF" stroke="#000000" stroke-miterlimit="10" d="M715.738,1571.852c0,0,5.25-5.75,7.75-7.75s2-11.75,2-11.75
		l-4.854,1.75c0,0-4.896-9.25-2.646-9.75s4-1.5,4-1.5v-2.75h-13.75v4.25l5.83,0.75v8l-9.42-0.25c0,0-0.659,8.75,3.591,11.25
		S715.738,1571.852,715.738,1571.852z"/>
	<path fill="#FFFFFF" stroke="#000000" stroke-miterlimit="10" d="M671.685,1571.852c0,0,7.11-5.269,9.803-7
		c3.5-2.25,3.5-12.5,3.5-12.5l-9.409,1.75c0,0-1.893-9.25,0.357-9.75s4-1.5,4-1.5l-1.001-3.751l-12.198-0.446v3.696l5.278,1.75
		l-1.001,9.001l-10.421-0.25c0,0-0.659,8.75,3.591,11.25S671.685,1571.852,671.685,1571.852z"/>
	<path fill="#FFFFFF" stroke="#000000" stroke-miterlimit="10" d="M645.488,1555.977c0,0,0.25,8.375-3.75,10.375s-5,6.75-5,6.75
		h-3.5c0,0-2.5-2.75-6.25-6.25s-1-10.697-2.75-11.599s2.5-1.849,3.75,0s0.586,10.349,6.668,10.099s6.082-9.375,6.082-9.375h6"/>
	<polygon fill="#FFFFFF" stroke="#000000" stroke-miterlimit="10" points="694.488,1612.852 692.988,1627.295 684.988,1621.602 
		678.238,1625.535 678.238,1611.352 680.488,1611.352 681.988,1618.573 687.988,1619.074 689.238,1611.352 	"/>
	<path fill="#FFFFFF" stroke="#000000" stroke-miterlimit="10" d="M671.738,1613.852l-2,11.684l-9.181-1.684
		c0,0-0.569-4.141,1.431-4.32s5.5,2.57,5.5,2.57l0.75-8.25C668.238,1613.852,670.488,1611.852,671.738,1613.852z"/>
	<path fill="#FFFFFF" stroke="#000000" stroke-miterlimit="10" d="M708.988,1475.268c0,0,26.334-13,18.667-14.333
		s-19.667,9.167-36.167,7.167s-57.5-9.834-59.5-7.167s28.5,20.167,39.75,19.667S695.139,1482.957,708.988,1475.268z"/>
</g>
<g>
	<polygon fill="#FFFFFF" stroke="#000000" stroke-miterlimit="10" points="1704.286,706.602 1701.894,1095.602 1685.891,1095.89 
		1693.319,703.935 	"/>
	<polygon fill="#FFFFFF" stroke="#000000" stroke-miterlimit="10" points="1556.84,703.595 1548.074,1091.688 1535.488,1091.688 
		1541.027,703.595 	"/>
	<path fill="#FFFFFF" stroke="#000000" stroke-miterlimit="10" d="M1663.354,1078.602c0,0,3.97-12.999-3.031-12.333
		s-4.335,12.333-3.668,12.333s-5.666,2-5.666,2h9.334c0,0,7,0.333,9.666-2H1663.354z"/>
	<path fill="#FFFFFF" stroke="#000000" stroke-miterlimit="10" d="M1669.988,1052.082c0,0-27.768,9.52-40.667,4.52
		c-8.368-3.243-16.999-2.352-28.333,0.824s-20.667-2.863-24.667-5.344s-6.187-4.48-6.187-4.48l6.187-8h-1.333l-7.234,6.667l-7.477-9
		l-3.438,1.666l5.457,8.863c0,0-3.975,2.765,1.691,4.284s15.333,6.853,19.333,9.853s16.812,1.333,25.406,0
		s14.593-0.304,23.927,1.682S1667.655,1056.562,1669.988,1052.082z"/>
	<polygon fill="#FFFFFF" stroke="#000000" stroke-miterlimit="10" points="1672.765,1037.269 1663.354,1026.602 1656.654,1031.936 
		1646.353,1023.935 1634.988,1033.269 1627.499,1022.602 1615.988,1032.602 1608.728,1021.269 1595.534,1031.269 1589.988,1021.269 
		1576.988,1029.269 1570.135,1017.269 1560.277,1027.269 1562.297,1029.935 1567.754,1024.602 1574.321,1033.269 1588.988,1027.269 
		1595.534,1037.269 1608.728,1028.935 1616.521,1037.269 1627.499,1030.935 1634.988,1037.269 1646.353,1030.602 1654.393,1037.269 
		1663.145,1032.602 1668.654,1037.269 	"/>
	<path fill="#FFFFFF" stroke="#000000" stroke-miterlimit="10" d="M1567.754,1008.935c0,0,9.38,7.667,40.974,7.001
		s28.927,3.333,40.927,1.333s15.667-3.93,15.667-3.93s-39.309-0.568-51.907-6.737
		C1592.989,996.602,1576.187,1002.268,1567.754,1008.935z"/>
	<path fill="#FFFFFF" stroke="#000000" stroke-miterlimit="10" d="M1602.644,1015.961v-13.349c0,0-14.732-2.35-17.322-1.433
		s0,14.781,0,14.781H1602.644z"/>
	<path fill="#FFFFFF" stroke="#000000" stroke-miterlimit="10" d="M1565.321,973.935l-3.667-8h3.667l2.433,2l4.727-6.333l3.841,3
		l-3.841,6c0,0,10.174,9.333,13.174,12s10.979-2.001,16.989-3.667s18.679-0.055,27.345,4.473s10.667,3.193,21,2.527
		s16.332-5.332,16.666-7.666s-2.333-2-2.333-2s7.001-1.001,4.667,4.666s-11.666,9.667-25,8.667s-20.235-3.999-28.451-5.333
		s-16.217,2.667-26.883,4s-11-0.667-14-4.667s-3.666-6.333-5.333-6.333S1556.059,980.554,1565.321,973.935z"/>
	<path fill="#FFFFFF" stroke="#000000" stroke-miterlimit="10" d="M1670.465,957.602c0,0-8.227,10.25-28.477,1.25
		s-33.75,3.25-44,2.75s-17.25-13.75-20.75-16.75s5.25-12.5,5.25-12.5l-2.25-3.75l-8.5,9.75l-8.25-7.25l-1.834,1.75l6.1,9.75
		l-6.1,2.975l2.084,4.025c0,0,8.5-5.75,13.5,4s11,16.25,27.25,13s32-3.559,48.5,0.846S1679.691,957.102,1670.465,957.602z"/>
	<path fill="#FFFFFF" stroke="#000000" stroke-miterlimit="10" d="M1623.238,939.352c0,0-4.648-10.5-9.824-10.75
		s-10.771,12-10.771,12S1615.988,941.602,1623.238,939.352z"/>
	<polygon fill="#FFFFFF" stroke="#000000" stroke-miterlimit="10" points="1652.238,805.352 1677.238,805.352 1677.238,828.602 
		1649.988,826.602 	"/>
	<path fill="#FFFFFF" stroke="#000000" stroke-miterlimit="10" d="M1677.238,780.852c0,0-11-5.75-23.25-7.75s-29.621,6.25-36.186,6
		s23.186,10.5,32.186,10.5S1681.238,786.852,1677.238,780.852z"/>
	<path fill="#FFFFFF" stroke="#000000" stroke-miterlimit="10" d="M1679.988,756.269v-34.667v-8.5c0,0-1.322-8-6.036-7.75
		c-2.315,0.123-5.905,8.225-8.959,16.438c-3.165,8.512-5.755,17.145-5.755,17.145s-45.75,6.181-49.5,7.924s3.75,9.075,27.25,8.409
		S1679.988,758.186,1679.988,756.269z"/>
	<polygon fill="#FFFFFF" stroke="#000000" stroke-miterlimit="10" points="1661.828,730.302 1679.988,732.935 1679.988,721.602 
		1665.417,720.669 	"/>
	<polygon fill="#FFFFFF" stroke="#000000" stroke-miterlimit="10" points="1633.238,703.595 1623.238,701.852 1622.238,726.802 
		1633.238,726.802 	"/>
	<polygon fill="#FFFFFF" stroke="#000000" stroke-miterlimit="10" points="1589.8,701.852 1570.738,701.852 1574.238,707.602 
		1585.74,707.602 	"/>
	<path fill="#FFFFFF" stroke="#000000" stroke-miterlimit="10" d="M1587.798,728.381c0,6.229-4.77,11.28-10.655,11.28
		c-5.885,0-10.654-5.05-10.654-11.28s4.77-13.282,10.654-13.282C1583.029,715.1,1587.798,719.482,1587.798,728.381z"/>
	<path fill="#FFFFFF" stroke="#000000" stroke-miterlimit="10" d="M1622.238,820.102c0,0-10.084-7.75-13.417-7.75
		s0.667,3.75,2.667,7.75s2.75,4.5,11.75,0"/>
	<path fill="#FFFFFF" stroke="#000000" stroke-miterlimit="10" d="M1567.754,761.602c0,0,16.734,4,17.984,14.5
		s2.06,12.25,2.06,12.25l5.609,2.5v7.75l-3.607,1l-2.002,14.175h-2.56c0,0,2.5-19.925-18.75-20.175v-9
		c0,0,10.418,0.176,13.459,3.088s0.791-10.338-6.459-11.588s-7.25-1.25-7.25-1.25L1567.754,761.602z"/>
	<path fill="#FFFFFF" stroke="#000000" stroke-miterlimit="10" d="M1582.322,864.985c0,0,1.334-10.717,3.667-12.05
		s-16.137,1-18.235,0s5.568,6.333,6.568,9s11.87,22.315,11.87,22.315s6.796,13.432,25.463,13.392s40.916,2.293,51.958-6.374
		s9.151-30,9.151-30s-0.516-8.513,1.188-8.756s-15.963,0-15.963,0l3.666,12.474C1661.655,864.985,1622.989,856.703,1582.322,864.985
		z"/>
</g>
<g>
	<polygon fill="#FFFFFF" stroke="#000000" stroke-miterlimit="10" points="578.988,526.248 592.988,111.602 608.988,111.602 
		598.732,526.248 	"/>
	<polygon fill="#FFFFFF" stroke="#000000" stroke-miterlimit="10" points="738.322,526.248 754.26,526.248 762.757,111.602 
		750.539,115.602 	"/>
	<polygon fill="#FFFFFF" stroke="#000000" stroke-miterlimit="10" points="894.536,531.797 908.322,531.797 915.988,117.602 
		899.988,117.602 	"/>
	<g>
		<path fill="#FFFFFF" stroke="#000000" stroke-miterlimit="10" d="M813.988,535.602l-49-3.804c0,0,8.5-30.625,29.5-26.911
			S813.988,535.602,813.988,535.602z"/>
		<path fill="#FFFFFF" stroke="#000000" stroke-miterlimit="10" d="M834,524.031c0,0,2.045,18.213,18.877,18.213
			c16.832,0,21.974-12.682,21.974-18.213c0-5.53-1.262-24.78-20.425-24.78C835.263,499.251,833.58,516.426,834,524.031z"/>
		<polygon fill="#FFFFFF" stroke="#000000" stroke-miterlimit="10" points="835.519,530.586 847.886,520.747 837.025,510.053 
			844.883,499.911 856.302,515.86 869.454,505.043 874.794,514.859 863.136,520.747 872.792,532.056 863.448,538.971 
			855.409,527.489 844.194,540.205 		"/>
		<polygon fill="#FFFFFF" stroke="#000000" stroke-miterlimit="10" points="884.988,469.602 870.988,455.602 862.988,462.602 
			855.156,455.602 841.488,466.102 833.947,455.602 820.988,465.102 810.488,455.602 797.988,466.602 789.5,455.602 
			769.488,472.102 774.488,477.988 786.488,466.795 796.988,474.602 809.488,466.795 821.488,474.602 831.488,466.795 
			840.488,475.102 854.399,464.102 860.488,472.602 872.488,466.795 879.988,472.602 		"/>
		<path fill="#FFFFFF" stroke="#000000" stroke-miterlimit="10" d="M769.488,438.102l2.481-6.5l102.824,4.344l-8.806-13.844
			c0,0-90.537-3.5-94.019-8v-3l100.019,6l13,23.5L769.488,438.102z"/>
		<path fill="#FFFFFF" stroke="#000000" stroke-miterlimit="10" d="M884.988,390.602v9l-38-1.981l-11.469,6.481
			c0,0-0.031-6-4.531-6.75s-3.75,6.75-3.75,6.75l-13.227-10.5l-42.042,1.5v-10l42.042,4.5l10.477-7c0,0,0,10,2.75,10.75
			s11.168-5.25,6.709-8.25s9.041,5.5,9.041,5.5H884.988z"/>
		<path fill="#FFFFFF" stroke="#000000" stroke-miterlimit="10" d="M884.988,352.602L771.97,348.42c0,0,21.519,24.682,59.519,24.682
			S884.988,352.602,884.988,352.602z"/>
		<polygon fill="#FFFFFF" stroke="#000000" stroke-miterlimit="10" points="855.156,340.602 861.988,337.102 840.486,324.699 
			857.487,311.605 852.238,307.602 835.519,318.925 818.988,307.602 814.012,313.102 828.479,324.699 814.012,338.602 
			819.988,340.602 835.519,329.602 		"/>
		<path fill="#FFFFFF" stroke="#000000" stroke-miterlimit="10" d="M771.97,213.102l113.019,5.5v83l-115.5-4L771.97,213.102z
			 M779.934,222.028v70.712l94.917,2.361v-69.5L779.934,222.028z"/>
		<polygon fill="#FFFFFF" stroke="#000000" stroke-miterlimit="10" points="799.482,222.764 799.482,240.102 779.934,240.102 
			779.934,247.602 807.282,247.602 807.508,223.066 		"/>
		<path fill="#FFFFFF" stroke="#000000" stroke-miterlimit="10" d="M859.988,239.269c0.667,3.667-5.667,7.667-4.832,11.333
			s-10.501,22.333-10.501,22.333s-0.333,12,3.333,12.289s15.667,8.397,15.667,8.397h-48.342l14.009-5.352c0,0,0,0-0.843-1.333
			s5.176-8-4.491-8s-18,10.667-18,10.667h-12.268l8.601-12l-12.822,2c0,0,21.822-13.333,33.155-27.333S838,239.935,838,239.935
			s1.322-10,11.988-10s15.667,7.333,15.667,7.333C863.655,236.602,859.988,239.269,859.988,239.269z M833.947,279.602
			c0,0-0.564,7,1.572,7s5.803,0,5.469-3.5S838.684,275.304,833.947,279.602z"/>
		<path fill="#FFFFFF" stroke="#000000" stroke-miterlimit="10" d="M888.988,120.602c0,0-10-8-15.667-5.333s-3.667,26.667-21,19
			s-55.667-25.707-69.667-9.02s6.023,43.353,6.845,43.353s3.512-5.666,0-14.333s-4.155-17,0-23s13.155-11,34.822-0.667
			s42.333,18,48.667,4.333S889.655,125.268,888.988,120.602z"/>
		<path fill="#FFFFFF" stroke="#000000" stroke-miterlimit="10" d="M859.655,180.935c0,0-6.667,9,0,14.667
			s18.334,1.667,15.667-11.333c0,0-4.334,6.841-9.667,5.254S859.655,180.935,859.655,180.935z"/>
		<path fill="#FFFFFF" stroke="#000000" stroke-miterlimit="10" d="M838,185.602l-4.641,12.508h-9.037c0,0-4.334-12.825-12.667,0
			s-5,7.492-7.667,6.159s1.333-23.333,1.333-23.333l0.333-5c0,0,7.333-23.667,11-22.667s14,18,15,22.333S838,185.602,838,185.602z"
			/>
	</g>
	<g>
		<polygon fill="#FFFFFF" stroke="#000000" stroke-miterlimit="10" points="661.835,504.887 661.835,531.797 652.105,531.797 
			650.721,504.887 		"/>
		<polygon fill="#FFFFFF" stroke="#000000" stroke-miterlimit="10" points="643.801,506.708 632.382,506.708 630.998,534.601 
			643.801,534.601 		"/>
		<polygon fill="#FFFFFF" stroke="#000000" stroke-miterlimit="10" points="623.039,506.708 623.039,533.109 611.274,531.797 
			612.275,505.708 		"/>
		<g>
			<path fill="#FFFFFF" stroke="#000000" stroke-miterlimit="10" d="M679.788,527.881v7.72c0,0,43.946,1.37,47.061-29.128
				s-47.407-23.822-42.908-1.899s29.067,0.997,26.299-5.323c0,0-3.807-7.79-12.111-3.421s-2.076,12.89,1.384,10.878
				c0,0-8.305,0.526-6.575-6.798s21.454-10.785,23.876,2.364S713.353,523.037,679.788,527.881z"/>
			<path fill="#FFFFFF" stroke="#000000" stroke-miterlimit="10" d="M673.213,472.517c0,0,24.186,7.973,53.773-25.606l-49.621,3.46
				l4.153,9.756L673.213,472.517z"/>
			<path fill="#FFFFFF" stroke="#000000" stroke-miterlimit="10" d="M668.369,473.343c0,0-38.755-4.432-52.943-26.433l52.943,2.422
				l-6.534,8.997l8.264,15.014H668.369z"/>
			<polygon fill="#FFFFFF" stroke="#000000" stroke-miterlimit="10" points="719.928,425.852 731.001,425.852 731.001,397.621 
				721.658,393.352 			"/>
			<path fill="#FFFFFF" stroke="#000000" stroke-miterlimit="10" d="M692.938,425.852v-28.231l-13.149-2.615l1.73,28.721
				C681.519,423.727,682.903,425.554,692.938,425.852z"/>
			<polygon fill="#FFFFFF" stroke="#000000" stroke-miterlimit="10" points="713.354,425.852 713.354,360.761 731.001,359.019 
				731.001,355.904 706.779,346.215 706.779,425.852 			"/>
			<polygon fill="#FFFFFF" stroke="#000000" stroke-miterlimit="10" points="670.099,422.688 673.213,356.25 694.667,356.25 
				694.667,350.714 665.601,340.602 663.179,422.688 			"/>
			<path fill="#FFFFFF" stroke="#000000" stroke-miterlimit="10" d="M642.763,422.688v-23.184l-9.343-1.884
				C633.42,397.621,626.153,428.225,642.763,422.688z"/>
			<path fill="#FFFFFF" stroke="#000000" stroke-miterlimit="10" d="M623.039,422.688l2.422-61.928l21.108-6.586v-5.754
				l-31.143-11.201l-4.152,84.432C611.274,421.65,615.771,424.072,623.039,422.688z"/>
			<path fill="#FFFFFF" stroke="#000000" stroke-miterlimit="10" d="M725.464,329.953l7.613-37.212l-36.679-2.892
				c0,0,10.727,40.104,13.495,40.104S718.543,332.375,725.464,329.953z"/>
			<path fill="#FFFFFF" stroke="#000000" stroke-miterlimit="10" d="M639.648,320.529v-23.104c0,0-17.993,12.642-24.222,23.104
				C615.426,320.529,623.385,325.292,639.648,320.529z"/>
			<path fill="#FFFFFF" stroke="#000000" stroke-miterlimit="10" d="M661.835,312.305c0,0-0.387,11.64,11.378,12.395
				s12.458-9.28,13.149-11.356s-1.691-11.717-12.265-11.741S661.835,312.305,661.835,312.305z"/>
			<polygon fill="#FFFFFF" stroke="#000000" stroke-miterlimit="10" points="733.077,275.972 733.077,253.479 619.579,250.02 
				619.579,271.127 628.921,265.937 719.928,270.435 			"/>
			<path fill="#FFFFFF" stroke="#000000" stroke-miterlimit="10" d="M731.001,218.185l-113.499-5.083
				c0,0,26.298,23.769,61.42,24.115S731.001,218.185,731.001,218.185z"/>
			<path fill="#FFFFFF" stroke="#000000" stroke-miterlimit="10" d="M646.569,174.931l-1.73-21.693c0,0-18.686,17.092-21.454,27.697
				s7.266,17.18,11.592,15.796S647.697,189.084,646.569,174.931z"/>
			<path fill="#FFFFFF" stroke="#000000" stroke-miterlimit="10" d="M733.077,171.471c0,0-4.152-9.343-11.765,0
				s8.65,28.029-1.384,29.759s-15.225-8.997-15.225-8.997s10.035-6.574,10.035-15.225s-6.574-19.464-21.8-19.464
				s-22.838,9.719-22.838,17.533s-12.803,17.502-12.803,17.502s11.419-0.692,13.841-4.844l1.384-1.73
				c0,0,11.073,12.111,26.645,8.997c0,0,3.806,10.202,19.724,11.502s12.803-12.771,12.111-16.981s2.076-16.322,2.076-16.322V171.471
				z"/>
			<path fill="#FFFFFF" stroke="#000000" stroke-miterlimit="10" d="M686.363,134.1c-31.489-4.498-61.94,1.73-61.94,1.73
				l-4.844-12.121c46.369,8.641,43.6-11.409,76.819-12.107s44.292,24.228,44.292,24.228S717.852,138.598,686.363,134.1z
				 M725.464,129.255c0,0-4.499-11.196-23.53-11.653s-29.759,9.577-29.759,9.577S710.585,131.677,725.464,129.255z"/>
			<path fill="#FFFFFF" stroke="#000000" stroke-miterlimit="10" d="M695.187,117.882c0,0,0.07,11.408,3.235,11.582
				s16.316,0.5,16.316,0.5s0.023-10.298-3.276-11.034S700.827,116.924,695.187,117.882z"/>
		</g>
	</g>
</g>
<polygon fill="#FFFFFF" stroke="#000000" stroke-miterlimit="10" points="1279.32,121.936 1273.987,539.269 1287.987,539.269 
	1292.654,121.936 "/>
<polygon fill="#FFFFFF" stroke="#000000" stroke-miterlimit="10" points="1443.987,539.269 1449.987,126.602 1437.32,125.939 
	1431.987,539.269 "/>
<polygon fill="#FFFFFF" stroke="#000000" stroke-miterlimit="10" points="1599.641,540.384 1602.644,119.936 1589.8,119.936 
	1587.798,539.269 "/>
<g>
	<path fill="#FFFFFF" stroke="#000000" stroke-miterlimit="10" d="M1566.488,492.269c0,0,0.834,42-12.833,33.667
		S1566.488,492.269,1566.488,492.269z"/>
	<path fill="#FFFFFF" stroke="#000000" stroke-miterlimit="10" d="M1512.321,482.602v49.333c0,0,4,4,7,4s18-1.333,18-1.333
		l1.334-33.333l-15.334-1.667l-1.666-17H1512.321z"/>
	<path fill="#FFFFFF" stroke="#000000" stroke-miterlimit="10" d="M1485.988,534.269c0,0-2-8.667-14-10s-12,11.667-12,11.667
		S1470.988,538.936,1485.988,534.269z"/>
	<polygon fill="#FFFFFF" stroke="#000000" stroke-miterlimit="10" points="1474.655,478.935 1466.988,478.935 1465.321,502.935 
		1479.321,509.269 1476.655,503.602 	"/>
	<path fill="#FFFFFF" stroke="#000000" stroke-miterlimit="10" d="M1462.988,461.708c0,0,14.333,9.894,25,9.894s23.667,0,26.667,0
		s27.018,5.334,31.509,5.667s7.86-2.561,10.676-7.78s6.168-7.675,9.658-7.781s4.823-3.772-0.01-5.439s-2.833-2.167-2.833-2.167
		l2.843-11.5l-6.843,10.167l-13-5.5l9.833,8.167c0,0-3.329,13.5-6.748,14.333s-8.585-0.833-16.752-2.833s-13.333,0.167-23,0.667
		s-16.333,0.5-23.333,0.167S1466.988,460.813,1462.988,461.708z"/>
	<path fill="#FFFFFF" stroke="#000000" stroke-miterlimit="10" d="M1466.821,424.935c0,0,7.334,13.667,24.834,13.167
		s25.834-2.333,35.5-1s20.666,5,24.833,0.167s6.131-12.333,6.131-12.333l12.869-5c0,0,1.667-1.667-5.5-3.167
		s-0.834-11.833,1.833-13.833s-9.202,4.833-9.202,4.833s-1.964,2.167-6.131,0.833s-7.833-1.333-7.833-1.333s9.332,5.5,7.666,8.667
		s-1.5,12-3.5,13.833s-2.667,4.667-13,1.833s-22.166-4.5-33.666-1.833s-16.833,3.167-24-0.833S1466.821,424.935,1466.821,424.935z"
		/>
	<path fill="#FFFFFF" stroke="#000000" stroke-miterlimit="10" d="M1525.488,409.935c0,0-3.833-15.833-16.5-15.833s-15.5,17-15.5,17
		S1522.821,413.935,1525.488,409.935z"/>
	<path fill="#FFFFFF" stroke="#000000" stroke-miterlimit="10" d="M1482.655,387.268v-28.667l-10.334-0.833l-2,27.5
		c0,0,1.334,3.333,6.167,3S1482.655,387.268,1482.655,387.268z"/>
	<path fill="#FFFFFF" stroke="#000000" stroke-miterlimit="10" d="M1550.821,389.102l-3.166-55.833c0,0,11.791-4.884,21.979-3.108
		c0,0,0.855,4.108,3.521,4.108s3.5-2,3.5-2l-1.167-18.333h-5l-0.167,12.333c0,0-9.332-6.666-22.666-6.833
		c0,0-1.668-0.167-1.834-1.833s0-7.5,0-7.5h-4.333l-1.333,9.167c0,0-9.667,0.667-19.667,5.5c0,0-5.001,0.167-5.167-2.333
		s-0.833-6.5-0.833-6.5l-6,0.667c0,0-1,21.167,1,22.167s7.646,1.167,6.823-0.667s0-7.5,0-7.5s10.343,1.833,17.51,2
		s6.5,2.833,6.5,4.667s-0.833,51.833-0.833,51.833s1.251,1.333,2.959,0s4.04-1.814,6.374,0.593S1550.821,389.102,1550.821,389.102z"
		/>
	<path fill="#FFFFFF" stroke="#000000" stroke-miterlimit="10" d="M1485.488,324.935c0,0,7.499,9.167,6.833,14.667
		s-6.166,7-12.166,6.5s-10.168-5.667-9.834-6.5s-0.833-0.333-0.833-0.333l0.833-8.666l2.667-0.442l3.5-7.058
		c0,0-3.001-4.167-6.167-4l3.334-1l-0.167-3.167l-4-1l22.875,1c0,0,1.208,5.166,0,6.333s-6.209-1-6.542,1.333
		S1485.488,324.935,1485.488,324.935z"/>
	<path fill="#FFFFFF" stroke="#000000" stroke-miterlimit="10" d="M1566.488,301.102c0,0-60.667,5.167-65.5,1
		s20.167-4.333,20.167-4.333l4.333-17l-6.5-9.833c0,0-22.667,15.124-28,16.395s-17.667,1.105-17.667,1.105s5.666-7.667,4.5-8.833
		s-10.166-3-10.166-3s33.499-10.833,38.166-17.833s26.5-28.333,28.667-29.5s3-1.167,3-1.167s6.501-21,14.667-21.333
		s18.002,0.834,19.001,7.667c0,0,5.499,2.666,5.499,6.333c0,0-7.166-1-9.5,3s0.5,12.167-3.167,19.833s-21.541,32.333-21.541,32.333
		s-0.625,18.167,3.208,19.667S1571.988,294.935,1566.488,301.102z M1529.321,292.935c-0.667,3.833,9.999,6.167,10.333,0
		s-6.833-16-6.833-16C1532.654,281.102,1529.988,289.102,1529.321,292.935z"/>
	<path fill="#FFFFFF" stroke="#000000" stroke-miterlimit="10" d="M1476.488,210.768v36.333c0,0-12.501,1.167-13.167,0
		s1-36.333,1-36.333S1472.155,209.268,1476.488,210.768z"/>
	<path fill="#FFFFFF" stroke="#000000" stroke-miterlimit="10" d="M1552.821,159.602c0,0,8.001,26.667,5.834,30.5
		s-7.168,6.333-10.834,4.333s-6.167-8.334-4-15.667S1552.821,159.602,1552.821,159.602z"/>
	<path fill="#FFFFFF" stroke="#000000" stroke-miterlimit="10" d="M1571.655,125.602c0,0-3-6.332-10.667-3.666
		s-9.167,6.833-9.167,12.333s0.834,14.5-14.666,8s-47.667-17.834-60.667-10.667s-5.167,11.698-3.167,12.933s9.834-1.599,8.667-3.099
		s-0.667-7.833,8.833-5.833s56.166,16.167,61.5,14.833s7.5-6,7.5-9.333s-0.794-8.667-0.794-8.667S1570.989,132.935,1571.655,125.602
		z"/>
	<path fill="#FFFFFF" stroke="#000000" stroke-miterlimit="10" d="M1489.488,144.769c0,0,6.499,16.667,8.833,20.667
		s13.167,0.333,14.167-4.667v-2c0,0-3.167-0.799-2.167-2.816s3.501-4.517,5.834-2.684s3.5,3.167,1.333,4.5s-2.167,1.333-2.167,1.333
		s0.166,5.069-1,8.035s-7.679,6.686-12,6.733c-9,0.099-17.666-22.101-18.333-25.101s4.166-5.333,6.333-4"/>
</g>
<path fill="#FFFFFF" stroke="#000000" stroke-miterlimit="10" d="M1303.655,228.861"/>
<g>
	<path fill="#FFFFFF" stroke="#000000" stroke-miterlimit="10" d="M1339.988,121.936c0,0-7.667,30-22,25
		S1332.655,121.936,1339.988,121.936z"/>
	<path fill="#FFFFFF" stroke="#000000" stroke-miterlimit="10" d="M1422.655,137.269c0,0-6.334-6.333-11.334-6.333
		c0,0-1.999-5.991-6.666-4.996s-11.334,4.596-7.667,9.962s1.333,15.21-3,14.622s-15-6.255-76.667,11.078c0,0,3,9.204,19.667,12.269
		s60.667-0.602,64-9.602s8.333-17.333,6.333-25.333S1420.322,136.269,1422.655,137.269z"/>
	<path fill="#FFFFFF" stroke="#000000" stroke-miterlimit="10" d="M1305.988,206.717v6.551c0,0,37-1.667,46,2s22,5.667,22,5.667
		l-9.667-17C1364.321,203.935,1333.661,212.846,1305.988,206.717z"/>
	<path fill="#FFFFFF" stroke="#000000" stroke-miterlimit="10" d="M1303.655,289.602c0,0,8.818,2.333,10.409,2.333
		s0-54.667,0-54.667s18.591,3.667,18.924,2s1.333-5.667-2-6.667s-27.333-9.592-27.333-6.667S1305.989,284.602,1303.655,289.602z"/>
	<path fill="#FFFFFF" stroke="#000000" stroke-miterlimit="10" d="M1303.655,303.726l106.333,1.543c0,0,7.667,18.333-45.333,19.333
		S1303.655,303.726,1303.655,303.726z"/>
	<path fill="#FFFFFF" stroke="#000000" stroke-miterlimit="10" d="M1353.321,340.269c0,0-14.334-7.996,6-7.665
		s14.667,7.665,14.667,7.665l-1.667,2.667c0,0,30.333,9.333,36,14.833s7.333-1.972,7-7.402s0.04-15.431,0.04-15.431l3.627-0.333
		c0,0,5.438,34.333-8.614,32.333s-94.053-3-99.386-4.667s-6.666-9.82-7.333-16.077s0-10.59,0-10.59h4.333
		c0,0-0.667,17.667,6.333,17.667S1331.939,342.201,1353.321,340.269z"/>
	<path fill="#FFFFFF" stroke="#000000" stroke-miterlimit="10" d="M1301.988,380.269c-1.292,6.888,22.333,4.333,21.667,0s-11-5-11-5
		S1302.988,374.936,1301.988,380.269z"/>
	<path fill="#FFFFFF" stroke="#000000" stroke-miterlimit="10" d="M1328.655,373.03v9.239l18-2.372l4,4.632l11.036-4.632
		c0,0,6.63,4.227,9.297,4.632s8-5.75,8-5.75s8.001,5.156,10.667,4.156s8.332-3.478,12.666,1.594s4-2.337,0-4.632s-9.334-5.705-15,0
		l-7.333-4.633l-10,4.633l-7-4.633l-11.667,4.385l-3.333-4.385l-14.598,2.671l-2.402-4.905H1328.655z"/>
	<path fill="#FFFFFF" stroke="#000000" stroke-miterlimit="10" d="M1305.321,390.629v37.639l23.334,1.667
		c0,0-0.667-8.611-1.667-8.806s-9,4.528-10,0s0-29.194,0-29.194L1305.321,390.629z"/>
	<path fill="#FFFFFF" stroke="#000000" stroke-miterlimit="10" d="M1387.655,405.602c0,0-14.54,28.667-20.604,23.333
		s-7.73-7.806-7.73-7.806l1-3.53l6.73,2.002l14.27-18.667L1387.655,405.602z"/>
	<path fill="#FFFFFF" stroke="#000000" stroke-miterlimit="10" d="M1365.655,397.269l-6.334-3.167c0,0-15.334,20.114-21,17.974
		c0,0,14.334,6.527,13.667,6.193s0.667-7,4.667-10.667S1365.655,397.269,1365.655,397.269z"/>
	<path fill="#FFFFFF" stroke="#000000" stroke-miterlimit="10" d="M1417.988,464.602c0,0-1.333-26.333-15.333-27.333
		s-18,27.333-18,27.333H1417.988z"/>
	<path fill="#FFFFFF" stroke="#000000" stroke-miterlimit="10" d="M1361.691,482.602c0,0-46.307-2.335-59.754,4.667
		s5.052,12.333,6.718,12.333s8.333-8.687,8.333-8.687l8.333,8.687l7.334-7.333c0,0,6.667,5,8,4.667s6.334-4.333,8-4.667
		s10.332,4.667,10.666,4.667s5.001-7.333,6.334-7.333s4,7,7.833,7s8.167-7.333,9.167-7.333s7.666,6.333,9.333,6.667
		s4.667-3.708,5.667-5.021s6.333,6.021,6.333,6.021s14.335-9-2.666-12.333S1361.691,482.602,1361.691,482.602z"/>
	<path fill="#FFFFFF" stroke="#000000" stroke-miterlimit="10" d="M1307.321,517.602c0,0,17.667-10,46.032-10s44.968,10,44.968,10
		C1349.987,542.602,1307.321,517.602,1307.321,517.602z M1385.655,518.157c0,0-19.306-9.111-61.986,0c0,0,28.986,10.556,63.986,0"/>
	<path fill="#FFFFFF" stroke="#000000" stroke-miterlimit="10" d="M1396.321,540.384l-5.666-1.115v-8.74l5.666,3.74
		c0,0-3-7.444-7.333-5.556s-1.333,13.222-1.333,13.222S1396.321,543.166,1396.321,540.384z"/>
	<path fill="#FFFFFF" stroke="#000000" stroke-miterlimit="10" d="M1355.321,540.384c0,0-2.999-9.449-7.666-8.449s-4.667,1-4.667,1
		l-2.333,7.449H1355.321z"/>
	<path fill="#FFFFFF" stroke="#000000" stroke-miterlimit="10" d="M1314.988,531.861c0,0-6.334,12.638-9.667,8.523
		S1303.321,529.453,1314.988,531.861z"/>
	<ellipse fill="#FFFFFF" stroke="#000000" stroke-miterlimit="10" cx="1318.608" cy="459.101" rx="16.874" ry="16.5"/>
	<path fill="#FFFFFF" stroke="#000000" stroke-miterlimit="10" d="M1323.669,459.102c0,0,8.319-5.167,4.986-6.167
		s-6.667-3.333-8.667,0s-3,2.218-3,2.218l-5.333-3.948c0,0-4.001,3.396-4.334,5.729s8.333,1.36,7.667,3.013
		s-0.705,2.987-2.186,4.653s1.519,3.333,2.186,3.667s3.238-2.667,3.619-3.667s2.408,1.333,5.062,2s5.653-2,4.986-3.667
		S1323.669,459.102,1323.669,459.102z"/>
	<path fill="#FFFFFF" stroke="#000000" stroke-miterlimit="10" d="M1373.488,234.602v1.334v49.288c0,0-10.833,2.044-9.833,4.044
		s-1.999,3,14.667,4.333s34.333,0,34.333,0v-4.667l-30-1.667l2-10l13.666,0.667v-2l-13.666-0.667v-4.333l11.666-1
		c0,0-3.333-8-11.666-9s-6.667-20.667-8.667-24.333S1373.488,234.602,1373.488,234.602z"/>
</g>
<g display="none">
	<g display="inline">
		<path fill="#FFFFFF" stroke="#000000" stroke-miterlimit="10" d="M108.988,1722.038l332,8.985l327.494,12.578l204.333-13.067
			l223.077,7.76l332.096,8.808l426.083,3.965l317.917,3.01h257.1v18.525l-397.1-7l-418-1l-310-6l-319-4.839l-220,0.313
			c0,0-95.846,9.525-141.423,6.525s-293.577-6.839-293.577-6.839l-255-6.661l-10,0.219l-25-3.719l-27-7.5L108.988,1722.038z"/>
		<path fill="#FFFFFF" stroke="#000000" stroke-miterlimit="10" d="M2529.088,1790.602l0.025,16l-796.027-8
			c0,0-817.098-14-881.098-8s-128.423,7.253-128.423,7.253l-591.577-25.253l-8-18.839c0,0,481.632,41.512,616,26.419
			c112-12.58,608,0,608,0L2529.088,1790.602z"/>
		<path fill="#FFFFFF" stroke="#000000" stroke-miterlimit="10" d="M2529.088,1825.602v10h-543.1h-249l-679-10h-295l5.494-11
			c0,0,138.645-8,201.576-8s500.892,8,500.892,8s488.039,2,538.039,2S2529.088,1825.602,2529.088,1825.602z"/>
		<path fill="#FFFFFF" stroke="#000000" stroke-miterlimit="10" d="M2529.113,1856.602l-0.025,16h-540.1h-504c0,0-162-4-213,0
			s-75.309-5-112.154,0s-292.846,1.058-292.846,1.058l-87-7.791v-22.267c0,0,85,6,126,0s121,8,144,8s36-6,91-4s142-1,196,0
			s66.725,2,105.362,1s357.638,2,357.638,2h338l391.1,2"/>
	</g>
	<polygon display="inline" fill="#FFFFFF" stroke="#000000" stroke-miterlimit="10" points="2529.088,1754.076 2491.984,1753.763 
		2479.988,126.602 2511.988,126.602 	"/>
	<polygon display="inline" fill="#FFFFFF" stroke="#000000" stroke-miterlimit="10" points="2529.113,93.763 990.226,89.759 
		67.988,84.602 67.988,49.602 925.988,63.602 2008.321,64.602 2529.113,68.46 	"/>
	<path display="inline" fill="#FFFFFF" stroke="#000000" stroke-miterlimit="10" d="M2529.113,42.602v-12c0,0-785.572,4-856.349,0
		s-367.072,2.997-437.924-3.003S743.988,14.602,731.988,14.602s-650,0-650,0v14c0,0,517.5,0,589.75,0s592.831,14,592.831,14
		H2529.113z"/>
</g>
<g>
	<path fill="#FFFFFF" stroke="#000000" stroke-miterlimit="10" d="M2038.311,527.602c0,0,38.588,4.5,39.133,10.5s-9.311,11-39.133,8
		s-77.883-2.93-85.603-2.715s-34.554,1.111-36.387-6.087s41.333-9.698,41.333-9.698v-3.5c0,0-26.665-9.865-36.196-18.5
		c-11.434-10.358-9.47-32.201-7.47-67.851s2.1-129.07,2.333-133.149c0.668-11.667-14.072-80.5,79.071-80.5
		c87.93,0,74.597,57.18,75.096,77.5c0.259,10.544,0.501,183.333-5.5,196.5c-8.594,18.855-30,26.5-30,26.5L2038.311,527.602z"/>
	<path fill="#FFFFFF" stroke="#000000" stroke-miterlimit="10" d="M2057.488,401.313V269.27c0,0-3.5-26.168-42.5-31.668
		s-82,1.232-84.5,39.866s-3.423,136.142-3.168,147.634c0.33,14.864-6.665,66.167,11.168,75.5c20.208,10.577,32.309,14.5,56.904,13.5
		s58.596-9.496,59.596-26.498s3-80.002,3-80.002L2057.488,401.313z"/>
	<polygon fill="#FFFFFF" stroke="#000000" stroke-miterlimit="10" points="2033.969,506.879 2035.901,545.871 2022.992,544.896 
		2022.621,510.776 	"/>
	<polygon fill="#FFFFFF" stroke="#000000" stroke-miterlimit="10" points="2022.992,544.896 2010.975,544.271 2009.974,513.586 
		2022.621,510.776 	"/>
	<polygon fill="#FFFFFF" stroke="#000000" stroke-miterlimit="10" points="2010.975,544.271 2000.322,543.387 2000.322,514.238 
		2010.32,512.935 	"/>
	<polygon fill="#FFFFFF" stroke="#000000" stroke-miterlimit="10" points="2000.322,543.387 1988.656,543.568 1988.656,514.237 
		2000.322,514.238 	"/>
	<polygon fill="#FFFFFF" stroke="#000000" stroke-miterlimit="10" points="1988.656,543.568 1977.655,543.387 1977.655,513.936 
		1988.656,514.237 	"/>
	<polygon fill="#FFFFFF" stroke="#000000" stroke-miterlimit="10" points="1977.655,543.387 1967.656,543.306 1967.656,512.027 
		1977.655,513.936 	"/>
	<polygon fill="#FFFFFF" stroke="#000000" stroke-miterlimit="10" points="1967.656,543.306 1957.654,543.306 1957.654,508.554 
		1967.656,512.027 	"/>
	<polygon fill="#FFFFFF" stroke="#000000" stroke-miterlimit="10" points="2035.901,499.602 2034.656,493.935 1967.656,491.268 
		1967.656,497.935 	"/>
	<path fill="#FFFFFF" stroke="#000000" stroke-miterlimit="10" d="M1988.656,466.615c0,0,4.673-2.081,8.666,1.653
		c4.457,4.167,9,9.667,9,9.667s-0.086,5.333-4.543,5s-16.79-1.667-16.79-1.667s-6-2.333-3.667-6.895
		C1982.858,471.369,1988.656,466.615,1988.656,466.615z"/>
	<path fill="#FFFFFF" stroke="#000000" stroke-miterlimit="10" d="M1947.707,495.429c0.334-2.167,1.57-36.833,1.57-36.833
		l-10.237,0.001v-6.335l8.962,0.668c-2.04-1.667-7.962-19,3.757-19s4.946,20,4.946,20h7.668v6l-9.333-1.001v36.5H1947.707z
		 M1947.95,443.269c0.293,5,3.372,7.667,4.758,7.667s3.281-5,3.281-7.667c0-5.067-3.281-5.518-3.281-5.518
		S1947.657,438.268,1947.95,443.269z"/>
	<path fill="#FFFFFF" stroke="#000000" stroke-miterlimit="10" d="M2041.656,485.769c0,0-10.167-2.833-7.667-15.5
		s1.333-22.334-7.5-22.667s-21.499,6.667-27.333,2.167s-6.5-11.035-4.667-12.018s5.247,1.216,7.29,0.45s4.209-5.267,4.543-6.1
		s1.334-2.333,2.334-3.833s-0.834-4.167-5.667-1.833s-1.167,5.833-5,5.833s-5.333,0.5-5.333,0.5s-8-1.667-10.5-2.167
		s-5.668,0.489-4.501,3.328s8.655,8.377,12.334,7.774c0,0,2.834,12.479,8.667,13.938s17.333,0.874,20.333,0
		s10.666-1.874,10.833,4.293s-3.519,23.46,6.079,25.833C2043.322,487.604,2041.656,485.769,2041.656,485.769z"/>
	<path fill="#FFFFFF" stroke="#000000" stroke-miterlimit="10" d="M1994.489,392.435c-18,0.003-55.333-7-56.5-9.333
		s30.667-11.5,56.5-12.5s47.327,13.333,47.327,13.333C2030.156,391.102,2008.322,392.433,1994.489,392.435z M2031.489,383.435
		c0,0-13.833-7.167-35.833-7.167s-40.834,7.167-40.834,7.167S2003.322,393.769,2031.489,383.435z"/>
	<path fill="#FFFFFF" stroke="#000000" stroke-miterlimit="10" d="M1940.822,287.269l1.167,34.333c0,0,0.507,9.111,5.667,9.667
		c7.833,0.844,29.5,4.333,23.333-9.833S1940.154,267.619,1940.822,287.269z"/>
	<path fill="#FFFFFF" stroke="#000000" stroke-miterlimit="10" d="M1939.822,344.435v9.125h46.334h2.333l0.667,8.183
		c0,0,5.776,0.699,5.805-0.387s-2.012-9.586-1.408-11.586s1.063-5.667,0-5.333s-2.73,2.5-4.73,2.333
		S1947.155,347.269,1939.822,344.435z"/>
	<path fill="#FFFFFF" stroke="#000000" stroke-miterlimit="10" d="M2003.989,343.102l-1,14.5c0,0,0.999,2.667,3.333,1.667
		s5.666-6.751,7-5.709s24,2.209,24,2.209h7v-4.471c0,0-8.166-2.862-14.666-2.529s-13.334,1.167-13.334,1.167
		s-3.089-0.333-6.711-3.833S2003.989,343.102,2003.989,343.102z"/>
	<path fill="#FFFFFF" stroke="#000000" stroke-miterlimit="10" d="M2049.156,329.769c0,0-0.666-28.333-2-41.833
		s-4.334-29.833-21.834-32.833v6.167l11.917,7v4.5l-11.917-5.167v9.866l12.667,5.806l0.333,7.662l-11.999-4.797l-0.001,8.845
		l13.855,5.128l0.145,4.974l-14.147-5.311l-0.186,7.312l15.667,5.489c0,0-0.013-1.14,0.16,0.86s1.34,17.333,1.34,17.333
		S2049.203,331.601,2049.156,329.769z"/>
	<path fill="#FFFFFF" stroke="#000000" stroke-miterlimit="10" d="M2005.989,280.108c0.435-1.892,0.833-2.861,0.167-4.861
		s-17.834-6.035-17.834-6.035v-14.11c0,0,4.5,1.167,16,5s10.667,25.667,10.667,25.667v43h-7.833c0,0,0.832-13.833-0.834-16
		s-8.057-6.5-11.361-7.333s-6.639-2.5-6.639-2.5v-9.906c0,0,18.166,8.573,19,10.239c0,0,0.833-8.5-1-9.5s-16.436-7.5-16.436-7.5
		v-8.801C1989.887,277.468,2005.033,284.268,2005.989,280.108z"/>
	<rect x="2068.655" y="212.602" fill="#FFFFFF" stroke="#000000" stroke-miterlimit="10" width="6.667" height="10"/>
	<rect x="2055.655" y="212.602" fill="#FFFFFF" stroke="#000000" stroke-miterlimit="10" width="5.334" height="8.001"/>
	<rect x="2040.322" y="212.602" fill="#FFFFFF" stroke="#000000" stroke-miterlimit="10" width="8.834" height="10"/>
	<path fill="#FFFFFF" stroke="#000000" stroke-miterlimit="10" d="M1920.238,226.824h22l-1.43-5.223l11.18-5c0,0-6.25-5.25-7.75-7.5
		l-6.28,7.5c0,0-2.22-1-1.845-4s1.845-5.25,1.845-5.25l-1.845-2c0,0-4.875,1-5.875,0s-3.999,0-3.999,0s2.999,6,1.999,7.25
		s-8.5,0-9.5-2.5l-2-1l-3.25,7.5c0,0,8.5,2.501,8.75,4s-2,3.499-2,3.499S1918.738,226.824,1920.238,226.824z"/>
	<path fill="#FFFFFF" stroke="#000000" stroke-miterlimit="10" d="M2063.738,184.102c0,0-17.555,22.25-68.777,22.25
		s-64.723-14-66.973-22.25s6.25-19,7-22.25s5.82-21.5,5.82-21.5s-11.57-7-8.07-11.25s23.706,8.25,23.706,8.25s4.706,6.75,0,9.5
		s-13.706,17.25-13.206,21.75s12.25,5.25,15.75,0.75s7.25-6.5,7.25-6.5s-7-14-4.5-21.5s12.25-19.5,28.75-19.5s30,11.5,29.75,22.75
		s2.75,23.75,15,25.25s31,6.5,28.5,13.25"/>
	<path fill="#FFFFFF" stroke="#000000" stroke-miterlimit="10" d="M2031.488,130.102c0,0,39.5,11.25,33.75,24
		S2039.738,165.102,2031.488,130.102z"/>
</g>
<g>
	<path fill="#FFFFFF" stroke="#000000" stroke-miterlimit="10" d="M1894.322,212.602c0,0,2.667,4.667,0,6.333s-15,1.668-23,1.667
		s-30-3.001-30-3.001v-5H1894.322z"/>
	<rect x="1746.322" y="212.602" fill="#FFFFFF" stroke="#000000" stroke-miterlimit="10" width="48.667" height="6.333"/>
	<path fill="#FFFFFF" stroke="#000000" stroke-miterlimit="10" d="M1765.988,130.102c0,0,8.25,5,7.25,9.5s-8.5,26.851-5.25,36.8
		s2.5,27.95,61,27.2s52.75-27,49.5-39.5s-9.5-27.75-1.25-30.75s8.488-7.25,3.119-10s-24.369,5-23.119,12s12.25,15.75,12.75,22.25
		s-10.75,9.25-14.75,6.5s-5.5-6-5.5-6s13.75-33.25-19-40.25s-42.25,22.75-38.5,30.75s16,18.75,15,21.75s-24.5,6.75-28.5-1.75
		s-4.5-14,1.75-21s14.25-14.75-4-21.5S1760.768,125.778,1765.988,130.102z"/>
	<path fill="#FFFFFF" stroke="#000000" stroke-miterlimit="10" d="M1855.988,518.935c0,0,8.667-10.667,15.667-14.333
		s16.999-6.666,18.666-23.333s3.334-158.333,3.334-158.333s6.332-61.667-15.334-75.667s-40-26.222-78-20.444
		s-57,21.11-57.333,45.444s-2.111,138.334-3.056,155.667s-9.944,60.667,10.056,71.667s30.668,17.333,30.668,17.333v2
		c0,0-45.001,7-45.668,12.333s-2.333,7.231,21.667,9.116s123.666,5.472,129.666,4.512s17.667-4.627,13.667-10.294
		s-39.984-9.667-41.992-12.667S1855.988,518.935,1855.988,518.935z"/>
	<path fill="#FFFFFF" stroke="#000000" stroke-miterlimit="10" d="M1879.988,361.964c0,0,0.854,122.971-11.573,129.304
		s-24.575,17.888-55.751,15.611s-61.176-15.392-61.176-29.584s5.5-140.693,4.5-164.693s-7.988-74.5,59.756-73.5
		s64.257,38.366,64.257,38.366L1879.988,361.964z"/>
	<polygon fill="#FFFFFF" stroke="#000000" stroke-miterlimit="10" points="1851.992,544.476 1853.514,499.602 1843.248,503.854 
		1843.248,544.569 	"/>
	<polygon fill="#FFFFFF" stroke="#000000" stroke-miterlimit="10" points="1843.248,544.569 1833.485,543.922 1832.988,506.879 
		1843.248,503.854 	"/>
	<polygon fill="#FFFFFF" stroke="#000000" stroke-miterlimit="10" points="1833.485,543.922 1823.238,543.568 1823.238,507.172 
		1832.988,506.879 	"/>
	<polygon fill="#FFFFFF" stroke="#000000" stroke-miterlimit="10" points="1823.238,543.568 1811.229,543.074 1812.664,506.879 
		1823.238,507.172 	"/>
	<polygon fill="#FFFFFF" stroke="#000000" stroke-miterlimit="10" points="1811.229,543.074 1800.985,542.662 1802.186,505.703 
		1812.664,506.879 	"/>
	<polygon fill="#FFFFFF" stroke="#000000" stroke-miterlimit="10" points="1800.985,542.662 1789.475,542.167 1791.341,503.854 
		1802.186,505.703 	"/>
	<polygon fill="#FFFFFF" stroke="#000000" stroke-miterlimit="10" points="1789.475,542.167 1781.05,541.778 1781.05,500.742 
		1791.341,503.854 	"/>
	<path fill="#FFFFFF" stroke="#000000" stroke-miterlimit="10" d="M1863.488,478.102c0,0-21.25-6-43-7.5s-53.75,1.25-53.75,1.25
		s22.512,13,51.006,12.25S1863.488,478.102,1863.488,478.102z"/>
	<path fill="#FFFFFF" stroke="#000000" stroke-miterlimit="10" d="M1829.362,450.102c0,0,4.87,7.25,4.123,8.75s-1.747,1.25-10.247,1
		s-17.25,0.25-18-2s4.512-17.546,12.506-16.148S1829.362,450.102,1829.362,450.102z"/>
	<path fill="#FFFFFF" stroke="#000000" stroke-miterlimit="10" d="M1822.019,405.852c27.256-0.25,46.72,11,46.72,13
		s-8.5,9.75-46.75,10.5s-61.25-11.75-61.25-11.75c4.75-8.5,53-11.754,53-11.754L1822.019,405.852z M1815.76,412.176
		c0,0-42.521,3.704-40.271,5.439s29,7.986,45.25,6.736s37-3,34.75-5S1838.118,412.176,1815.76,412.176z"/>
	<path fill="#FFFFFF" stroke="#000000" stroke-miterlimit="10" d="M1870.488,387.927h-39.25c0,0,8.25-23.576,19.625-22.826
		S1870.488,387.927,1870.488,387.927z"/>
	<path fill="#FFFFFF" stroke="#000000" stroke-miterlimit="10" d="M1766.738,385.207l31.25,2.72c0,0-3.25-25.101-13.25-25.963
		S1762.488,382.812,1766.738,385.207z"/>
	<path fill="#FFFFFF" stroke="#000000" stroke-miterlimit="10" d="M1871.738,287.102v5.928c0,0-41.5-5.957-46-23.817
		s15.75-20.61,20-14.11s-3.25,14.25-7,12.75s-4.75-5.25-3.75-6.25c0,0,3.998,2.749,5,1.75c3.26-3.25-7.101-8.25-7.426-0.75
		S1832.238,278.852,1871.738,287.102z"/>
	<path fill="#FFFFFF" stroke="#000000" stroke-miterlimit="10" d="M1766.738,262.602c0,0,1.5-6.5,10.75-5.75
		c0,0,6.502-5.37,17.501-0.06c0,0,3.999,2.06,2.999,3.56s-5.5,2.128-6.25,5.064s-4,10.668,1.5,12.052s10.703-1.116,31.852,19.884
		c0,0,7.398,3.5,14.398,8.5s7,5,7,5s21.25-1.75,24,0s-2.073,6.75-2.073,6.75s3.769,4.25,2.921,6.25s-7.848,3.5-7.848,3.5
		s-2.5,3.75-8.75,0s-27.496-14.75-35.373-15.75s-14.198-3.25-14.198-3.25l4.321,20.417c0,0,8.004,3.415,9.877,5.249
		s-24.376,1.029-24.376,1.029s5.249-2.234,6.499-4.089s-9.75-29.105-9.75-29.105s-13-12.637-13.75-19.943s0.883-9.586,3.941-12.696
		s-0.441-6.61-1.941-6.36S1772.24,261.217,1766.738,262.602z"/>
</g>
</svg>
